<?xml version="1.0" encoding="UTF-8"?>
<svg xmlns="http://www.w3.org/2000/svg" xmlns:xlink="http://www.w3.org/1999/xlink" width="1440pt" height="809.999993pt" viewBox="0 0 1440 809.999993" version="1.2">
<defs>
<clipPath id="clip1">
  <path d="M 0 660 L 180 660 L 180 810 L 0 810 Z M 0 660 "/>
</clipPath>
<clipPath id="clip2">
  <path d="M -69.328125 599.335938 L 215.886719 725.8125 L 156.902344 858.824219 L -128.3125 732.34375 Z M -69.328125 599.335938 "/>
</clipPath>
<clipPath id="clip3">
  <path d="M -69.328125 599.335938 L 215.886719 725.8125 L 156.902344 858.824219 L -128.3125 732.34375 Z M -69.328125 599.335938 "/>
</clipPath>
<clipPath id="clip4">
  <path d="M -69.328125 599.335938 L 215.640625 725.703125 L 156.539062 858.980469 L -128.429688 732.613281 Z M -69.328125 599.335938 "/>
</clipPath>
<clipPath id="clip5">
  <path d="M 0 768 L 143 768 L 143 810 L 0 810 Z M 0 768 "/>
</clipPath>
<clipPath id="clip6">
  <path d="M -39.578125 750.117188 L 153.046875 780.46875 L 138.921875 870.109375 L -53.703125 839.761719 Z M -39.578125 750.117188 "/>
</clipPath>
<clipPath id="clip7">
  <path d="M -39.578125 750.117188 L 153.046875 780.46875 L 138.921875 870.109375 L -53.703125 839.761719 Z M -39.578125 750.117188 "/>
</clipPath>
<clipPath id="clip8">
  <path d="M -39.578125 750.117188 L 153.300781 780.507812 L 139.144531 870.347656 L -53.730469 839.957031 Z M -39.578125 750.117188 "/>
</clipPath>
<clipPath id="clip9">
  <path d="M 115 768 L 303 768 L 303 810 L 115 810 Z M 115 768 "/>
</clipPath>
<clipPath id="clip10">
  <path d="M 120.363281 750.117188 L 312.988281 780.46875 L 298.863281 870.109375 L 106.238281 839.761719 Z M 120.363281 750.117188 "/>
</clipPath>
<clipPath id="clip11">
  <path d="M 120.363281 750.117188 L 312.988281 780.46875 L 298.863281 870.109375 L 106.238281 839.761719 Z M 120.363281 750.117188 "/>
</clipPath>
<clipPath id="clip12">
  <path d="M 120.363281 750.117188 L 313.242188 780.507812 L 299.085938 870.347656 L 106.207031 839.957031 Z M 120.363281 750.117188 "/>
</clipPath>
<clipPath id="clip13">
  <path d="M 416 768 L 604 768 L 604 810 L 416 810 Z M 416 768 "/>
</clipPath>
<clipPath id="clip14">
  <path d="M 421.480469 750.117188 L 614.105469 780.46875 L 599.980469 870.109375 L 407.359375 839.761719 Z M 421.480469 750.117188 "/>
</clipPath>
<clipPath id="clip15">
  <path d="M 421.480469 750.117188 L 614.105469 780.46875 L 599.980469 870.109375 L 407.359375 839.761719 Z M 421.480469 750.117188 "/>
</clipPath>
<clipPath id="clip16">
  <path d="M 421.480469 750.117188 L 614.359375 780.507812 L 600.203125 870.347656 L 407.328125 839.957031 Z M 421.480469 750.117188 "/>
</clipPath>
<clipPath id="clip17">
  <path d="M 265 783 L 453 783 L 453 810 L 265 810 Z M 265 783 "/>
</clipPath>
<clipPath id="clip18">
  <path d="M 270.835938 765.117188 L 463.457031 795.46875 L 449.335938 885.109375 L 256.710938 854.761719 Z M 270.835938 765.117188 "/>
</clipPath>
<clipPath id="clip19">
  <path d="M 270.835938 765.117188 L 463.457031 795.46875 L 449.335938 885.109375 L 256.710938 854.761719 Z M 270.835938 765.117188 "/>
</clipPath>
<clipPath id="clip20">
  <path d="M 270.835938 765.117188 L 463.714844 795.507812 L 449.558594 885.347656 L 256.679688 854.957031 Z M 270.835938 765.117188 "/>
</clipPath>
<clipPath id="clip21">
  <path d="M 557 768 L 745 768 L 745 810 L 557 810 Z M 557 768 "/>
</clipPath>
<clipPath id="clip22">
  <path d="M 562.601562 750.117188 L 755.222656 780.46875 L 741.097656 870.109375 L 548.476562 839.761719 Z M 562.601562 750.117188 "/>
</clipPath>
<clipPath id="clip23">
  <path d="M 562.601562 750.117188 L 755.222656 780.46875 L 741.097656 870.109375 L 548.476562 839.761719 Z M 562.601562 750.117188 "/>
</clipPath>
<clipPath id="clip24">
  <path d="M 562.601562 750.117188 L 755.476562 780.507812 L 741.324219 870.347656 L 548.445312 839.957031 Z M 562.601562 750.117188 "/>
</clipPath>
<clipPath id="clip25">
  <path d="M 700 768 L 888 768 L 888 810 L 700 810 Z M 700 768 "/>
</clipPath>
<clipPath id="clip26">
  <path d="M 705.859375 750.117188 L 898.484375 780.46875 L 884.359375 870.109375 L 691.734375 839.761719 Z M 705.859375 750.117188 "/>
</clipPath>
<clipPath id="clip27">
  <path d="M 705.859375 750.117188 L 898.484375 780.46875 L 884.359375 870.109375 L 691.734375 839.761719 Z M 705.859375 750.117188 "/>
</clipPath>
<clipPath id="clip28">
  <path d="M 705.859375 750.117188 L 898.738281 780.507812 L 884.582031 870.347656 L 691.703125 839.957031 Z M 705.859375 750.117188 "/>
</clipPath>
<clipPath id="clip29">
  <path d="M 572 783 L 760 783 L 760 810 L 572 810 Z M 572 783 "/>
</clipPath>
<clipPath id="clip30">
  <path d="M 577.601562 765.117188 L 770.222656 795.46875 L 756.097656 885.109375 L 563.476562 854.761719 Z M 577.601562 765.117188 "/>
</clipPath>
<clipPath id="clip31">
  <path d="M 577.601562 765.117188 L 770.222656 795.46875 L 756.097656 885.109375 L 563.476562 854.761719 Z M 577.601562 765.117188 "/>
</clipPath>
<clipPath id="clip32">
  <path d="M 577.601562 765.117188 L 770.476562 795.507812 L 756.324219 885.347656 L 563.445312 854.957031 Z M 577.601562 765.117188 "/>
</clipPath>
<clipPath id="clip33">
  <path d="M 764 761 L 952 761 L 952 810 L 764 810 Z M 764 761 "/>
</clipPath>
<clipPath id="clip34">
  <path d="M 769.074219 742.617188 L 961.695312 772.96875 L 947.570312 862.609375 L 754.949219 832.261719 Z M 769.074219 742.617188 "/>
</clipPath>
<clipPath id="clip35">
  <path d="M 769.074219 742.617188 L 961.695312 772.96875 L 947.570312 862.609375 L 754.949219 832.261719 Z M 769.074219 742.617188 "/>
</clipPath>
<clipPath id="clip36">
  <path d="M 769.074219 742.617188 L 961.953125 773.007812 L 947.796875 862.847656 L 754.917969 832.457031 Z M 769.074219 742.617188 "/>
</clipPath>
<clipPath id="clip37">
  <path d="M 924 761 L 1112 761 L 1112 810 L 924 810 Z M 924 761 "/>
</clipPath>
<clipPath id="clip38">
  <path d="M 929.015625 742.617188 L 1121.636719 772.96875 L 1107.511719 862.609375 L 914.890625 832.261719 Z M 929.015625 742.617188 "/>
</clipPath>
<clipPath id="clip39">
  <path d="M 929.015625 742.617188 L 1121.636719 772.96875 L 1107.511719 862.609375 L 914.890625 832.261719 Z M 929.015625 742.617188 "/>
</clipPath>
<clipPath id="clip40">
  <path d="M 929.015625 742.617188 L 1121.894531 773.007812 L 1107.738281 862.847656 L 914.859375 832.457031 Z M 929.015625 742.617188 "/>
</clipPath>
<clipPath id="clip41">
  <path d="M 1225 761 L 1413 761 L 1413 810 L 1225 810 Z M 1225 761 "/>
</clipPath>
<clipPath id="clip42">
  <path d="M 1230.132812 742.617188 L 1422.753906 772.96875 L 1408.632812 862.609375 L 1216.007812 832.261719 Z M 1230.132812 742.617188 "/>
</clipPath>
<clipPath id="clip43">
  <path d="M 1230.132812 742.617188 L 1422.753906 772.96875 L 1408.632812 862.609375 L 1216.007812 832.261719 Z M 1230.132812 742.617188 "/>
</clipPath>
<clipPath id="clip44">
  <path d="M 1230.132812 742.617188 L 1423.011719 773.007812 L 1408.855469 862.847656 L 1215.976562 832.457031 Z M 1230.132812 742.617188 "/>
</clipPath>
<clipPath id="clip45">
  <path d="M 1074 776 L 1262 776 L 1262 810 L 1074 810 Z M 1074 776 "/>
</clipPath>
<clipPath id="clip46">
  <path d="M 1079.484375 757.617188 L 1272.109375 787.96875 L 1257.984375 877.609375 L 1065.359375 847.261719 Z M 1079.484375 757.617188 "/>
</clipPath>
<clipPath id="clip47">
  <path d="M 1079.484375 757.617188 L 1272.109375 787.96875 L 1257.984375 877.609375 L 1065.359375 847.261719 Z M 1079.484375 757.617188 "/>
</clipPath>
<clipPath id="clip48">
  <path d="M 1079.484375 757.617188 L 1272.363281 788.007812 L 1258.207031 877.847656 L 1065.328125 847.457031 Z M 1079.484375 757.617188 "/>
</clipPath>
<clipPath id="clip49">
  <path d="M 1366 761 L 1440 761 L 1440 810 L 1366 810 Z M 1366 761 "/>
</clipPath>
<clipPath id="clip50">
  <path d="M 1371.25 742.617188 L 1563.875 772.96875 L 1549.75 862.609375 L 1357.125 832.261719 Z M 1371.25 742.617188 "/>
</clipPath>
<clipPath id="clip51">
  <path d="M 1371.25 742.617188 L 1563.875 772.96875 L 1549.75 862.609375 L 1357.125 832.261719 Z M 1371.25 742.617188 "/>
</clipPath>
<clipPath id="clip52">
  <path d="M 1371.25 742.617188 L 1564.128906 773.007812 L 1549.972656 862.847656 L 1357.09375 832.457031 Z M 1371.25 742.617188 "/>
</clipPath>
<clipPath id="clip53">
  <path d="M 1381 776 L 1440 776 L 1440 810 L 1381 810 Z M 1381 776 "/>
</clipPath>
<clipPath id="clip54">
  <path d="M 1386.25 757.617188 L 1578.875 787.96875 L 1564.75 877.609375 L 1372.125 847.261719 Z M 1386.25 757.617188 "/>
</clipPath>
<clipPath id="clip55">
  <path d="M 1386.25 757.617188 L 1578.875 787.96875 L 1564.75 877.609375 L 1372.125 847.261719 Z M 1386.25 757.617188 "/>
</clipPath>
<clipPath id="clip56">
  <path d="M 1386.25 757.617188 L 1579.128906 788.007812 L 1564.972656 877.847656 L 1372.09375 847.457031 Z M 1386.25 757.617188 "/>
</clipPath>
<clipPath id="clip57">
  <path d="M 1286 656 L 1440 656 L 1440 810 L 1286 810 Z M 1286 656 "/>
</clipPath>
<clipPath id="clip58">
  <path d="M 1250.589844 732.96875 L 1540.425781 617.472656 L 1594.285156 752.636719 L 1304.449219 868.132812 Z M 1250.589844 732.96875 "/>
</clipPath>
<clipPath id="clip59">
  <path d="M 1250.589844 732.96875 L 1540.425781 617.472656 L 1594.285156 752.636719 L 1304.449219 868.132812 Z M 1250.589844 732.96875 "/>
</clipPath>
<clipPath id="clip60">
  <path d="M 1250.589844 732.96875 L 1540.175781 617.570312 L 1594.144531 753.007812 L 1304.558594 868.402344 Z M 1250.589844 732.96875 "/>
</clipPath>
</defs>
<g id="surface1">
<rect x="0" y="0" width="1440" height="809.999993" style="fill:rgb(100%,100%,100%);fill-opacity:1;stroke:none;"/>
<rect x="0" y="0" width="1440" height="809.999993" style="fill:rgb(100%,100%,100%);fill-opacity:1;stroke:none;"/>
<rect x="0" y="0" width="1440" height="809.999993" style="fill:rgb(30.979919%,9.799194%,39.219666%);fill-opacity:1;stroke:none;"/>
<g clip-path="url(#clip1)" clip-rule="nonzero">
<g clip-path="url(#clip2)" clip-rule="nonzero">
<g clip-path="url(#clip3)" clip-rule="nonzero">
<g clip-path="url(#clip4)" clip-rule="nonzero">
<path style=" stroke:none;fill-rule:nonzero;fill:rgb(100%,100%,100%);fill-opacity:1;" d="M 16.203125 678.574219 C 16.203125 678.574219 32.621094 657.824219 67.121094 666.527344 C 101.621094 675.230469 112.605469 708.132812 112.605469 708.132812 C 112.605469 708.132812 129.804688 693.003906 154.597656 719.167969 C 179.390625 745.332031 163.425781 770.238281 163.425781 770.238281 C 163.425781 770.238281 181.785156 775.414062 178.652344 795.789062 C 175.519531 816.164062 160.585938 821.746094 151.8125 820.820312 C 151.8125 820.820312 131.472656 837.855469 108.085938 810.003906 C 108.085938 810.003906 103.167969 820.355469 85.320312 817.71875 C 67.476562 815.078125 61.371094 801.488281 61.371094 801.488281 C 61.371094 801.488281 45.882812 809.792969 37.625 789.96875 C 37.625 789.96875 27.347656 800.582031 6.953125 788.898438 C -13.441406 777.21875 -7.597656 757.386719 -7.597656 757.386719 C -7.597656 757.386719 -33.105469 766.847656 -58.449219 743.410156 C -83.792969 719.96875 -73.515625 709.359375 -73.515625 709.359375 C -73.515625 709.359375 -101.042969 703.417969 -99.984375 684.761719 C -98.921875 666.101562 -57.082031 652.339844 -44.257812 675.175781 C -44.257812 675.175781 -36.140625 664.265625 -17.617188 660.9375 C 0.910156 657.613281 16.203125 678.574219 16.203125 678.574219 Z M 16.203125 678.574219 "/>
</g>
</g>
</g>
</g>
<g clip-path="url(#clip5)" clip-rule="nonzero">
<g clip-path="url(#clip6)" clip-rule="nonzero">
<g clip-path="url(#clip7)" clip-rule="nonzero">
<g clip-path="url(#clip8)" clip-rule="nonzero">
<path style=" stroke:none;fill-rule:nonzero;fill:rgb(100%,100%,100%);fill-opacity:1;" d="M 25.011719 784.140625 C 25.011719 784.140625 31.578125 768.992188 53.863281 768.695312 C 76.144531 768.398438 88.121094 786.46875 88.121094 786.46875 C 88.121094 786.46875 96.074219 774.585938 115.3125 786.375 C 134.550781 798.164062 128.929688 815.746094 128.929688 815.746094 C 128.929688 815.746094 140.878906 815.914062 142.285156 828.699219 C 143.691406 841.488281 135.558594 847.25 130.105469 848.105469 C 130.105469 848.105469 120.558594 861.640625 101.898438 848.609375 C 101.898438 848.609375 100.597656 855.640625 89.375 856.917969 C 78.148438 858.195312 72.253906 850.984375 72.253906 850.984375 C 72.253906 850.984375 64.230469 858.476562 56.023438 847.855469 C 56.023438 847.855469 51.523438 855.90625 37.292969 852.140625 C 23.0625 848.375 23.382812 835.480469 23.382812 835.480469 C 23.382812 835.480469 9.484375 845.28125 -9.644531 835.222656 C -28.777344 825.164062 -24.277344 817.117188 -24.277344 817.117188 C -24.277344 817.117188 -41.894531 817.957031 -44.277344 806.539062 C -46.660156 795.121094 -23.578125 780.101562 -12.117188 791.808594 C -12.117188 791.808594 -8.976562 783.925781 1.691406 778.941406 C 12.359375 773.960938 25.011719 784.140625 25.011719 784.140625 Z M 25.011719 784.140625 "/>
</g>
</g>
</g>
</g>
<g clip-path="url(#clip9)" clip-rule="nonzero">
<g clip-path="url(#clip10)" clip-rule="nonzero">
<g clip-path="url(#clip11)" clip-rule="nonzero">
<g clip-path="url(#clip12)" clip-rule="nonzero">
<path style=" stroke:none;fill-rule:nonzero;fill:rgb(100%,100%,100%);fill-opacity:1;" d="M 184.953125 784.140625 C 184.953125 784.140625 191.519531 768.992188 213.800781 768.695312 C 236.085938 768.398438 248.0625 786.46875 248.0625 786.46875 C 248.0625 786.46875 256.015625 774.585938 275.253906 786.375 C 294.492188 798.164062 288.871094 815.746094 288.871094 815.746094 C 288.871094 815.746094 300.820312 815.914062 302.226562 828.699219 C 303.632812 841.488281 295.5 847.25 290.046875 848.105469 C 290.046875 848.105469 280.5 861.640625 261.839844 848.609375 C 261.839844 848.609375 260.539062 855.640625 249.316406 856.917969 C 238.089844 858.195312 232.195312 850.984375 232.195312 850.984375 C 232.195312 850.984375 224.171875 858.476562 215.964844 847.855469 C 215.964844 847.855469 211.464844 855.90625 197.234375 852.140625 C 183.003906 848.375 183.324219 835.480469 183.324219 835.480469 C 183.324219 835.480469 169.425781 845.28125 150.296875 835.222656 C 131.164062 825.164062 135.664062 817.117188 135.664062 817.117188 C 135.664062 817.117188 118.046875 817.957031 115.664062 806.539062 C 113.28125 795.121094 136.363281 780.101562 147.824219 791.808594 C 147.824219 791.808594 150.964844 783.925781 161.632812 778.941406 C 172.300781 773.960938 184.953125 784.140625 184.953125 784.140625 Z M 184.953125 784.140625 "/>
</g>
</g>
</g>
</g>
<g clip-path="url(#clip13)" clip-rule="nonzero">
<g clip-path="url(#clip14)" clip-rule="nonzero">
<g clip-path="url(#clip15)" clip-rule="nonzero">
<g clip-path="url(#clip16)" clip-rule="nonzero">
<path style=" stroke:none;fill-rule:nonzero;fill:rgb(100%,100%,100%);fill-opacity:1;" d="M 486.070312 784.140625 C 486.070312 784.140625 492.636719 768.992188 514.921875 768.695312 C 537.203125 768.398438 549.179688 786.46875 549.179688 786.46875 C 549.179688 786.46875 557.136719 774.585938 576.371094 786.375 C 595.613281 798.164062 589.988281 815.746094 589.988281 815.746094 C 589.988281 815.746094 601.9375 815.914062 603.34375 828.699219 C 604.75 841.488281 596.621094 847.25 591.164062 848.105469 C 591.164062 848.105469 581.617188 861.640625 562.957031 848.609375 C 562.957031 848.609375 561.65625 855.640625 550.433594 856.917969 C 539.210938 858.195312 533.3125 850.984375 533.3125 850.984375 C 533.3125 850.984375 525.289062 858.476562 517.082031 847.855469 C 517.082031 847.855469 512.582031 855.90625 498.351562 852.140625 C 484.121094 848.375 484.441406 835.480469 484.441406 835.480469 C 484.441406 835.480469 470.542969 845.28125 451.414062 835.222656 C 432.28125 825.164062 436.78125 817.117188 436.78125 817.117188 C 436.78125 817.117188 419.164062 817.957031 416.78125 806.539062 C 414.398438 795.121094 437.480469 780.101562 448.941406 791.808594 C 448.941406 791.808594 452.082031 783.925781 462.75 778.941406 C 473.417969 773.960938 486.070312 784.140625 486.070312 784.140625 Z M 486.070312 784.140625 "/>
</g>
</g>
</g>
</g>
<g clip-path="url(#clip17)" clip-rule="nonzero">
<g clip-path="url(#clip18)" clip-rule="nonzero">
<g clip-path="url(#clip19)" clip-rule="nonzero">
<g clip-path="url(#clip20)" clip-rule="nonzero">
<path style=" stroke:none;fill-rule:nonzero;fill:rgb(100%,100%,100%);fill-opacity:1;" d="M 335.421875 799.140625 C 335.421875 799.140625 341.992188 783.992188 364.273438 783.695312 C 386.554688 783.398438 398.535156 801.46875 398.535156 801.46875 C 398.535156 801.46875 406.488281 789.585938 425.726562 801.375 C 444.964844 813.164062 439.34375 830.746094 439.34375 830.746094 C 439.34375 830.746094 451.289062 830.914062 452.695312 843.699219 C 454.101562 856.488281 445.972656 862.25 440.515625 863.105469 C 440.515625 863.105469 430.96875 876.640625 412.308594 863.609375 C 412.308594 863.609375 411.011719 870.640625 399.785156 871.917969 C 388.5625 873.195312 382.667969 865.984375 382.667969 865.984375 C 382.667969 865.984375 374.644531 873.476562 366.433594 862.855469 C 366.433594 862.855469 361.9375 870.90625 347.703125 867.140625 C 333.472656 863.375 333.792969 850.480469 333.792969 850.480469 C 333.792969 850.480469 319.894531 860.28125 300.765625 850.222656 C 281.632812 840.164062 286.132812 832.117188 286.132812 832.117188 C 286.132812 832.117188 268.515625 832.957031 266.132812 821.539062 C 263.75 810.121094 286.835938 795.101562 298.292969 806.808594 C 298.292969 806.808594 301.4375 798.925781 312.105469 793.941406 C 322.773438 788.960938 335.421875 799.140625 335.421875 799.140625 Z M 335.421875 799.140625 "/>
</g>
</g>
</g>
</g>
<g clip-path="url(#clip21)" clip-rule="nonzero">
<g clip-path="url(#clip22)" clip-rule="nonzero">
<g clip-path="url(#clip23)" clip-rule="nonzero">
<g clip-path="url(#clip24)" clip-rule="nonzero">
<path style=" stroke:none;fill-rule:nonzero;fill:rgb(100%,100%,100%);fill-opacity:1;" d="M 627.1875 784.140625 C 627.1875 784.140625 633.753906 768.992188 656.039062 768.695312 C 678.320312 768.398438 690.296875 786.46875 690.296875 786.46875 C 690.296875 786.46875 698.253906 774.585938 717.492188 786.375 C 736.730469 798.164062 731.109375 815.746094 731.109375 815.746094 C 731.109375 815.746094 743.054688 815.914062 744.460938 828.699219 C 745.867188 841.488281 737.738281 847.25 732.28125 848.105469 C 732.28125 848.105469 722.734375 861.640625 704.074219 848.609375 C 704.074219 848.609375 702.773438 855.640625 691.550781 856.917969 C 680.328125 858.195312 674.429688 850.984375 674.429688 850.984375 C 674.429688 850.984375 666.40625 858.476562 658.199219 847.855469 C 658.199219 847.855469 653.699219 855.90625 639.46875 852.140625 C 625.238281 848.375 625.558594 835.480469 625.558594 835.480469 C 625.558594 835.480469 611.660156 845.28125 592.53125 835.222656 C 573.398438 825.164062 577.898438 817.117188 577.898438 817.117188 C 577.898438 817.117188 560.28125 817.957031 557.898438 806.539062 C 555.515625 795.121094 578.597656 780.101562 590.058594 791.808594 C 590.058594 791.808594 593.199219 783.925781 603.867188 778.941406 C 614.535156 773.960938 627.1875 784.140625 627.1875 784.140625 Z M 627.1875 784.140625 "/>
</g>
</g>
</g>
</g>
<g clip-path="url(#clip25)" clip-rule="nonzero">
<g clip-path="url(#clip26)" clip-rule="nonzero">
<g clip-path="url(#clip27)" clip-rule="nonzero">
<g clip-path="url(#clip28)" clip-rule="nonzero">
<path style=" stroke:none;fill-rule:nonzero;fill:rgb(100%,100%,100%);fill-opacity:1;" d="M 770.445312 784.140625 C 770.445312 784.140625 777.015625 768.992188 799.296875 768.695312 C 821.582031 768.398438 833.558594 786.46875 833.558594 786.46875 C 833.558594 786.46875 841.511719 774.585938 860.75 786.375 C 879.988281 798.164062 874.367188 815.746094 874.367188 815.746094 C 874.367188 815.746094 886.3125 815.914062 887.71875 828.699219 C 889.125 841.488281 880.996094 847.25 875.539062 848.105469 C 875.539062 848.105469 865.996094 861.640625 847.332031 848.609375 C 847.332031 848.609375 846.035156 855.640625 834.808594 856.917969 C 823.585938 858.195312 817.691406 850.984375 817.691406 850.984375 C 817.691406 850.984375 809.667969 858.476562 801.457031 847.855469 C 801.457031 847.855469 796.960938 855.90625 782.726562 852.140625 C 768.496094 848.375 768.820312 835.480469 768.820312 835.480469 C 768.820312 835.480469 754.921875 845.28125 735.789062 835.222656 C 716.65625 825.164062 721.15625 817.117188 721.15625 817.117188 C 721.15625 817.117188 703.539062 817.957031 701.15625 806.539062 C 698.777344 795.121094 721.859375 780.101562 733.316406 791.808594 C 733.316406 791.808594 736.460938 783.925781 747.128906 778.941406 C 757.796875 773.960938 770.445312 784.140625 770.445312 784.140625 Z M 770.445312 784.140625 "/>
</g>
</g>
</g>
</g>
<g clip-path="url(#clip29)" clip-rule="nonzero">
<g clip-path="url(#clip30)" clip-rule="nonzero">
<g clip-path="url(#clip31)" clip-rule="nonzero">
<g clip-path="url(#clip32)" clip-rule="nonzero">
<path style=" stroke:none;fill-rule:nonzero;fill:rgb(100%,100%,100%);fill-opacity:1;" d="M 642.1875 799.140625 C 642.1875 799.140625 648.753906 783.992188 671.039062 783.695312 C 693.320312 783.398438 705.296875 801.46875 705.296875 801.46875 C 705.296875 801.46875 713.253906 789.585938 732.492188 801.375 C 751.730469 813.164062 746.109375 830.746094 746.109375 830.746094 C 746.109375 830.746094 758.054688 830.914062 759.460938 843.699219 C 760.867188 856.488281 752.738281 862.25 747.28125 863.105469 C 747.28125 863.105469 737.734375 876.640625 719.074219 863.609375 C 719.074219 863.609375 717.773438 870.640625 706.550781 871.917969 C 695.328125 873.195312 689.429688 865.984375 689.429688 865.984375 C 689.429688 865.984375 681.40625 873.476562 673.199219 862.855469 C 673.199219 862.855469 668.699219 870.90625 654.46875 867.140625 C 640.238281 863.375 640.558594 850.480469 640.558594 850.480469 C 640.558594 850.480469 626.660156 860.28125 607.53125 850.222656 C 588.398438 840.164062 592.898438 832.117188 592.898438 832.117188 C 592.898438 832.117188 575.28125 832.957031 572.898438 821.539062 C 570.515625 810.121094 593.597656 795.101562 605.058594 806.808594 C 605.058594 806.808594 608.199219 798.925781 618.867188 793.941406 C 629.535156 788.960938 642.1875 799.140625 642.1875 799.140625 Z M 642.1875 799.140625 "/>
</g>
</g>
</g>
</g>
<g clip-path="url(#clip33)" clip-rule="nonzero">
<g clip-path="url(#clip34)" clip-rule="nonzero">
<g clip-path="url(#clip35)" clip-rule="nonzero">
<g clip-path="url(#clip36)" clip-rule="nonzero">
<path style=" stroke:none;fill-rule:nonzero;fill:rgb(100%,100%,100%);fill-opacity:1;" d="M 833.660156 776.640625 C 833.660156 776.640625 840.226562 761.492188 862.511719 761.195312 C 884.792969 760.898438 896.769531 778.96875 896.769531 778.96875 C 896.769531 778.96875 904.726562 767.085938 923.964844 778.875 C 943.203125 790.664062 937.582031 808.246094 937.582031 808.246094 C 937.582031 808.246094 949.527344 808.414062 950.933594 821.199219 C 952.339844 833.988281 944.210938 839.75 938.753906 840.605469 C 938.753906 840.605469 929.207031 854.140625 910.546875 841.109375 C 910.546875 841.109375 909.25 848.140625 898.023438 849.417969 C 886.800781 850.695312 880.902344 843.484375 880.902344 843.484375 C 880.902344 843.484375 872.882812 850.976562 864.671875 840.355469 C 864.671875 840.355469 860.171875 848.40625 845.941406 844.640625 C 831.710938 840.875 832.03125 827.980469 832.03125 827.980469 C 832.03125 827.980469 818.132812 837.78125 799.003906 827.722656 C 779.871094 817.664062 784.371094 809.617188 784.371094 809.617188 C 784.371094 809.617188 766.753906 810.457031 764.371094 799.039062 C 761.988281 787.621094 785.074219 772.601562 796.53125 784.308594 C 796.53125 784.308594 799.675781 776.425781 810.34375 771.441406 C 821.011719 766.460938 833.660156 776.640625 833.660156 776.640625 Z M 833.660156 776.640625 "/>
</g>
</g>
</g>
</g>
<g clip-path="url(#clip37)" clip-rule="nonzero">
<g clip-path="url(#clip38)" clip-rule="nonzero">
<g clip-path="url(#clip39)" clip-rule="nonzero">
<g clip-path="url(#clip40)" clip-rule="nonzero">
<path style=" stroke:none;fill-rule:nonzero;fill:rgb(100%,100%,100%);fill-opacity:1;" d="M 993.601562 776.640625 C 993.601562 776.640625 1000.167969 761.492188 1022.453125 761.195312 C 1044.734375 760.898438 1056.710938 778.96875 1056.710938 778.96875 C 1056.710938 778.96875 1064.667969 767.085938 1083.90625 778.875 C 1103.144531 790.664062 1097.523438 808.246094 1097.523438 808.246094 C 1097.523438 808.246094 1109.46875 808.414062 1110.875 821.199219 C 1112.28125 833.988281 1104.152344 839.75 1098.695312 840.605469 C 1098.695312 840.605469 1089.148438 854.140625 1070.488281 841.109375 C 1070.488281 841.109375 1069.191406 848.140625 1057.964844 849.417969 C 1046.742188 850.695312 1040.84375 843.484375 1040.84375 843.484375 C 1040.84375 843.484375 1032.824219 850.976562 1024.613281 840.355469 C 1024.613281 840.355469 1020.113281 848.40625 1005.882812 844.640625 C 991.652344 840.875 991.972656 827.980469 991.972656 827.980469 C 991.972656 827.980469 978.074219 837.78125 958.945312 827.722656 C 939.8125 817.664062 944.3125 809.617188 944.3125 809.617188 C 944.3125 809.617188 926.695312 810.457031 924.3125 799.039062 C 921.929688 787.621094 945.011719 772.601562 956.472656 784.308594 C 956.472656 784.308594 959.617188 776.425781 970.28125 771.441406 C 980.949219 766.460938 993.601562 776.640625 993.601562 776.640625 Z M 993.601562 776.640625 "/>
</g>
</g>
</g>
</g>
<g clip-path="url(#clip41)" clip-rule="nonzero">
<g clip-path="url(#clip42)" clip-rule="nonzero">
<g clip-path="url(#clip43)" clip-rule="nonzero">
<g clip-path="url(#clip44)" clip-rule="nonzero">
<path style=" stroke:none;fill-rule:nonzero;fill:rgb(100%,100%,100%);fill-opacity:1;" d="M 1294.71875 776.640625 C 1294.71875 776.640625 1301.289062 761.492188 1323.570312 761.195312 C 1345.851562 760.898438 1357.832031 778.96875 1357.832031 778.96875 C 1357.832031 778.96875 1365.785156 767.085938 1385.023438 778.875 C 1404.261719 790.664062 1398.640625 808.246094 1398.640625 808.246094 C 1398.640625 808.246094 1410.585938 808.414062 1411.992188 821.199219 C 1413.398438 833.988281 1405.269531 839.75 1399.8125 840.605469 C 1399.8125 840.605469 1390.265625 854.140625 1371.605469 841.109375 C 1371.605469 841.109375 1370.308594 848.140625 1359.082031 849.417969 C 1347.859375 850.695312 1341.964844 843.484375 1341.964844 843.484375 C 1341.964844 843.484375 1333.941406 850.976562 1325.730469 840.355469 C 1325.730469 840.355469 1321.234375 848.40625 1307 844.640625 C 1292.769531 840.875 1293.089844 827.980469 1293.089844 827.980469 C 1293.089844 827.980469 1279.195312 837.78125 1260.0625 827.722656 C 1240.929688 817.664062 1245.429688 809.617188 1245.429688 809.617188 C 1245.429688 809.617188 1227.8125 810.457031 1225.429688 799.039062 C 1223.050781 787.621094 1246.132812 772.601562 1257.589844 784.308594 C 1257.589844 784.308594 1260.734375 776.425781 1271.402344 771.441406 C 1282.070312 766.460938 1294.71875 776.640625 1294.71875 776.640625 Z M 1294.71875 776.640625 "/>
</g>
</g>
</g>
</g>
<g clip-path="url(#clip45)" clip-rule="nonzero">
<g clip-path="url(#clip46)" clip-rule="nonzero">
<g clip-path="url(#clip47)" clip-rule="nonzero">
<g clip-path="url(#clip48)" clip-rule="nonzero">
<path style=" stroke:none;fill-rule:nonzero;fill:rgb(100%,100%,100%);fill-opacity:1;" d="M 1144.074219 791.640625 C 1144.074219 791.640625 1150.640625 776.492188 1172.921875 776.195312 C 1195.207031 775.898438 1207.183594 793.96875 1207.183594 793.96875 C 1207.183594 793.96875 1215.136719 782.085938 1234.375 793.875 C 1253.613281 805.664062 1247.992188 823.246094 1247.992188 823.246094 C 1247.992188 823.246094 1259.941406 823.414062 1261.34375 836.199219 C 1262.753906 848.988281 1254.621094 854.75 1249.164062 855.605469 C 1249.164062 855.605469 1239.621094 869.140625 1220.957031 856.109375 C 1220.957031 856.109375 1219.660156 863.140625 1208.4375 864.417969 C 1197.210938 865.695312 1191.316406 858.484375 1191.316406 858.484375 C 1191.316406 858.484375 1183.292969 865.976562 1175.082031 855.355469 C 1175.082031 855.355469 1170.585938 863.40625 1156.355469 859.640625 C 1142.125 855.875 1142.445312 842.980469 1142.445312 842.980469 C 1142.445312 842.980469 1128.546875 852.78125 1109.414062 842.722656 C 1090.285156 832.664062 1094.785156 824.617188 1094.785156 824.617188 C 1094.785156 824.617188 1077.167969 825.457031 1074.785156 814.039062 C 1072.402344 802.621094 1095.484375 787.601562 1106.945312 799.308594 C 1106.945312 799.308594 1110.085938 791.425781 1120.753906 786.441406 C 1131.421875 781.460938 1144.074219 791.640625 1144.074219 791.640625 Z M 1144.074219 791.640625 "/>
</g>
</g>
</g>
</g>
<g clip-path="url(#clip49)" clip-rule="nonzero">
<g clip-path="url(#clip50)" clip-rule="nonzero">
<g clip-path="url(#clip51)" clip-rule="nonzero">
<g clip-path="url(#clip52)" clip-rule="nonzero">
<path style=" stroke:none;fill-rule:nonzero;fill:rgb(100%,100%,100%);fill-opacity:1;" d="M 1435.835938 776.640625 C 1435.835938 776.640625 1442.40625 761.492188 1464.6875 761.195312 C 1486.972656 760.898438 1498.949219 778.96875 1498.949219 778.96875 C 1498.949219 778.96875 1506.902344 767.085938 1526.140625 778.875 C 1545.378906 790.664062 1539.757812 808.246094 1539.757812 808.246094 C 1539.757812 808.246094 1551.703125 808.414062 1553.109375 821.199219 C 1554.515625 833.988281 1546.386719 839.75 1540.929688 840.605469 C 1540.929688 840.605469 1531.386719 854.140625 1512.722656 841.109375 C 1512.722656 841.109375 1511.425781 848.140625 1500.199219 849.417969 C 1488.976562 850.695312 1483.082031 843.484375 1483.082031 843.484375 C 1483.082031 843.484375 1475.058594 850.976562 1466.847656 840.355469 C 1466.847656 840.355469 1462.351562 848.40625 1448.117188 844.640625 C 1433.886719 840.875 1434.210938 827.980469 1434.210938 827.980469 C 1434.210938 827.980469 1420.3125 837.78125 1401.179688 827.722656 C 1382.050781 817.664062 1386.546875 809.617188 1386.546875 809.617188 C 1386.546875 809.617188 1368.929688 810.457031 1366.546875 799.039062 C 1364.167969 787.621094 1387.25 772.601562 1398.707031 784.308594 C 1398.707031 784.308594 1401.851562 776.425781 1412.519531 771.441406 C 1423.1875 766.460938 1435.835938 776.640625 1435.835938 776.640625 Z M 1435.835938 776.640625 "/>
</g>
</g>
</g>
</g>
<g clip-path="url(#clip53)" clip-rule="nonzero">
<g clip-path="url(#clip54)" clip-rule="nonzero">
<g clip-path="url(#clip55)" clip-rule="nonzero">
<g clip-path="url(#clip56)" clip-rule="nonzero">
<path style=" stroke:none;fill-rule:nonzero;fill:rgb(100%,100%,100%);fill-opacity:1;" d="M 1450.835938 791.640625 C 1450.835938 791.640625 1457.40625 776.492188 1479.6875 776.195312 C 1501.972656 775.898438 1513.949219 793.96875 1513.949219 793.96875 C 1513.949219 793.96875 1521.902344 782.085938 1541.140625 793.875 C 1560.378906 805.664062 1554.757812 823.246094 1554.757812 823.246094 C 1554.757812 823.246094 1566.703125 823.414062 1568.109375 836.199219 C 1569.515625 848.988281 1561.386719 854.75 1555.929688 855.605469 C 1555.929688 855.605469 1546.386719 869.140625 1527.722656 856.109375 C 1527.722656 856.109375 1526.425781 863.140625 1515.199219 864.417969 C 1503.976562 865.695312 1498.082031 858.484375 1498.082031 858.484375 C 1498.082031 858.484375 1490.058594 865.976562 1481.847656 855.355469 C 1481.847656 855.355469 1477.351562 863.40625 1463.117188 859.640625 C 1448.886719 855.875 1449.210938 842.980469 1449.210938 842.980469 C 1449.210938 842.980469 1435.3125 852.78125 1416.179688 842.722656 C 1397.050781 832.664062 1401.546875 824.617188 1401.546875 824.617188 C 1401.546875 824.617188 1383.929688 825.457031 1381.546875 814.039062 C 1379.167969 802.621094 1402.25 787.601562 1413.707031 799.308594 C 1413.707031 799.308594 1416.851562 791.425781 1427.519531 786.441406 C 1438.1875 781.460938 1450.835938 791.640625 1450.835938 791.640625 Z M 1450.835938 791.640625 "/>
</g>
</g>
</g>
</g>
<g clip-path="url(#clip57)" clip-rule="nonzero">
<g clip-path="url(#clip58)" clip-rule="nonzero">
<g clip-path="url(#clip59)" clip-rule="nonzero">
<g clip-path="url(#clip60)" clip-rule="nonzero">
<path style=" stroke:none;fill-rule:nonzero;fill:rgb(100%,100%,100%);fill-opacity:1;" d="M 1367.042969 727.210938 C 1367.042969 727.210938 1363.683594 700.96875 1394.027344 682.386719 C 1424.371094 663.804688 1455.574219 678.953125 1455.574219 678.953125 C 1455.574219 678.953125 1456.785156 656.078125 1492.824219 656.644531 C 1528.863281 657.210938 1535.511719 686.039062 1535.511719 686.039062 C 1535.511719 686.039062 1552.046875 676.53125 1564.425781 693.015625 C 1576.800781 709.5 1570.351562 724.078125 1563.558594 729.707031 C 1563.558594 729.707031 1561.515625 756.15625 1525.253906 753.40625 C 1525.253906 753.40625 1529.214844 764.160156 1514.851562 775.078125 C 1500.488281 785.992188 1486.503906 780.855469 1486.503906 780.855469 C 1486.503906 780.855469 1481.613281 797.734375 1461.664062 789.78125 C 1461.664062 789.78125 1462.066406 804.546875 1439.457031 810.960938 C 1416.84375 817.375 1406.75 799.332031 1406.75 799.332031 C 1406.75 799.332031 1395.683594 824.1875 1361.207031 825.917969 C 1326.726562 827.648438 1326.328125 812.882812 1326.328125 812.882812 C 1326.328125 812.882812 1302.832031 828.410156 1290.234375 814.609375 C 1277.636719 800.808594 1297.050781 761.269531 1322.34375 768.066406 C 1322.34375 768.066406 1320.21875 754.636719 1330.789062 739.0625 C 1341.363281 723.492188 1367.042969 727.210938 1367.042969 727.210938 Z M 1367.042969 727.210938 "/>
</g>
</g>
</g>
</g>
</g>
</svg>
