<?xml version="1.0" encoding="UTF-8"?>
<svg xmlns="http://www.w3.org/2000/svg" xmlns:xlink="http://www.w3.org/1999/xlink" width="1440pt" height="809.999993pt" viewBox="0 0 1440 809.999993" version="1.2">
<g id="surface1">
<path style=" stroke:none;fill-rule:nonzero;fill:rgb(100%,100%,100%);fill-opacity:1;" d="M 525.882812 255.898438 C 525.882812 255.898438 554.011719 147.316406 703.625 121.769531 C 853.242188 96.222656 952.984375 204.800781 952.984375 204.800781 C 952.984375 204.800781 993.90625 116.65625 1135.84375 175.421875 C 1277.789062 234.179688 1258.601562 358.082031 1258.601562 358.082031 C 1258.601562 358.082031 1339.167969 346.585938 1362.183594 430.894531 C 1385.199219 515.203125 1336.609375 562.46875 1300.804688 573.964844 C 1300.804688 573.964844 1250.929688 674.882812 1111.550781 607.179688 C 1111.550781 607.179688 1110.269531 655.722656 1036.097656 676.15625 C 961.933594 696.597656 914.621094 654.441406 914.621094 654.441406 C 914.621094 654.441406 868.582031 713.203125 802.085938 650.609375 C 802.085938 650.609375 780.351562 709.371094 680.605469 699.152344 C 580.863281 688.929688 569.351562 602.074219 569.351562 602.074219 C 569.351562 602.074219 486.234375 682.542969 346.851562 635.285156 C 207.464844 588.019531 229.207031 529.261719 229.207031 529.261719 C 229.207031 529.261719 111.558594 553.53125 83.425781 479.445312 C 55.292969 405.351562 194.679688 280.171875 284.191406 346.589844 C 284.191406 346.589844 296.980469 290.390625 363.472656 245.679688 C 429.96875 200.972656 525.882812 255.898438 525.882812 255.898438 Z M 525.882812 255.898438 "/>
</g>
</svg>
