<?xml version="1.0" encoding="UTF-8"?>
<svg xmlns="http://www.w3.org/2000/svg" xmlns:xlink="http://www.w3.org/1999/xlink" width="375pt" height="374.999991pt" viewBox="0 0 375 374.999991" version="1.2">
<g id="surface1">
<path style=" stroke:none;fill-rule:nonzero;fill:rgb(93.328857%,24.308777%,32.939148%);fill-opacity:1;" d="M 26.496094 87.304688 C 25.925781 87.304688 25.355469 87.363281 24.796875 87.472656 C 24.234375 87.585938 23.6875 87.75 23.160156 87.96875 C 22.632812 88.1875 22.128906 88.457031 21.652344 88.777344 C 21.175781 89.09375 20.738281 89.457031 20.332031 89.859375 C 19.925781 90.265625 19.566406 90.707031 19.246094 91.179688 C 18.929688 91.65625 18.660156 92.160156 18.441406 92.6875 C 18.222656 93.21875 18.058594 93.761719 17.945312 94.324219 C 17.835938 94.886719 17.777344 95.453125 17.777344 96.023438 C 17.777344 96.597656 17.835938 97.164062 17.945312 97.726562 C 18.058594 98.289062 18.222656 98.832031 18.441406 99.359375 C 18.660156 99.890625 18.929688 100.390625 19.246094 100.867188 C 19.566406 101.34375 19.925781 101.785156 20.332031 102.191406 C 20.738281 102.59375 21.175781 102.957031 21.652344 103.273438 C 22.128906 103.59375 22.632812 103.859375 23.160156 104.078125 C 23.6875 104.296875 24.234375 104.464844 24.796875 104.574219 C 25.355469 104.6875 25.925781 104.742188 26.496094 104.742188 C 27.070312 104.742188 27.636719 104.6875 28.199219 104.574219 C 28.757812 104.464844 29.304688 104.296875 29.832031 104.078125 C 30.363281 103.859375 30.863281 103.59375 31.339844 103.273438 C 31.816406 102.957031 32.257812 102.59375 32.660156 102.191406 C 33.066406 101.785156 33.425781 101.34375 33.746094 100.867188 C 34.0625 100.390625 34.332031 99.890625 34.550781 99.359375 C 34.769531 98.832031 34.9375 98.289062 35.046875 97.726562 C 35.160156 97.164062 35.214844 96.597656 35.214844 96.023438 C 35.214844 95.453125 35.160156 94.886719 35.046875 94.324219 C 34.9375 93.761719 34.769531 93.21875 34.550781 92.6875 C 34.332031 92.160156 34.0625 91.65625 33.746094 91.179688 C 33.425781 90.707031 33.066406 90.265625 32.660156 89.859375 C 32.257812 89.457031 31.816406 89.09375 31.339844 88.777344 C 30.863281 88.457031 30.363281 88.1875 29.832031 87.96875 C 29.304688 87.75 28.757812 87.585938 28.199219 87.472656 C 27.636719 87.363281 27.070312 87.304688 26.496094 87.304688 Z M 26.496094 87.304688 "/>
<path style=" stroke:none;fill-rule:nonzero;fill:rgb(94.509888%,73.728943%,9.799194%);fill-opacity:1;" d="M 305.480469 21.917969 C 305.195312 21.917969 304.910156 21.949219 304.632812 22.003906 C 304.351562 22.058594 304.078125 22.140625 303.8125 22.25 C 303.546875 22.359375 303.296875 22.496094 303.058594 22.652344 C 302.820312 22.8125 302.601562 22.992188 302.398438 23.195312 C 302.195312 23.398438 302.015625 23.617188 301.855469 23.855469 C 301.699219 24.09375 301.5625 24.347656 301.453125 24.609375 C 301.34375 24.875 301.261719 25.148438 301.207031 25.429688 C 301.148438 25.710938 301.121094 25.992188 301.121094 26.277344 C 301.121094 26.566406 301.148438 26.847656 301.207031 27.128906 C 301.261719 27.410156 301.34375 27.683594 301.453125 27.945312 C 301.5625 28.210938 301.699219 28.460938 301.855469 28.699219 C 302.015625 28.9375 302.195312 29.160156 302.398438 29.359375 C 302.601562 29.5625 302.820312 29.746094 303.058594 29.902344 C 303.296875 30.0625 303.546875 30.195312 303.8125 30.304688 C 304.078125 30.414062 304.351562 30.5 304.632812 30.554688 C 304.910156 30.609375 305.195312 30.636719 305.480469 30.636719 C 305.765625 30.636719 306.050781 30.609375 306.332031 30.554688 C 306.613281 30.5 306.886719 30.414062 307.148438 30.304688 C 307.414062 30.195312 307.664062 30.0625 307.902344 29.902344 C 308.140625 29.746094 308.359375 29.5625 308.5625 29.359375 C 308.765625 29.160156 308.945312 28.9375 309.105469 28.699219 C 309.265625 28.460938 309.398438 28.210938 309.507812 27.945312 C 309.617188 27.683594 309.699219 27.410156 309.757812 27.128906 C 309.8125 26.847656 309.839844 26.566406 309.839844 26.277344 C 309.839844 25.992188 309.8125 25.710938 309.757812 25.429688 C 309.699219 25.148438 309.617188 24.875 309.507812 24.609375 C 309.398438 24.347656 309.265625 24.09375 309.105469 23.855469 C 308.945312 23.617188 308.765625 23.398438 308.5625 23.195312 C 308.359375 22.992188 308.140625 22.8125 307.902344 22.652344 C 307.664062 22.496094 307.414062 22.359375 307.148438 22.25 C 306.886719 22.140625 306.613281 22.058594 306.332031 22.003906 C 306.050781 21.949219 305.765625 21.917969 305.480469 21.917969 Z M 305.480469 21.917969 "/>
<path style=" stroke:none;fill-rule:nonzero;fill:rgb(98.81897%,87.838745%,63.529968%);fill-opacity:1;" d="M 187.785156 26.277344 C 185.144531 26.277344 182.507812 26.34375 179.871094 26.472656 C 177.234375 26.601562 174.601562 26.796875 171.976562 27.054688 C 169.347656 27.3125 166.730469 27.636719 164.117188 28.023438 C 161.507812 28.410156 158.90625 28.863281 156.320312 29.378906 C 153.730469 29.894531 151.15625 30.472656 148.59375 31.113281 C 146.035156 31.753906 143.492188 32.457031 140.964844 33.222656 C 138.4375 33.988281 135.933594 34.816406 133.449219 35.707031 C 130.964844 36.597656 128.5 37.546875 126.0625 38.554688 C 123.625 39.566406 121.210938 40.636719 118.824219 41.765625 C 116.4375 42.894531 114.082031 44.078125 111.753906 45.324219 C 109.425781 46.566406 107.128906 47.867188 104.867188 49.226562 C 102.601562 50.582031 100.371094 51.992188 98.179688 53.460938 C 95.984375 54.925781 93.824219 56.445312 91.707031 58.019531 C 89.585938 59.589844 87.503906 61.214844 85.464844 62.890625 C 83.425781 64.5625 81.425781 66.289062 79.46875 68.058594 C 77.515625 69.832031 75.601562 71.652344 73.738281 73.519531 C 71.871094 75.386719 70.050781 77.296875 68.277344 79.253906 C 66.503906 81.207031 64.78125 83.207031 63.105469 85.246094 C 61.433594 87.289062 59.808594 89.367188 58.238281 91.488281 C 56.664062 93.609375 55.144531 95.765625 53.679688 97.960938 C 52.210938 100.15625 50.800781 102.382812 49.441406 104.648438 C 48.085938 106.914062 46.785156 109.207031 45.542969 111.535156 C 44.296875 113.863281 43.109375 116.222656 41.980469 118.605469 C 40.851562 120.992188 39.785156 123.40625 38.773438 125.84375 C 37.765625 128.28125 36.8125 130.746094 35.925781 133.230469 C 35.035156 135.714844 34.207031 138.222656 33.441406 140.746094 C 32.675781 143.273438 31.972656 145.816406 31.332031 148.375 C 30.6875 150.9375 30.109375 153.511719 29.597656 156.101562 C 29.082031 158.691406 28.628906 161.289062 28.242188 163.902344 C 27.855469 166.511719 27.53125 169.128906 27.273438 171.757812 C 27.015625 174.382812 26.820312 177.015625 26.691406 179.652344 C 26.5625 182.289062 26.496094 184.925781 26.496094 187.566406 C 26.496094 190.207031 26.5625 192.84375 26.691406 195.480469 C 26.820312 198.117188 27.015625 200.75 27.273438 203.375 C 27.53125 206.003906 27.855469 208.621094 28.242188 211.234375 C 28.628906 213.84375 29.082031 216.445312 29.597656 219.03125 C 30.109375 221.621094 30.6875 224.195312 31.332031 226.757812 C 31.972656 229.316406 32.675781 231.859375 33.441406 234.386719 C 34.207031 236.910156 35.035156 239.417969 35.925781 241.902344 C 36.8125 244.386719 37.765625 246.851562 38.773438 249.289062 C 39.785156 251.726562 40.851562 254.140625 41.980469 256.527344 C 43.109375 258.914062 44.296875 261.269531 45.542969 263.597656 C 46.785156 265.925781 48.085938 268.222656 49.441406 270.484375 C 50.800781 272.75 52.210938 274.980469 53.679688 277.171875 C 55.144531 279.367188 56.664062 281.527344 58.238281 283.644531 C 59.808594 285.765625 61.433594 287.847656 63.105469 289.886719 C 64.78125 291.925781 66.503906 293.925781 68.277344 295.882812 C 70.050781 297.835938 71.871094 299.746094 73.738281 301.613281 C 75.601562 303.480469 77.515625 305.300781 79.46875 307.074219 C 81.425781 308.847656 83.425781 310.570312 85.464844 312.242188 C 87.503906 313.917969 89.585938 315.542969 91.707031 317.113281 C 93.824219 318.6875 95.984375 320.207031 98.179688 321.671875 C 100.371094 323.140625 102.601562 324.550781 104.867188 325.90625 C 107.128906 327.265625 109.425781 328.566406 111.753906 329.808594 C 114.082031 331.054688 116.4375 332.242188 118.824219 333.371094 C 121.210938 334.496094 123.625 335.566406 126.0625 336.578125 C 128.5 337.585938 130.964844 338.539062 133.449219 339.425781 C 135.933594 340.316406 138.4375 341.144531 140.964844 341.910156 C 143.492188 342.675781 146.035156 343.378906 148.59375 344.019531 C 151.15625 344.664062 153.730469 345.242188 156.320312 345.753906 C 158.90625 346.269531 161.507812 346.722656 164.117188 347.109375 C 166.730469 347.496094 169.347656 347.820312 171.976562 348.078125 C 174.601562 348.335938 177.234375 348.53125 179.871094 348.660156 C 182.507812 348.789062 185.144531 348.855469 187.785156 348.855469 C 190.425781 348.855469 193.0625 348.789062 195.699219 348.660156 C 198.335938 348.53125 200.964844 348.335938 203.59375 348.078125 C 206.21875 347.820312 208.839844 347.496094 211.449219 347.109375 C 214.0625 346.722656 216.660156 346.269531 219.25 345.753906 C 221.839844 345.242188 224.414062 344.664062 226.972656 344.019531 C 229.535156 343.378906 232.078125 342.675781 234.605469 341.910156 C 237.128906 341.144531 239.636719 340.316406 242.121094 339.425781 C 244.605469 338.539062 247.066406 337.585938 249.507812 336.578125 C 251.945312 335.566406 254.359375 334.496094 256.746094 333.371094 C 259.128906 332.242188 261.488281 331.054688 263.816406 329.808594 C 266.144531 328.566406 268.4375 327.265625 270.703125 325.90625 C 272.96875 324.550781 275.195312 323.140625 277.390625 321.671875 C 279.585938 320.207031 281.742188 318.6875 283.863281 317.113281 C 285.984375 315.542969 288.0625 313.917969 290.105469 312.242188 C 292.144531 310.570312 294.144531 308.847656 296.097656 307.074219 C 298.054688 305.300781 299.964844 303.480469 301.832031 301.613281 C 303.699219 299.746094 305.519531 297.835938 307.292969 295.882812 C 309.0625 293.925781 310.789062 291.925781 312.460938 289.886719 C 314.136719 287.847656 315.761719 285.765625 317.332031 283.644531 C 318.90625 281.527344 320.425781 279.367188 321.890625 277.171875 C 323.355469 274.980469 324.769531 272.75 326.125 270.484375 C 327.484375 268.222656 328.785156 265.925781 330.027344 263.597656 C 331.273438 261.269531 332.457031 258.914062 333.585938 256.527344 C 334.714844 254.140625 335.785156 251.726562 336.796875 249.289062 C 337.804688 246.851562 338.753906 244.386719 339.644531 241.902344 C 340.535156 239.417969 341.363281 236.910156 342.128906 234.386719 C 342.894531 231.859375 343.597656 229.316406 344.238281 226.757812 C 344.878906 224.195312 345.457031 221.621094 345.972656 219.03125 C 346.488281 216.445312 346.941406 213.84375 347.328125 211.234375 C 347.714844 208.621094 348.039062 206.003906 348.296875 203.375 C 348.554688 200.75 348.75 198.117188 348.878906 195.480469 C 349.007812 192.84375 349.074219 190.207031 349.074219 187.566406 C 349.074219 184.925781 349.007812 182.289062 348.878906 179.652344 C 348.75 177.015625 348.554688 174.382812 348.296875 171.757812 C 348.039062 169.128906 347.714844 166.511719 347.328125 163.902344 C 346.941406 161.289062 346.488281 158.691406 345.972656 156.101562 C 345.457031 153.511719 344.878906 150.9375 344.238281 148.375 C 343.597656 145.816406 342.894531 143.273438 342.128906 140.746094 C 341.363281 138.222656 340.535156 135.714844 339.644531 133.230469 C 338.753906 130.746094 337.804688 128.28125 336.796875 125.84375 C 335.785156 123.40625 334.714844 120.992188 333.585938 118.605469 C 332.457031 116.222656 331.273438 113.863281 330.027344 111.535156 C 328.785156 109.207031 327.484375 106.914062 326.125 104.648438 C 324.769531 102.382812 323.355469 100.15625 321.890625 97.960938 C 320.425781 95.765625 318.90625 93.609375 317.332031 91.488281 C 315.761719 89.367188 314.136719 87.285156 312.460938 85.246094 C 310.789062 83.207031 309.0625 81.207031 307.292969 79.253906 C 305.519531 77.296875 303.699219 75.386719 301.832031 73.519531 C 299.964844 71.652344 298.054688 69.832031 296.097656 68.058594 C 294.144531 66.289062 292.144531 64.5625 290.105469 62.890625 C 288.0625 61.214844 285.984375 59.589844 283.863281 58.019531 C 281.742188 56.445312 279.585938 54.925781 277.390625 53.460938 C 275.195312 51.992188 272.96875 50.582031 270.703125 49.226562 C 268.4375 47.867188 266.144531 46.566406 263.816406 45.324219 C 261.488281 44.078125 259.128906 42.894531 256.746094 41.765625 C 254.359375 40.636719 251.945312 39.566406 249.507812 38.554688 C 247.066406 37.546875 244.605469 36.597656 242.121094 35.707031 C 239.636719 34.816406 237.128906 33.988281 234.605469 33.222656 C 232.078125 32.457031 229.535156 31.753906 226.972656 31.113281 C 224.414062 30.472656 221.839844 29.894531 219.25 29.378906 C 216.660156 28.863281 214.0625 28.410156 211.449219 28.023438 C 208.839844 27.636719 206.21875 27.3125 203.59375 27.054688 C 200.964844 26.796875 198.335938 26.601562 195.699219 26.472656 C 193.0625 26.34375 190.425781 26.277344 187.785156 26.277344 Z M 187.785156 26.277344 "/>
<path style=" stroke:none;fill-rule:nonzero;fill:rgb(94.509888%,73.728943%,9.799194%);fill-opacity:1;" d="M 331.636719 17.558594 C 331.066406 17.558594 330.496094 17.589844 329.925781 17.644531 C 329.359375 17.699219 328.792969 17.785156 328.234375 17.894531 C 327.675781 18.007812 327.121094 18.144531 326.574219 18.3125 C 326.027344 18.476562 325.492188 18.667969 324.964844 18.886719 C 324.4375 19.105469 323.921875 19.351562 323.417969 19.621094 C 322.914062 19.886719 322.421875 20.183594 321.949219 20.5 C 321.472656 20.816406 321.015625 21.15625 320.574219 21.519531 C 320.132812 21.878906 319.710938 22.261719 319.308594 22.667969 C 318.902344 23.070312 318.519531 23.492188 318.15625 23.933594 C 317.796875 24.375 317.457031 24.835938 317.136719 25.308594 C 316.820312 25.785156 316.527344 26.273438 316.257812 26.777344 C 315.988281 27.28125 315.746094 27.796875 315.527344 28.324219 C 315.308594 28.851562 315.117188 29.390625 314.949219 29.933594 C 314.785156 30.480469 314.644531 31.035156 314.535156 31.59375 C 314.421875 32.15625 314.339844 32.71875 314.285156 33.289062 C 314.226562 33.855469 314.199219 34.425781 314.199219 34.996094 C 314.199219 35.566406 314.226562 36.136719 314.285156 36.707031 C 314.339844 37.273438 314.421875 37.839844 314.535156 38.398438 C 314.644531 38.957031 314.785156 39.511719 314.949219 40.058594 C 315.117188 40.605469 315.308594 41.140625 315.527344 41.667969 C 315.746094 42.195312 315.988281 42.710938 316.257812 43.214844 C 316.527344 43.71875 316.820312 44.210938 317.136719 44.683594 C 317.457031 45.160156 317.796875 45.617188 318.15625 46.058594 C 318.519531 46.5 318.902344 46.921875 319.308594 47.328125 C 319.710938 47.730469 320.132812 48.113281 320.574219 48.476562 C 321.015625 48.835938 321.472656 49.175781 321.949219 49.496094 C 322.421875 49.8125 322.914062 50.105469 323.417969 50.375 C 323.921875 50.644531 324.4375 50.886719 324.964844 51.105469 C 325.492188 51.324219 326.027344 51.515625 326.574219 51.683594 C 327.121094 51.847656 327.675781 51.988281 328.234375 52.097656 C 328.792969 52.210938 329.359375 52.292969 329.925781 52.347656 C 330.496094 52.40625 331.066406 52.433594 331.636719 52.433594 C 332.207031 52.433594 332.777344 52.40625 333.34375 52.347656 C 333.914062 52.292969 334.476562 52.210938 335.039062 52.097656 C 335.597656 51.988281 336.152344 51.847656 336.699219 51.683594 C 337.246094 51.515625 337.78125 51.324219 338.308594 51.105469 C 338.835938 50.886719 339.351562 50.644531 339.855469 50.375 C 340.359375 50.105469 340.847656 49.8125 341.324219 49.496094 C 341.796875 49.175781 342.257812 48.835938 342.699219 48.476562 C 343.140625 48.113281 343.5625 47.730469 343.964844 47.328125 C 344.371094 46.921875 344.753906 46.5 345.113281 46.058594 C 345.476562 45.617188 345.816406 45.160156 346.132812 44.683594 C 346.453125 44.210938 346.746094 43.71875 347.015625 43.214844 C 347.28125 42.710938 347.527344 42.195312 347.746094 41.667969 C 347.964844 41.140625 348.15625 40.605469 348.320312 40.058594 C 348.488281 39.511719 348.625 38.957031 348.738281 38.398438 C 348.847656 37.839844 348.933594 37.273438 348.988281 36.707031 C 349.042969 36.136719 349.074219 35.566406 349.074219 34.996094 C 349.074219 34.425781 349.042969 33.855469 348.988281 33.289062 C 348.933594 32.71875 348.847656 32.15625 348.738281 31.59375 C 348.625 31.035156 348.488281 30.480469 348.320312 29.933594 C 348.15625 29.390625 347.964844 28.851562 347.746094 28.324219 C 347.527344 27.796875 347.28125 27.28125 347.015625 26.777344 C 346.746094 26.273438 346.453125 25.785156 346.132812 25.308594 C 345.816406 24.835938 345.476562 24.375 345.113281 23.933594 C 344.753906 23.492188 344.371094 23.070312 343.964844 22.667969 C 343.5625 22.261719 343.140625 21.878906 342.699219 21.519531 C 342.257812 21.15625 341.796875 20.816406 341.324219 20.5 C 340.847656 20.183594 340.359375 19.886719 339.855469 19.621094 C 339.351562 19.351562 338.835938 19.105469 338.308594 18.886719 C 337.78125 18.667969 337.246094 18.476562 336.699219 18.3125 C 336.152344 18.144531 335.597656 18.007812 335.039062 17.894531 C 334.476562 17.785156 333.914062 17.699219 333.34375 17.644531 C 332.777344 17.589844 332.207031 17.558594 331.636719 17.558594 Z M 331.636719 17.558594 "/>
<path style=" stroke:none;fill-rule:nonzero;fill:rgb(93.328857%,24.308777%,32.939148%);fill-opacity:1;" d="M 349.074219 65.511719 C 348.5 65.511719 347.933594 65.566406 347.371094 65.679688 C 346.808594 65.789062 346.265625 65.957031 345.738281 66.175781 C 345.207031 66.394531 344.703125 66.664062 344.230469 66.980469 C 343.753906 67.296875 343.3125 67.660156 342.90625 68.0625 C 342.503906 68.46875 342.140625 68.910156 341.824219 69.386719 C 341.503906 69.863281 341.238281 70.363281 341.019531 70.894531 C 340.800781 71.421875 340.632812 71.96875 340.523438 72.527344 C 340.410156 73.089844 340.355469 73.65625 340.355469 74.230469 C 340.355469 74.800781 340.410156 75.367188 340.523438 75.929688 C 340.632812 76.492188 340.800781 77.035156 341.019531 77.566406 C 341.238281 78.09375 341.503906 78.597656 341.824219 79.074219 C 342.140625 79.546875 342.503906 79.988281 342.90625 80.394531 C 343.3125 80.796875 343.753906 81.160156 344.230469 81.476562 C 344.703125 81.796875 345.207031 82.066406 345.738281 82.285156 C 346.265625 82.503906 346.808594 82.667969 347.371094 82.78125 C 347.933594 82.890625 348.5 82.949219 349.074219 82.949219 C 349.644531 82.949219 350.210938 82.890625 350.773438 82.78125 C 351.335938 82.667969 351.878906 82.503906 352.410156 82.285156 C 352.9375 82.066406 353.441406 81.796875 353.917969 81.476562 C 354.390625 81.160156 354.832031 80.796875 355.238281 80.394531 C 355.640625 79.988281 356.003906 79.546875 356.320312 79.074219 C 356.640625 78.597656 356.910156 78.09375 357.128906 77.566406 C 357.347656 77.035156 357.511719 76.492188 357.625 75.929688 C 357.734375 75.367188 357.789062 74.800781 357.789062 74.230469 C 357.789062 73.65625 357.734375 73.089844 357.625 72.527344 C 357.511719 71.96875 357.347656 71.421875 357.128906 70.894531 C 356.910156 70.363281 356.640625 69.863281 356.320312 69.386719 C 356.003906 68.910156 355.640625 68.46875 355.238281 68.0625 C 354.832031 67.660156 354.390625 67.296875 353.917969 66.980469 C 353.441406 66.664062 352.9375 66.394531 352.410156 66.175781 C 351.878906 65.957031 351.335938 65.789062 350.773438 65.679688 C 350.210938 65.566406 349.644531 65.511719 349.074219 65.511719 Z M 349.074219 65.511719 "/>
<path style=" stroke:none;fill-rule:nonzero;fill:rgb(98.429871%,80.389404%,34.899902%);fill-opacity:1;" d="M 322.917969 292.1875 C 322.34375 292.1875 321.777344 292.242188 321.21875 292.351562 C 320.65625 292.464844 320.109375 292.628906 319.582031 292.847656 C 319.050781 293.070312 318.550781 293.335938 318.074219 293.65625 C 317.597656 293.972656 317.15625 294.335938 316.753906 294.738281 C 316.347656 295.144531 315.988281 295.585938 315.667969 296.0625 C 315.351562 296.535156 315.082031 297.039062 314.863281 297.566406 C 314.644531 298.097656 314.480469 298.640625 314.367188 299.203125 C 314.253906 299.765625 314.199219 300.332031 314.199219 300.902344 C 314.199219 301.476562 314.253906 302.042969 314.367188 302.605469 C 314.480469 303.167969 314.644531 303.710938 314.863281 304.242188 C 315.082031 304.769531 315.351562 305.273438 315.667969 305.746094 C 315.988281 306.222656 316.347656 306.664062 316.753906 307.070312 C 317.15625 307.472656 317.597656 307.835938 318.074219 308.152344 C 318.550781 308.472656 319.050781 308.738281 319.582031 308.957031 C 320.109375 309.179688 320.65625 309.34375 321.21875 309.453125 C 321.777344 309.566406 322.34375 309.621094 322.917969 309.621094 C 323.492188 309.621094 324.058594 309.566406 324.617188 309.453125 C 325.179688 309.34375 325.726562 309.179688 326.253906 308.957031 C 326.78125 308.738281 327.285156 308.472656 327.761719 308.152344 C 328.238281 307.835938 328.679688 307.472656 329.082031 307.070312 C 329.488281 306.664062 329.847656 306.222656 330.167969 305.746094 C 330.484375 305.273438 330.753906 304.769531 330.972656 304.242188 C 331.191406 303.710938 331.355469 303.167969 331.46875 302.605469 C 331.582031 302.042969 331.636719 301.476562 331.636719 300.902344 C 331.636719 300.332031 331.582031 299.765625 331.46875 299.203125 C 331.355469 298.640625 331.191406 298.097656 330.972656 297.566406 C 330.753906 297.039062 330.484375 296.535156 330.167969 296.0625 C 329.847656 295.585938 329.488281 295.144531 329.082031 294.738281 C 328.679688 294.335938 328.238281 293.972656 327.761719 293.65625 C 327.285156 293.335938 326.78125 293.070312 326.253906 292.847656 C 325.726562 292.628906 325.179688 292.464844 324.617188 292.351562 C 324.058594 292.242188 323.492188 292.1875 322.917969 292.1875 Z M 35.214844 226.800781 C 34.644531 226.800781 34.074219 226.828125 33.503906 226.882812 C 32.9375 226.9375 32.375 227.023438 31.8125 227.132812 C 31.253906 227.246094 30.699219 227.382812 30.152344 227.550781 C 29.605469 227.714844 29.070312 227.90625 28.542969 228.125 C 28.015625 228.34375 27.5 228.589844 26.996094 228.859375 C 26.492188 229.128906 26.003906 229.421875 25.527344 229.738281 C 25.054688 230.054688 24.59375 230.394531 24.152344 230.757812 C 23.710938 231.117188 23.289062 231.503906 22.886719 231.90625 C 22.480469 232.308594 22.097656 232.730469 21.734375 233.175781 C 21.375 233.617188 21.035156 234.074219 20.71875 234.546875 C 20.398438 235.023438 20.105469 235.511719 19.835938 236.015625 C 19.566406 236.519531 19.324219 237.035156 19.105469 237.5625 C 18.886719 238.089844 18.695312 238.628906 18.527344 239.175781 C 18.363281 239.71875 18.226562 240.273438 18.113281 240.832031 C 18.003906 241.394531 17.917969 241.957031 17.863281 242.527344 C 17.804688 243.09375 17.777344 243.664062 17.777344 244.234375 C 17.777344 244.804688 17.804688 245.375 17.863281 245.945312 C 17.917969 246.511719 18.003906 247.078125 18.113281 247.636719 C 18.226562 248.195312 18.363281 248.75 18.527344 249.296875 C 18.695312 249.84375 18.886719 250.378906 19.105469 250.90625 C 19.324219 251.4375 19.566406 251.953125 19.835938 252.453125 C 20.105469 252.957031 20.398438 253.449219 20.71875 253.921875 C 21.035156 254.398438 21.375 254.855469 21.734375 255.296875 C 22.097656 255.738281 22.480469 256.160156 22.886719 256.566406 C 23.289062 256.96875 23.710938 257.351562 24.152344 257.714844 C 24.59375 258.078125 25.054688 258.417969 25.527344 258.734375 C 26.003906 259.050781 26.492188 259.34375 26.996094 259.613281 C 27.5 259.882812 28.015625 260.125 28.542969 260.34375 C 29.070312 260.5625 29.605469 260.753906 30.152344 260.921875 C 30.699219 261.085938 31.253906 261.226562 31.8125 261.335938 C 32.375 261.449219 32.9375 261.53125 33.503906 261.589844 C 34.074219 261.644531 34.644531 261.671875 35.214844 261.671875 C 35.785156 261.671875 36.355469 261.644531 36.925781 261.589844 C 37.492188 261.53125 38.054688 261.449219 38.617188 261.335938 C 39.175781 261.226562 39.730469 261.085938 40.277344 260.921875 C 40.824219 260.753906 41.359375 260.5625 41.886719 260.34375 C 42.414062 260.125 42.929688 259.882812 43.433594 259.613281 C 43.9375 259.34375 44.425781 259.050781 44.902344 258.734375 C 45.378906 258.417969 45.835938 258.078125 46.277344 257.714844 C 46.71875 257.351562 47.140625 256.96875 47.542969 256.566406 C 47.949219 256.160156 48.332031 255.738281 48.695312 255.296875 C 49.054688 254.855469 49.394531 254.398438 49.710938 253.921875 C 50.03125 253.449219 50.324219 252.957031 50.59375 252.453125 C 50.863281 251.953125 51.105469 251.4375 51.324219 250.90625 C 51.542969 250.378906 51.734375 249.84375 51.902344 249.296875 C 52.066406 248.75 52.203125 248.195312 52.316406 247.636719 C 52.429688 247.078125 52.511719 246.511719 52.566406 245.945312 C 52.625 245.375 52.652344 244.804688 52.652344 244.234375 C 52.652344 243.664062 52.625 243.09375 52.566406 242.527344 C 52.511719 241.957031 52.429688 241.394531 52.316406 240.832031 C 52.203125 240.273438 52.066406 239.71875 51.902344 239.175781 C 51.734375 238.628906 51.542969 238.089844 51.324219 237.5625 C 51.105469 237.035156 50.863281 236.519531 50.59375 236.015625 C 50.324219 235.511719 50.03125 235.023438 49.710938 234.546875 C 49.394531 234.074219 49.054688 233.617188 48.695312 233.175781 C 48.332031 232.730469 47.949219 232.308594 47.542969 231.90625 C 47.140625 231.503906 46.71875 231.117188 46.277344 230.757812 C 45.835938 230.394531 45.378906 230.054688 44.902344 229.738281 C 44.425781 229.421875 43.9375 229.128906 43.433594 228.859375 C 42.929688 228.589844 42.414062 228.34375 41.886719 228.125 C 41.359375 227.90625 40.824219 227.714844 40.277344 227.550781 C 39.730469 227.382812 39.175781 227.246094 38.617188 227.132812 C 38.054688 227.023438 37.492188 226.9375 36.925781 226.882812 C 36.355469 226.828125 35.785156 226.800781 35.214844 226.800781 Z M 35.214844 226.800781 "/>
<path style=" stroke:none;fill-rule:nonzero;fill:rgb(93.328857%,24.308777%,32.939148%);fill-opacity:1;" d="M 78.804688 340.136719 C 78.234375 340.136719 77.667969 340.191406 77.105469 340.304688 C 76.542969 340.414062 76 340.582031 75.46875 340.800781 C 74.941406 341.019531 74.4375 341.289062 73.960938 341.605469 C 73.488281 341.921875 73.046875 342.285156 72.640625 342.691406 C 72.238281 343.09375 71.875 343.535156 71.558594 344.011719 C 71.238281 344.488281 70.972656 344.988281 70.75 345.519531 C 70.53125 346.046875 70.367188 346.59375 70.253906 347.152344 C 70.144531 347.714844 70.089844 348.28125 70.089844 348.855469 C 70.089844 349.425781 70.144531 349.992188 70.253906 350.554688 C 70.367188 351.117188 70.53125 351.664062 70.75 352.191406 C 70.972656 352.71875 71.238281 353.222656 71.558594 353.699219 C 71.875 354.175781 72.238281 354.613281 72.640625 355.019531 C 73.046875 355.425781 73.488281 355.785156 73.960938 356.105469 C 74.4375 356.421875 74.941406 356.691406 75.46875 356.910156 C 76 357.128906 76.542969 357.292969 77.105469 357.40625 C 77.667969 357.515625 78.234375 357.574219 78.804688 357.574219 C 79.378906 357.574219 79.945312 357.515625 80.507812 357.40625 C 81.070312 357.292969 81.613281 357.128906 82.144531 356.910156 C 82.671875 356.691406 83.175781 356.421875 83.648438 356.105469 C 84.125 355.785156 84.566406 355.425781 84.972656 355.019531 C 85.375 354.613281 85.738281 354.175781 86.054688 353.699219 C 86.375 353.222656 86.640625 352.71875 86.859375 352.191406 C 87.078125 351.664062 87.246094 351.117188 87.355469 350.554688 C 87.46875 349.992188 87.523438 349.425781 87.523438 348.855469 C 87.523438 348.28125 87.46875 347.714844 87.355469 347.152344 C 87.246094 346.59375 87.078125 346.046875 86.859375 345.519531 C 86.640625 344.988281 86.375 344.488281 86.054688 344.011719 C 85.738281 343.535156 85.375 343.09375 84.972656 342.691406 C 84.566406 342.285156 84.125 341.921875 83.648438 341.605469 C 83.175781 341.289062 82.671875 341.019531 82.144531 340.800781 C 81.613281 340.582031 81.070312 340.414062 80.507812 340.304688 C 79.945312 340.191406 79.378906 340.136719 78.804688 340.136719 Z M 78.804688 340.136719 "/>
<path style=" stroke:none;fill-rule:nonzero;fill:rgb(100%,100%,100%);fill-opacity:1;" d="M 50.472656 191.925781 C 49.757812 191.925781 49.046875 191.996094 48.347656 192.136719 C 47.644531 192.273438 46.960938 192.480469 46.300781 192.753906 C 45.640625 193.027344 45.011719 193.363281 44.417969 193.761719 C 43.824219 194.160156 43.273438 194.613281 42.765625 195.117188 C 42.261719 195.625 41.808594 196.175781 41.410156 196.769531 C 41.011719 197.363281 40.675781 197.992188 40.402344 198.652344 C 40.128906 199.3125 39.921875 199.996094 39.785156 200.699219 C 39.644531 201.398438 39.574219 202.109375 39.574219 202.824219 C 39.574219 203.539062 39.644531 204.246094 39.785156 204.949219 C 39.921875 205.652344 40.128906 206.332031 40.402344 206.992188 C 40.675781 207.65625 41.011719 208.285156 41.410156 208.878906 C 41.808594 209.472656 42.261719 210.023438 42.765625 210.53125 C 43.273438 211.035156 43.824219 211.488281 44.417969 211.886719 C 45.011719 212.28125 45.640625 212.617188 46.300781 212.890625 C 46.960938 213.164062 47.644531 213.371094 48.347656 213.511719 C 49.046875 213.652344 49.757812 213.722656 50.472656 213.722656 C 51.1875 213.722656 51.894531 213.652344 52.597656 213.511719 C 53.300781 213.371094 53.980469 213.164062 54.640625 212.890625 C 55.304688 212.617188 55.929688 212.28125 56.527344 211.886719 C 57.121094 211.488281 57.671875 211.035156 58.179688 210.53125 C 58.683594 210.023438 59.136719 209.472656 59.53125 208.878906 C 59.929688 208.285156 60.265625 207.65625 60.539062 206.992188 C 60.8125 206.332031 61.019531 205.652344 61.160156 204.949219 C 61.300781 204.246094 61.371094 203.539062 61.371094 202.824219 C 61.371094 202.109375 61.300781 201.398438 61.160156 200.699219 C 61.019531 199.996094 60.8125 199.3125 60.539062 198.652344 C 60.265625 197.992188 59.929688 197.363281 59.53125 196.769531 C 59.136719 196.175781 58.683594 195.625 58.179688 195.117188 C 57.671875 194.613281 57.121094 194.160156 56.527344 193.761719 C 55.929688 193.363281 55.304688 193.027344 54.640625 192.753906 C 53.980469 192.480469 53.300781 192.273438 52.597656 192.136719 C 51.894531 191.996094 51.1875 191.925781 50.472656 191.925781 Z M 50.472656 191.925781 "/>
<path style=" stroke:none;fill-rule:nonzero;fill:rgb(94.509888%,73.728943%,9.799194%);fill-opacity:1;" d="M 61.371094 257.3125 C 61.082031 257.3125 60.800781 257.339844 60.519531 257.398438 C 60.238281 257.453125 59.964844 257.535156 59.703125 257.644531 C 59.4375 257.753906 59.1875 257.886719 58.949219 258.046875 C 58.710938 258.207031 58.488281 258.386719 58.289062 258.589844 C 58.085938 258.792969 57.902344 259.011719 57.746094 259.25 C 57.585938 259.488281 57.453125 259.738281 57.34375 260.003906 C 57.234375 260.269531 57.148438 260.539062 57.09375 260.820312 C 57.039062 261.101562 57.011719 261.386719 57.011719 261.671875 C 57.011719 261.957031 57.039062 262.242188 57.09375 262.523438 C 57.148438 262.804688 57.234375 263.074219 57.34375 263.339844 C 57.453125 263.605469 57.585938 263.855469 57.746094 264.09375 C 57.902344 264.332031 58.085938 264.550781 58.289062 264.753906 C 58.488281 264.957031 58.710938 265.136719 58.949219 265.296875 C 59.1875 265.457031 59.4375 265.589844 59.703125 265.699219 C 59.964844 265.808594 60.238281 265.890625 60.519531 265.949219 C 60.800781 266.003906 61.082031 266.03125 61.371094 266.03125 C 61.65625 266.03125 61.9375 266.003906 62.21875 265.949219 C 62.5 265.890625 62.773438 265.808594 63.039062 265.699219 C 63.300781 265.589844 63.554688 265.457031 63.792969 265.296875 C 64.03125 265.136719 64.25 264.957031 64.453125 264.753906 C 64.65625 264.550781 64.835938 264.332031 64.996094 264.09375 C 65.152344 263.855469 65.289062 263.605469 65.398438 263.339844 C 65.507812 263.074219 65.589844 262.804688 65.644531 262.523438 C 65.699219 262.242188 65.730469 261.957031 65.730469 261.671875 C 65.730469 261.386719 65.699219 261.101562 65.644531 260.820312 C 65.589844 260.539062 65.507812 260.269531 65.398438 260.003906 C 65.289062 259.738281 65.152344 259.488281 64.996094 259.25 C 64.835938 259.011719 64.65625 258.792969 64.453125 258.589844 C 64.25 258.386719 64.03125 258.207031 63.792969 258.046875 C 63.554688 257.886719 63.300781 257.753906 63.039062 257.644531 C 62.773438 257.535156 62.5 257.453125 62.21875 257.398438 C 61.9375 257.339844 61.65625 257.3125 61.371094 257.3125 Z M 61.371094 257.3125 "/>
<path style=" stroke:none;fill-rule:nonzero;fill:rgb(100%,100%,100%);fill-opacity:1;" d="M 318.558594 113.460938 C 318.273438 113.460938 317.988281 113.488281 317.707031 113.546875 C 317.425781 113.601562 317.15625 113.683594 316.890625 113.792969 C 316.625 113.902344 316.375 114.035156 316.136719 114.195312 C 315.898438 114.355469 315.679688 114.535156 315.476562 114.738281 C 315.273438 114.941406 315.09375 115.160156 314.933594 115.398438 C 314.773438 115.636719 314.640625 115.886719 314.53125 116.152344 C 314.421875 116.417969 314.339844 116.6875 314.285156 116.96875 C 314.226562 117.25 314.199219 117.535156 314.199219 117.820312 C 314.199219 118.105469 314.226562 118.390625 314.285156 118.671875 C 314.339844 118.953125 314.421875 119.222656 314.53125 119.488281 C 314.640625 119.753906 314.773438 120.003906 314.933594 120.242188 C 315.09375 120.480469 315.273438 120.699219 315.476562 120.902344 C 315.679688 121.105469 315.898438 121.285156 316.136719 121.445312 C 316.375 121.605469 316.625 121.738281 316.890625 121.847656 C 317.15625 121.957031 317.425781 122.039062 317.707031 122.097656 C 317.988281 122.152344 318.273438 122.179688 318.558594 122.179688 C 318.84375 122.179688 319.128906 122.152344 319.410156 122.097656 C 319.691406 122.039062 319.960938 121.957031 320.226562 121.847656 C 320.492188 121.738281 320.742188 121.605469 320.980469 121.445312 C 321.21875 121.285156 321.4375 121.105469 321.640625 120.902344 C 321.84375 120.699219 322.023438 120.480469 322.183594 120.242188 C 322.34375 120.003906 322.476562 119.753906 322.585938 119.488281 C 322.695312 119.222656 322.777344 118.953125 322.835938 118.671875 C 322.890625 118.390625 322.917969 118.105469 322.917969 117.820312 C 322.917969 117.535156 322.890625 117.25 322.835938 116.96875 C 322.777344 116.6875 322.695312 116.417969 322.585938 116.152344 C 322.476562 115.886719 322.34375 115.636719 322.183594 115.398438 C 322.023438 115.160156 321.84375 114.941406 321.640625 114.738281 C 321.4375 114.535156 321.21875 114.355469 320.980469 114.195312 C 320.742188 114.035156 320.492188 113.902344 320.226562 113.792969 C 319.960938 113.683594 319.691406 113.601562 319.410156 113.546875 C 319.128906 113.488281 318.84375 113.460938 318.558594 113.460938 Z M 318.558594 113.460938 "/>
<path style=" stroke:none;fill-rule:nonzero;fill:rgb(53.329468%,68.238831%,27.059937%);fill-opacity:1;" d="M 271.097656 106.453125 C 276.875 104.992188 282.804688 108.523438 283.65625 111.878906 L 307.097656 204.546875 C 309.171875 212.742188 305.636719 218.664062 299.863281 220.128906 L 115.230469 266.816406 C 111.855469 267.671875 108.425781 266.820312 105.871094 264.816406 "/>
<path style=" stroke:none;fill-rule:nonzero;fill:rgb(27.839661%,16.859436%,16.079712%);fill-opacity:1;" d="M 112.550781 270.390625 C 109.4375 270.390625 106.398438 269.351562 103.871094 267.371094 C 102.464844 266.269531 102.222656 264.230469 103.320312 262.832031 C 104.421875 261.417969 106.464844 261.183594 107.859375 262.28125 C 109.746094 263.761719 112.140625 264.273438 114.429688 263.691406 L 299.058594 217.007812 C 301.066406 216.503906 302.609375 215.265625 303.527344 213.433594 C 304.601562 211.285156 304.753906 208.496094 303.960938 205.355469 L 280.515625 112.683594 C 280.394531 112.207031 279.554688 111.125 277.8125 110.277344 C 275.929688 109.371094 273.765625 109.125 271.894531 109.597656 C 270.183594 110.039062 268.398438 108.992188 267.960938 107.257812 C 267.523438 105.527344 268.574219 103.765625 270.308594 103.328125 C 273.691406 102.472656 277.363281 102.867188 280.644531 104.460938 C 283.832031 106.007812 286.136719 108.488281 286.792969 111.097656 L 310.238281 203.769531 C 311.414062 208.429688 311.101562 212.777344 309.320312 216.332031 C 307.5625 219.851562 304.484375 222.316406 300.65625 223.285156 L 116.019531 269.964844 C 114.871094 270.242188 113.699219 270.390625 112.550781 270.390625 Z M 112.550781 270.390625 "/>
<path style=" stroke:none;fill-rule:nonzero;fill:rgb(75.289917%,81.568909%,47.059631%);fill-opacity:1;" d="M 274.820312 212.808594 L 108.335938 254.910156 C 97.632812 257.617188 86.660156 251.074219 83.949219 240.378906 L 65.21875 166.347656 C 62.511719 155.644531 69.054688 144.675781 79.757812 141.96875 L 246.242188 99.871094 C 256.941406 97.164062 267.914062 103.707031 270.625 114.402344 L 289.355469 188.433594 C 292.066406 199.132812 285.53125 210.101562 274.820312 212.808594 Z M 274.820312 212.808594 "/>
<path style=" stroke:none;fill-rule:nonzero;fill:rgb(27.839661%,16.859436%,16.079712%);fill-opacity:1;" d="M 103.414062 258.753906 C 99.269531 258.753906 95.171875 257.640625 91.492188 255.441406 C 86.128906 252.25 82.339844 247.179688 80.816406 241.164062 L 62.085938 167.140625 C 58.933594 154.6875 66.507812 141.988281 78.96875 138.832031 L 245.449219 96.734375 C 257.933594 93.59375 270.609375 101.15625 273.765625 113.609375 L 292.496094 187.632812 C 295.648438 200.085938 288.070312 212.785156 275.617188 215.941406 L 109.132812 258.039062 C 107.242188 258.519531 105.324219 258.753906 103.414062 258.753906 Z M 251.167969 102.492188 C 249.800781 102.492188 248.421875 102.660156 247.039062 103.007812 L 80.558594 145.105469 C 76.21875 146.199219 72.554688 148.941406 70.246094 152.816406 C 67.933594 156.691406 67.261719 161.214844 68.363281 165.554688 L 87.09375 239.574219 C 88.1875 243.914062 90.929688 247.578125 94.804688 249.890625 C 98.683594 252.199219 103.199219 252.875 107.546875 251.769531 L 274.03125 209.667969 C 283.03125 207.386719 288.507812 198.214844 286.226562 189.21875 L 267.496094 115.195312 C 265.570312 107.578125 258.691406 102.492188 251.167969 102.492188 Z M 274.828125 212.808594 L 274.875 212.808594 Z M 274.828125 212.808594 "/>
<path style=" stroke:none;fill-rule:nonzero;fill:rgb(53.329468%,68.238831%,27.059937%);fill-opacity:1;" d="M 204.457031 128.191406 L 90.542969 156.996094 C 92.324219 164.058594 88.449219 171.125 81.878906 172.789062 L 95.542969 226.789062 C 102.113281 225.125 108.890625 229.507812 110.675781 236.570312 L 264.042969 197.789062 C 262.257812 190.722656 266.136719 183.65625 272.710938 181.992188 L 259.046875 127.992188 L 259.042969 127.992188 C 252.46875 129.65625 245.699219 125.273438 243.914062 118.21875 L 230.136719 121.699219 "/>
<path style=" stroke:none;fill-rule:nonzero;fill:rgb(27.839661%,16.859436%,16.079712%);fill-opacity:1;" d="M 110.675781 238.0625 C 110 238.0625 109.394531 237.605469 109.21875 236.929688 C 107.640625 230.675781 101.644531 226.773438 95.914062 228.238281 C 95.101562 228.449219 94.292969 227.949219 94.085938 227.152344 L 80.417969 173.15625 C 80.324219 172.765625 80.382812 172.359375 80.585938 172.019531 C 80.789062 171.675781 81.121094 171.425781 81.503906 171.328125 C 87.261719 169.878906 90.660156 163.613281 89.085938 157.367188 C 88.878906 156.566406 89.371094 155.746094 90.171875 155.539062 L 204.082031 126.734375 C 204.921875 126.535156 205.707031 127.023438 205.914062 127.820312 C 206.121094 128.625 205.625 129.445312 204.828125 129.652344 L 92.300781 158.101562 C 93.347656 164.921875 89.734375 171.484375 83.6875 173.789062 L 96.660156 225.046875 C 103.089844 224.25 109.386719 228.257812 111.703125 234.761719 L 262.296875 196.683594 C 261.78125 193.367188 262.351562 190.035156 263.929688 187.144531 C 265.519531 184.246094 267.960938 182.105469 270.910156 180.984375 L 257.9375 129.730469 C 254.804688 130.148438 251.644531 129.425781 248.871094 127.636719 C 246.101562 125.851562 244.015625 123.179688 242.894531 120.023438 L 230.507812 123.160156 C 229.683594 123.378906 228.886719 122.871094 228.679688 122.074219 C 228.472656 121.269531 228.964844 120.449219 229.761719 120.246094 L 243.535156 116.761719 C 244.375 116.566406 245.15625 117.050781 245.363281 117.847656 C 246.945312 124.097656 252.945312 128 258.667969 126.539062 C 259.496094 126.332031 260.289062 126.828125 260.5 127.625 L 274.164062 181.625 C 274.261719 182.011719 274.199219 182.421875 274 182.761719 C 273.792969 183.101562 273.464844 183.355469 273.078125 183.453125 C 270.308594 184.148438 267.992188 185.976562 266.558594 188.589844 C 265.105469 191.238281 264.726562 194.375 265.5 197.417969 C 265.59375 197.804688 265.535156 198.214844 265.332031 198.554688 C 265.128906 198.894531 264.796875 199.148438 264.414062 199.246094 L 111.046875 238.027344 C 110.921875 238.050781 110.796875 238.0625 110.675781 238.0625 Z M 110.675781 238.0625 "/>
<path style=" stroke:none;fill-rule:nonzero;fill:rgb(27.839661%,16.859436%,16.079712%);fill-opacity:1;" d="M 209.59375 128.390625 C 208.917969 128.390625 208.3125 127.933594 208.136719 127.257812 C 207.933594 126.453125 208.425781 125.632812 209.222656 125.425781 L 211.789062 124.777344 C 212.617188 124.582031 213.410156 125.066406 213.621094 125.863281 C 213.824219 126.667969 213.332031 127.488281 212.535156 127.695312 L 209.96875 128.34375 C 209.835938 128.378906 209.714844 128.390625 209.59375 128.390625 Z M 209.59375 128.390625 "/>
<path style=" stroke:none;fill-rule:nonzero;fill:rgb(75.289917%,81.568909%,47.059631%);fill-opacity:1;" d="M 177.292969 152.246094 C 176.46875 152.246094 175.644531 152.285156 174.824219 152.367188 C 174.007812 152.445312 173.191406 152.566406 172.382812 152.726562 C 171.574219 152.886719 170.777344 153.089844 169.988281 153.328125 C 169.199219 153.566406 168.425781 153.84375 167.664062 154.160156 C 166.902344 154.472656 166.15625 154.828125 165.429688 155.214844 C 164.703125 155.601562 164 156.027344 163.3125 156.484375 C 162.628906 156.941406 161.96875 157.429688 161.332031 157.953125 C 160.691406 158.476562 160.082031 159.027344 159.5 159.613281 C 158.917969 160.195312 158.367188 160.804688 157.84375 161.441406 C 157.320312 162.078125 156.828125 162.738281 156.371094 163.421875 C 155.914062 164.109375 155.492188 164.8125 155.101562 165.539062 C 154.714844 166.265625 154.363281 167.011719 154.046875 167.769531 C 153.730469 168.53125 153.453125 169.308594 153.214844 170.09375 C 152.976562 170.882812 152.777344 171.683594 152.613281 172.488281 C 152.453125 173.296875 152.332031 174.113281 152.253906 174.929688 C 152.171875 175.75 152.132812 176.574219 152.132812 177.398438 C 152.132812 178.21875 152.171875 179.042969 152.253906 179.863281 C 152.332031 180.683594 152.453125 181.496094 152.613281 182.304688 C 152.777344 183.113281 152.976562 183.910156 153.214844 184.699219 C 153.453125 185.488281 153.730469 186.261719 154.046875 187.023438 C 154.363281 187.785156 154.714844 188.527344 155.101562 189.253906 C 155.492188 189.980469 155.914062 190.6875 156.371094 191.371094 C 156.828125 192.054688 157.320312 192.714844 157.84375 193.351562 C 158.367188 193.988281 158.917969 194.601562 159.5 195.183594 C 160.082031 195.765625 160.691406 196.316406 161.332031 196.839844 C 161.96875 197.363281 162.628906 197.851562 163.3125 198.308594 C 164 198.769531 164.703125 199.191406 165.429688 199.578125 C 166.15625 199.96875 166.902344 200.320312 167.664062 200.632812 C 168.425781 200.949219 169.199219 201.226562 169.988281 201.464844 C 170.777344 201.707031 171.574219 201.90625 172.382812 202.066406 C 173.191406 202.226562 174.007812 202.347656 174.824219 202.429688 C 175.644531 202.507812 176.46875 202.550781 177.292969 202.550781 C 178.117188 202.550781 178.9375 202.507812 179.757812 202.429688 C 180.578125 202.347656 181.394531 202.226562 182.199219 202.066406 C 183.007812 201.90625 183.808594 201.707031 184.597656 201.464844 C 185.382812 201.226562 186.160156 200.949219 186.921875 200.632812 C 187.683594 200.320312 188.425781 199.96875 189.152344 199.578125 C 189.878906 199.191406 190.585938 198.769531 191.269531 198.308594 C 191.957031 197.851562 192.617188 197.363281 193.253906 196.839844 C 193.890625 196.316406 194.5 195.765625 195.082031 195.183594 C 195.667969 194.601562 196.21875 193.988281 196.742188 193.351562 C 197.265625 192.714844 197.753906 192.054688 198.210938 191.371094 C 198.671875 190.6875 199.09375 189.980469 199.480469 189.253906 C 199.871094 188.527344 200.222656 187.785156 200.539062 187.023438 C 200.851562 186.261719 201.128906 185.488281 201.371094 184.699219 C 201.609375 183.910156 201.808594 183.113281 201.96875 182.304688 C 202.128906 181.496094 202.25 180.683594 202.332031 179.863281 C 202.414062 179.042969 202.453125 178.21875 202.453125 177.398438 C 202.453125 176.574219 202.414062 175.75 202.332031 174.929688 C 202.25 174.113281 202.128906 173.296875 201.96875 172.488281 C 201.808594 171.683594 201.609375 170.882812 201.371094 170.09375 C 201.128906 169.308594 200.851562 168.53125 200.539062 167.773438 C 200.222656 167.011719 199.871094 166.265625 199.480469 165.539062 C 199.09375 164.8125 198.671875 164.109375 198.210938 163.421875 C 197.753906 162.738281 197.265625 162.078125 196.742188 161.441406 C 196.21875 160.804688 195.667969 160.195312 195.082031 159.613281 C 194.5 159.027344 193.890625 158.476562 193.253906 157.953125 C 192.617188 157.429688 191.957031 156.941406 191.269531 156.484375 C 190.585938 156.027344 189.878906 155.601562 189.152344 155.214844 C 188.425781 154.828125 187.683594 154.472656 186.921875 154.160156 C 186.160156 153.84375 185.382812 153.566406 184.597656 153.328125 C 183.808594 153.089844 183.007812 152.886719 182.199219 152.726562 C 181.394531 152.566406 180.578125 152.445312 179.757812 152.367188 C 178.9375 152.285156 178.117188 152.246094 177.292969 152.246094 Z M 177.292969 152.246094 "/>
<path style=" stroke:none;fill-rule:nonzero;fill:rgb(27.839661%,16.859436%,16.079712%);fill-opacity:1;" d="M 177.296875 204.042969 C 165.382812 204.042969 154.5 195.988281 151.441406 183.925781 C 147.84375 169.671875 156.503906 155.148438 170.753906 151.542969 C 185.039062 147.964844 199.542969 156.605469 203.144531 170.847656 C 206.746094 185.097656 198.085938 199.625 183.832031 203.230469 C 181.648438 203.78125 179.453125 204.042969 177.296875 204.042969 Z M 177.332031 153.726562 C 175.386719 153.726562 173.425781 153.972656 171.488281 154.464844 C 158.84375 157.65625 151.160156 170.542969 154.359375 183.191406 C 155.90625 189.316406 159.746094 194.46875 165.179688 197.707031 C 170.605469 200.941406 176.972656 201.875 183.089844 200.316406 C 195.738281 197.125 203.425781 184.234375 200.226562 171.59375 C 198.679688 165.46875 194.835938 160.316406 189.40625 157.074219 C 185.695312 154.863281 181.546875 153.726562 177.332031 153.726562 Z M 177.332031 153.726562 "/>
<path style=" stroke:none;fill-rule:nonzero;fill:rgb(75.289917%,81.568909%,47.059631%);fill-opacity:1;" d="M 129.46875 180.183594 C 128.945312 180.183594 128.429688 180.234375 127.917969 180.335938 C 127.40625 180.4375 126.910156 180.585938 126.425781 180.785156 C 125.945312 180.988281 125.488281 181.230469 125.054688 181.519531 C 124.621094 181.8125 124.21875 182.140625 123.847656 182.507812 C 123.480469 182.878906 123.152344 183.277344 122.859375 183.710938 C 122.570312 184.144531 122.324219 184.601562 122.125 185.085938 C 121.925781 185.566406 121.777344 186.0625 121.675781 186.574219 C 121.574219 187.085938 121.519531 187.601562 121.519531 188.125 C 121.519531 188.644531 121.574219 189.164062 121.675781 189.675781 C 121.777344 190.1875 121.925781 190.683594 122.125 191.164062 C 122.324219 191.644531 122.570312 192.105469 122.859375 192.539062 C 123.152344 192.972656 123.480469 193.371094 123.847656 193.742188 C 124.21875 194.109375 124.621094 194.4375 125.054688 194.726562 C 125.488281 195.019531 125.945312 195.261719 126.425781 195.460938 C 126.910156 195.660156 127.40625 195.8125 127.917969 195.914062 C 128.429688 196.015625 128.945312 196.066406 129.46875 196.066406 C 129.988281 196.066406 130.507812 196.015625 131.019531 195.914062 C 131.53125 195.8125 132.027344 195.660156 132.507812 195.460938 C 132.992188 195.261719 133.449219 195.019531 133.882812 194.726562 C 134.316406 194.4375 134.71875 194.109375 135.085938 193.742188 C 135.457031 193.371094 135.785156 192.972656 136.074219 192.539062 C 136.367188 192.105469 136.609375 191.644531 136.808594 191.164062 C 137.007812 190.683594 137.160156 190.1875 137.261719 189.675781 C 137.363281 189.164062 137.414062 188.644531 137.414062 188.125 C 137.414062 187.601562 137.363281 187.085938 137.261719 186.574219 C 137.160156 186.0625 137.007812 185.566406 136.808594 185.085938 C 136.609375 184.601562 136.367188 184.144531 136.074219 183.710938 C 135.785156 183.277344 135.457031 182.878906 135.085938 182.507812 C 134.71875 182.140625 134.316406 181.8125 133.882812 181.519531 C 133.449219 181.230469 132.992188 180.988281 132.507812 180.785156 C 132.027344 180.585938 131.53125 180.4375 131.019531 180.335938 C 130.507812 180.234375 129.988281 180.183594 129.46875 180.183594 Z M 129.46875 180.183594 "/>
<path style=" stroke:none;fill-rule:nonzero;fill:rgb(27.839661%,16.859436%,16.079712%);fill-opacity:1;" d="M 129.449219 197.566406 C 127.773438 197.566406 126.117188 197.109375 124.632812 196.234375 C 122.464844 194.9375 120.929688 192.878906 120.308594 190.429688 C 119.691406 187.988281 120.066406 185.449219 121.359375 183.28125 C 122.652344 181.109375 124.710938 179.578125 127.164062 178.957031 C 129.601562 178.34375 132.152344 178.714844 134.316406 180.003906 C 136.480469 181.296875 138.015625 183.355469 138.636719 185.804688 C 139.253906 188.246094 138.882812 190.789062 137.589844 192.953125 C 136.292969 195.125 134.234375 196.660156 131.78125 197.277344 C 131.011719 197.464844 130.230469 197.566406 129.449219 197.566406 Z M 129.480469 181.667969 C 128.949219 181.667969 128.417969 181.738281 127.886719 181.875 C 126.214844 182.292969 124.8125 183.339844 123.9375 184.816406 C 123.050781 186.292969 122.796875 188.027344 123.226562 189.695312 C 123.644531 191.363281 124.691406 192.773438 126.171875 193.648438 C 127.640625 194.523438 129.386719 194.78125 131.050781 194.355469 C 132.71875 193.933594 134.128906 192.890625 135.007812 191.40625 C 135.886719 189.933594 136.140625 188.199219 135.714844 186.535156 C 135.714844 186.535156 135.714844 186.535156 135.714844 186.527344 C 135.296875 184.863281 134.25 183.457031 132.773438 182.578125 C 131.761719 181.984375 130.632812 181.667969 129.480469 181.667969 Z M 129.480469 181.667969 "/>
<path style=" stroke:none;fill-rule:nonzero;fill:rgb(75.289917%,81.568909%,47.059631%);fill-opacity:1;" d="M 224.476562 156.164062 C 223.953125 156.164062 223.4375 156.214844 222.921875 156.3125 C 222.410156 156.414062 221.914062 156.566406 221.429688 156.765625 C 220.949219 156.964844 220.488281 157.207031 220.054688 157.5 C 219.621094 157.789062 219.21875 158.117188 218.847656 158.484375 C 218.480469 158.855469 218.148438 159.257812 217.859375 159.691406 C 217.570312 160.125 217.324219 160.582031 217.125 161.0625 C 216.921875 161.546875 216.773438 162.042969 216.671875 162.554688 C 216.570312 163.066406 216.519531 163.582031 216.519531 164.105469 C 216.519531 164.628906 216.570312 165.144531 216.671875 165.65625 C 216.773438 166.167969 216.921875 166.664062 217.125 167.148438 C 217.324219 167.628906 217.570312 168.089844 217.859375 168.523438 C 218.148438 168.957031 218.480469 169.355469 218.847656 169.726562 C 219.21875 170.09375 219.621094 170.425781 220.054688 170.714844 C 220.488281 171.003906 220.949219 171.246094 221.429688 171.445312 C 221.914062 171.644531 222.410156 171.796875 222.921875 171.898438 C 223.4375 172 223.953125 172.050781 224.476562 172.046875 C 224.996094 172.050781 225.515625 172 226.027344 171.898438 C 226.539062 171.796875 227.039062 171.644531 227.519531 171.445312 C 228.003906 171.246094 228.460938 171.003906 228.894531 170.714844 C 229.332031 170.425781 229.730469 170.09375 230.101562 169.726562 C 230.472656 169.355469 230.800781 168.957031 231.089844 168.523438 C 231.382812 168.089844 231.628906 167.628906 231.828125 167.148438 C 232.027344 166.664062 232.179688 166.167969 232.28125 165.65625 C 232.382812 165.144531 232.433594 164.628906 232.433594 164.105469 C 232.433594 163.582031 232.382812 163.066406 232.28125 162.554688 C 232.179688 162.042969 232.027344 161.546875 231.828125 161.0625 C 231.628906 160.582031 231.382812 160.125 231.089844 159.691406 C 230.800781 159.257812 230.472656 158.855469 230.101562 158.484375 C 229.730469 158.117188 229.332031 157.789062 228.894531 157.5 C 228.460938 157.207031 228.003906 156.964844 227.519531 156.765625 C 227.039062 156.566406 226.539062 156.414062 226.027344 156.3125 C 225.515625 156.214844 224.996094 156.164062 224.476562 156.164062 Z M 224.476562 156.164062 "/>
<path style=" stroke:none;fill-rule:nonzero;fill:rgb(27.839661%,16.859436%,16.079712%);fill-opacity:1;" d="M 224.480469 173.539062 C 220.257812 173.539062 216.398438 170.6875 215.3125 166.417969 C 214.039062 161.359375 217.109375 156.21875 222.152344 154.941406 C 227.199219 153.6875 232.347656 156.734375 233.632812 161.78125 C 234.90625 166.824219 231.839844 171.972656 226.792969 173.253906 C 226.019531 173.441406 225.242188 173.539062 224.480469 173.539062 Z M 224.46875 157.65625 C 223.945312 157.65625 223.410156 157.71875 222.882812 157.855469 C 219.441406 158.722656 217.347656 162.230469 218.214844 165.675781 C 219.085938 169.113281 222.613281 171.21875 226.042969 170.335938 C 229.484375 169.46875 231.578125 165.953125 230.710938 162.519531 C 229.980469 159.597656 227.347656 157.65625 224.46875 157.65625 Z M 224.46875 157.65625 "/>
<path style=" stroke:none;fill-rule:nonzero;fill:rgb(98.429871%,80.389404%,34.899902%);fill-opacity:1;" d="M 287.328125 175.046875 C 286.382812 175.046875 285.4375 175.09375 284.496094 175.1875 C 283.554688 175.28125 282.617188 175.417969 281.6875 175.601562 C 280.757812 175.789062 279.839844 176.019531 278.933594 176.292969 C 278.027344 176.566406 277.136719 176.886719 276.261719 177.25 C 275.386719 177.609375 274.53125 178.015625 273.699219 178.460938 C 272.863281 178.910156 272.050781 179.394531 271.261719 179.921875 C 270.476562 180.445312 269.714844 181.011719 268.984375 181.613281 C 268.253906 182.210938 267.550781 182.847656 266.882812 183.515625 C 266.210938 184.1875 265.578125 184.886719 264.976562 185.621094 C 264.375 186.351562 263.8125 187.113281 263.285156 187.898438 C 262.757812 188.6875 262.273438 189.5 261.824219 190.332031 C 261.378906 191.167969 260.976562 192.023438 260.613281 192.898438 C 260.25 193.773438 259.929688 194.664062 259.65625 195.570312 C 259.382812 196.476562 259.152344 197.394531 258.96875 198.324219 C 258.78125 199.253906 258.644531 200.1875 258.550781 201.132812 C 258.457031 202.074219 258.410156 203.019531 258.410156 203.964844 C 258.410156 204.914062 258.457031 205.859375 258.550781 206.800781 C 258.644531 207.742188 258.78125 208.679688 258.96875 209.609375 C 259.152344 210.535156 259.382812 211.453125 259.65625 212.359375 C 259.929688 213.265625 260.25 214.15625 260.613281 215.03125 C 260.976562 215.90625 261.378906 216.761719 261.824219 217.597656 C 262.273438 218.433594 262.757812 219.246094 263.285156 220.03125 C 263.8125 220.820312 264.375 221.578125 264.976562 222.3125 C 265.578125 223.042969 266.210938 223.746094 266.882812 224.414062 C 267.550781 225.082031 268.253906 225.71875 268.984375 226.320312 C 269.714844 226.921875 270.476562 227.484375 271.261719 228.011719 C 272.050781 228.535156 272.863281 229.023438 273.699219 229.46875 C 274.53125 229.917969 275.386719 230.320312 276.261719 230.683594 C 277.136719 231.046875 278.027344 231.363281 278.933594 231.640625 C 279.839844 231.914062 280.757812 232.144531 281.6875 232.328125 C 282.617188 232.511719 283.554688 232.652344 284.496094 232.746094 C 285.4375 232.835938 286.382812 232.882812 287.328125 232.882812 C 288.277344 232.882812 289.222656 232.835938 290.164062 232.746094 C 291.105469 232.652344 292.042969 232.511719 292.972656 232.328125 C 293.902344 232.144531 294.816406 231.914062 295.722656 231.640625 C 296.628906 231.363281 297.519531 231.046875 298.394531 230.683594 C 299.273438 230.320312 300.125 229.917969 300.960938 229.46875 C 301.796875 229.023438 302.609375 228.535156 303.394531 228.011719 C 304.183594 227.484375 304.945312 226.921875 305.675781 226.320312 C 306.40625 225.71875 307.109375 225.082031 307.777344 224.414062 C 308.449219 223.746094 309.082031 223.042969 309.683594 222.3125 C 310.285156 221.578125 310.847656 220.820312 311.375 220.03125 C 311.902344 219.246094 312.386719 218.433594 312.832031 217.597656 C 313.28125 216.761719 313.683594 215.90625 314.046875 215.03125 C 314.410156 214.15625 314.726562 213.265625 315.003906 212.359375 C 315.277344 211.453125 315.507812 210.535156 315.691406 209.609375 C 315.878906 208.679688 316.015625 207.742188 316.109375 206.800781 C 316.203125 205.859375 316.25 204.914062 316.25 203.964844 C 316.25 203.019531 316.203125 202.074219 316.109375 201.132812 C 316.015625 200.1875 315.878906 199.253906 315.691406 198.324219 C 315.507812 197.394531 315.277344 196.476562 315.003906 195.570312 C 314.726562 194.664062 314.410156 193.773438 314.046875 192.898438 C 313.683594 192.023438 313.28125 191.167969 312.832031 190.332031 C 312.386719 189.5 311.902344 188.6875 311.375 187.898438 C 310.847656 187.113281 310.285156 186.351562 309.683594 185.621094 C 309.082031 184.886719 308.449219 184.1875 307.777344 183.515625 C 307.109375 182.847656 306.40625 182.210938 305.675781 181.613281 C 304.945312 181.011719 304.183594 180.445312 303.394531 179.921875 C 302.609375 179.394531 301.796875 178.910156 300.960938 178.460938 C 300.125 178.015625 299.273438 177.609375 298.394531 177.25 C 297.519531 176.886719 296.628906 176.566406 295.722656 176.292969 C 294.816406 176.019531 293.902344 175.789062 292.972656 175.601562 C 292.042969 175.417969 291.105469 175.28125 290.164062 175.1875 C 289.222656 175.09375 288.277344 175.046875 287.328125 175.046875 Z M 287.328125 175.046875 "/>
<path style=" stroke:none;fill-rule:nonzero;fill:rgb(27.839661%,16.859436%,16.079712%);fill-opacity:1;" d="M 287.328125 235.199219 C 270.105469 235.199219 256.097656 221.191406 256.097656 203.96875 C 256.097656 186.746094 270.105469 172.738281 287.328125 172.738281 C 304.554688 172.738281 318.558594 186.746094 318.558594 203.96875 C 318.558594 221.191406 304.554688 235.199219 287.328125 235.199219 Z M 287.328125 177.363281 C 272.660156 177.363281 260.726562 189.292969 260.726562 203.964844 C 260.726562 218.628906 272.65625 230.566406 287.328125 230.566406 C 301.992188 230.566406 313.929688 218.632812 313.929688 203.964844 C 313.925781 189.296875 301.992188 177.363281 287.328125 177.363281 Z M 287.328125 177.363281 "/>
<path style=" stroke:none;fill-rule:nonzero;fill:rgb(94.509888%,73.728943%,9.799194%);fill-opacity:1;" d="M 287.328125 185.054688 C 286.710938 185.054688 286.09375 185.085938 285.476562 185.148438 C 284.859375 185.207031 284.25 185.296875 283.640625 185.417969 C 283.035156 185.539062 282.433594 185.691406 281.839844 185.871094 C 281.246094 186.050781 280.664062 186.257812 280.09375 186.496094 C 279.519531 186.730469 278.960938 186.996094 278.414062 187.289062 C 277.871094 187.582031 277.339844 187.898438 276.824219 188.242188 C 276.308594 188.585938 275.8125 188.957031 275.332031 189.347656 C 274.855469 189.742188 274.398438 190.15625 273.957031 190.59375 C 273.519531 191.03125 273.105469 191.492188 272.710938 191.96875 C 272.320312 192.449219 271.949219 192.945312 271.605469 193.460938 C 271.261719 193.976562 270.945312 194.503906 270.652344 195.050781 C 270.359375 195.597656 270.097656 196.15625 269.859375 196.730469 C 269.621094 197.300781 269.414062 197.882812 269.234375 198.476562 C 269.054688 199.070312 268.902344 199.667969 268.785156 200.277344 C 268.664062 200.882812 268.570312 201.496094 268.511719 202.113281 C 268.449219 202.730469 268.421875 203.347656 268.421875 203.964844 C 268.421875 204.585938 268.449219 205.203125 268.511719 205.820312 C 268.570312 206.4375 268.664062 207.046875 268.785156 207.65625 C 268.902344 208.261719 269.054688 208.863281 269.234375 209.453125 C 269.414062 210.046875 269.621094 210.628906 269.859375 211.203125 C 270.097656 211.773438 270.359375 212.332031 270.652344 212.878906 C 270.945312 213.425781 271.261719 213.957031 271.605469 214.472656 C 271.949219 214.988281 272.320312 215.484375 272.710938 215.960938 C 273.105469 216.441406 273.519531 216.898438 273.957031 217.335938 C 274.398438 217.773438 274.855469 218.191406 275.332031 218.582031 C 275.8125 218.976562 276.308594 219.34375 276.824219 219.6875 C 277.339844 220.03125 277.871094 220.351562 278.414062 220.644531 C 278.960938 220.933594 279.519531 221.199219 280.09375 221.4375 C 280.664062 221.671875 281.246094 221.882812 281.839844 222.0625 C 282.433594 222.242188 283.035156 222.390625 283.640625 222.511719 C 284.25 222.632812 284.859375 222.722656 285.476562 222.785156 C 286.09375 222.84375 286.710938 222.875 287.328125 222.875 C 287.949219 222.875 288.566406 222.84375 289.183594 222.785156 C 289.800781 222.722656 290.410156 222.632812 291.019531 222.511719 C 291.625 222.390625 292.226562 222.242188 292.820312 222.0625 C 293.410156 221.882812 293.996094 221.671875 294.566406 221.4375 C 295.136719 221.199219 295.699219 220.933594 296.242188 220.644531 C 296.789062 220.351562 297.320312 220.03125 297.835938 219.6875 C 298.351562 219.34375 298.847656 218.976562 299.328125 218.582031 C 299.804688 218.191406 300.261719 217.773438 300.703125 217.335938 C 301.140625 216.898438 301.554688 216.441406 301.949219 215.960938 C 302.339844 215.484375 302.707031 214.988281 303.054688 214.472656 C 303.398438 213.957031 303.714844 213.425781 304.007812 212.878906 C 304.300781 212.332031 304.5625 211.773438 304.800781 211.203125 C 305.039062 210.628906 305.246094 210.046875 305.425781 209.453125 C 305.605469 208.863281 305.753906 208.261719 305.875 207.65625 C 305.996094 207.046875 306.089844 206.4375 306.148438 205.820312 C 306.210938 205.203125 306.238281 204.585938 306.238281 203.964844 C 306.238281 203.347656 306.210938 202.730469 306.148438 202.113281 C 306.089844 201.496094 305.996094 200.882812 305.875 200.277344 C 305.753906 199.667969 305.605469 199.070312 305.425781 198.476562 C 305.246094 197.882812 305.039062 197.300781 304.800781 196.730469 C 304.5625 196.15625 304.300781 195.597656 304.007812 195.050781 C 303.714844 194.503906 303.398438 193.976562 303.054688 193.460938 C 302.707031 192.945312 302.339844 192.449219 301.949219 191.96875 C 301.554688 191.492188 301.140625 191.03125 300.703125 190.59375 C 300.261719 190.15625 299.804688 189.742188 299.328125 189.347656 C 298.847656 188.957031 298.351562 188.585938 297.835938 188.242188 C 297.320312 187.898438 296.789062 187.582031 296.242188 187.289062 C 295.699219 186.996094 295.136719 186.730469 294.566406 186.496094 C 293.996094 186.257812 293.410156 186.050781 292.820312 185.871094 C 292.226562 185.691406 291.625 185.539062 291.019531 185.417969 C 290.410156 185.296875 289.800781 185.207031 289.183594 185.148438 C 288.566406 185.085938 287.949219 185.054688 287.328125 185.054688 Z M 287.328125 185.054688 "/>
<path style=" stroke:none;fill-rule:nonzero;fill:rgb(27.839661%,16.859436%,16.079712%);fill-opacity:1;" d="M 287.328125 224.027344 C 276.261719 224.027344 267.265625 215.023438 267.265625 203.964844 C 267.265625 192.898438 276.265625 183.902344 287.328125 183.902344 C 298.394531 183.902344 307.394531 192.902344 307.394531 203.964844 C 307.394531 215.023438 298.394531 224.027344 287.328125 224.027344 Z M 287.328125 186.214844 C 277.542969 186.214844 269.578125 194.179688 269.578125 203.964844 C 269.578125 213.746094 277.542969 221.710938 287.328125 221.710938 C 297.117188 221.710938 305.082031 213.746094 305.082031 203.964844 C 305.082031 194.179688 297.117188 186.214844 287.328125 186.214844 Z M 287.328125 186.214844 "/>
<path style=" stroke:none;fill-rule:nonzero;fill:rgb(98.429871%,80.389404%,34.899902%);fill-opacity:1;" d="M 240.8125 208.285156 C 239.867188 208.285156 238.921875 208.332031 237.980469 208.425781 C 237.035156 208.519531 236.101562 208.65625 235.171875 208.839844 C 234.242188 209.027344 233.324219 209.257812 232.417969 209.53125 C 231.511719 209.804688 230.621094 210.125 229.746094 210.488281 C 228.871094 210.847656 228.015625 211.253906 227.179688 211.699219 C 226.347656 212.148438 225.535156 212.632812 224.746094 213.160156 C 223.960938 213.683594 223.199219 214.25 222.46875 214.851562 C 221.734375 215.449219 221.035156 216.085938 220.363281 216.753906 C 219.695312 217.425781 219.058594 218.125 218.460938 218.859375 C 217.859375 219.589844 217.292969 220.351562 216.769531 221.136719 C 216.242188 221.925781 215.757812 222.738281 215.308594 223.570312 C 214.863281 224.40625 214.457031 225.261719 214.097656 226.136719 C 213.734375 227.011719 213.414062 227.902344 213.140625 228.808594 C 212.867188 229.714844 212.636719 230.632812 212.449219 231.5625 C 212.265625 232.492188 212.128906 233.425781 212.035156 234.371094 C 211.941406 235.3125 211.894531 236.257812 211.894531 237.203125 C 211.894531 238.152344 211.941406 239.097656 212.035156 240.039062 C 212.128906 240.980469 212.265625 241.917969 212.449219 242.847656 C 212.636719 243.773438 212.867188 244.691406 213.140625 245.597656 C 213.414062 246.503906 213.734375 247.394531 214.097656 248.269531 C 214.457031 249.144531 214.863281 250 215.308594 250.835938 C 215.757812 251.671875 216.242188 252.484375 216.769531 253.269531 C 217.292969 254.058594 217.859375 254.816406 218.460938 255.550781 C 219.058594 256.28125 219.695312 256.984375 220.363281 257.652344 C 221.035156 258.324219 221.734375 258.957031 222.46875 259.558594 C 223.199219 260.160156 223.960938 260.722656 224.746094 261.25 C 225.535156 261.773438 226.347656 262.261719 227.179688 262.707031 C 228.015625 263.15625 228.871094 263.558594 229.746094 263.921875 C 230.621094 264.285156 231.511719 264.601562 232.417969 264.878906 C 233.324219 265.152344 234.242188 265.382812 235.171875 265.566406 C 236.101562 265.75 237.035156 265.890625 237.980469 265.984375 C 238.921875 266.078125 239.867188 266.121094 240.8125 266.121094 C 241.761719 266.121094 242.707031 266.078125 243.648438 265.984375 C 244.589844 265.890625 245.527344 265.75 246.457031 265.566406 C 247.382812 265.382812 248.300781 265.152344 249.207031 264.878906 C 250.113281 264.601562 251.003906 264.285156 251.878906 263.921875 C 252.753906 263.558594 253.609375 263.15625 254.445312 262.707031 C 255.28125 262.261719 256.09375 261.773438 256.878906 261.25 C 257.667969 260.722656 258.425781 260.160156 259.160156 259.558594 C 259.890625 258.957031 260.59375 258.324219 261.261719 257.652344 C 261.933594 256.984375 262.566406 256.28125 263.167969 255.550781 C 263.769531 254.816406 264.332031 254.058594 264.859375 253.269531 C 265.382812 252.484375 265.871094 251.671875 266.316406 250.835938 C 266.765625 250 267.167969 249.144531 267.53125 248.269531 C 267.894531 247.394531 268.210938 246.503906 268.488281 245.597656 C 268.761719 244.691406 268.992188 243.773438 269.175781 242.847656 C 269.359375 241.917969 269.5 240.980469 269.59375 240.039062 C 269.6875 239.097656 269.730469 238.152344 269.730469 237.203125 C 269.730469 236.257812 269.6875 235.3125 269.59375 234.371094 C 269.5 233.425781 269.359375 232.492188 269.175781 231.5625 C 268.992188 230.632812 268.761719 229.714844 268.488281 228.808594 C 268.210938 227.902344 267.894531 227.011719 267.53125 226.136719 C 267.167969 225.261719 266.765625 224.40625 266.316406 223.570312 C 265.871094 222.738281 265.382812 221.925781 264.859375 221.136719 C 264.332031 220.351562 263.769531 219.589844 263.167969 218.859375 C 262.566406 218.125 261.933594 217.425781 261.261719 216.753906 C 260.59375 216.085938 259.890625 215.449219 259.160156 214.851562 C 258.425781 214.25 257.667969 213.683594 256.878906 213.160156 C 256.09375 212.632812 255.28125 212.148438 254.445312 211.699219 C 253.609375 211.253906 252.753906 210.847656 251.878906 210.488281 C 251.003906 210.125 250.113281 209.804688 249.207031 209.53125 C 248.300781 209.257812 247.382812 209.027344 246.457031 208.839844 C 245.527344 208.65625 244.589844 208.519531 243.648438 208.425781 C 242.707031 208.332031 241.761719 208.285156 240.8125 208.285156 Z M 240.8125 208.285156 "/>
<path style=" stroke:none;fill-rule:nonzero;fill:rgb(27.839661%,16.859436%,16.079712%);fill-opacity:1;" d="M 240.8125 270.390625 C 223.589844 270.390625 209.582031 255.941406 209.582031 238.179688 C 209.582031 220.421875 223.589844 205.976562 240.8125 205.976562 C 258.035156 205.976562 272.046875 220.421875 272.046875 238.179688 C 272.046875 255.941406 258.035156 270.390625 240.8125 270.390625 Z M 240.8125 210.609375 C 226.144531 210.609375 214.210938 222.539062 214.210938 237.207031 C 214.210938 251.878906 226.140625 263.8125 240.8125 263.8125 C 255.488281 263.8125 267.417969 251.882812 267.417969 237.207031 C 267.417969 222.539062 255.480469 210.609375 240.8125 210.609375 Z M 240.8125 210.609375 "/>
<path style=" stroke:none;fill-rule:nonzero;fill:rgb(94.509888%,73.728943%,9.799194%);fill-opacity:1;" d="M 240.8125 218.296875 C 240.195312 218.296875 239.578125 218.328125 238.960938 218.390625 C 238.34375 218.449219 237.730469 218.542969 237.125 218.660156 C 236.515625 218.78125 235.917969 218.933594 235.324219 219.113281 C 234.730469 219.292969 234.148438 219.5 233.578125 219.738281 C 233.003906 219.976562 232.445312 220.238281 231.898438 220.53125 C 231.351562 220.824219 230.824219 221.140625 230.308594 221.484375 C 229.792969 221.828125 229.296875 222.199219 228.816406 222.589844 C 228.339844 222.984375 227.878906 223.398438 227.441406 223.835938 C 227.003906 224.273438 226.589844 224.734375 226.195312 225.210938 C 225.804688 225.691406 225.433594 226.1875 225.089844 226.703125 C 224.746094 227.21875 224.429688 227.75 224.136719 228.292969 C 223.84375 228.839844 223.578125 229.398438 223.34375 229.972656 C 223.105469 230.542969 222.898438 231.125 222.71875 231.71875 C 222.539062 232.3125 222.386719 232.910156 222.265625 233.519531 C 222.144531 234.125 222.054688 234.738281 221.996094 235.355469 C 221.933594 235.972656 221.902344 236.589844 221.902344 237.207031 C 221.902344 237.828125 221.933594 238.445312 221.996094 239.0625 C 222.054688 239.679688 222.144531 240.289062 222.265625 240.898438 C 222.386719 241.503906 222.539062 242.105469 222.71875 242.699219 C 222.898438 243.289062 223.105469 243.871094 223.34375 244.445312 C 223.578125 245.015625 223.84375 245.578125 224.136719 246.121094 C 224.429688 246.667969 224.746094 247.199219 225.089844 247.714844 C 225.433594 248.230469 225.804688 248.726562 226.195312 249.203125 C 226.589844 249.683594 227.003906 250.140625 227.441406 250.578125 C 227.878906 251.019531 228.339844 251.433594 228.816406 251.824219 C 229.296875 252.21875 229.792969 252.585938 230.308594 252.929688 C 230.824219 253.277344 231.351562 253.59375 231.898438 253.886719 C 232.445312 254.175781 233.003906 254.441406 233.578125 254.679688 C 234.148438 254.917969 234.730469 255.125 235.324219 255.304688 C 235.917969 255.484375 236.515625 255.632812 237.125 255.753906 C 237.730469 255.875 238.34375 255.964844 238.960938 256.027344 C 239.578125 256.089844 240.195312 256.117188 240.8125 256.117188 C 241.433594 256.117188 242.050781 256.089844 242.667969 256.027344 C 243.285156 255.964844 243.894531 255.875 244.503906 255.753906 C 245.109375 255.632812 245.710938 255.484375 246.304688 255.304688 C 246.894531 255.125 247.476562 254.917969 248.050781 254.679688 C 248.621094 254.441406 249.179688 254.175781 249.726562 253.886719 C 250.273438 253.59375 250.804688 253.277344 251.320312 252.929688 C 251.835938 252.585938 252.332031 252.21875 252.808594 251.824219 C 253.289062 251.433594 253.746094 251.019531 254.183594 250.578125 C 254.621094 250.140625 255.039062 249.683594 255.429688 249.203125 C 255.824219 248.726562 256.191406 248.230469 256.535156 247.714844 C 256.878906 247.199219 257.199219 246.667969 257.492188 246.121094 C 257.78125 245.578125 258.046875 245.015625 258.285156 244.445312 C 258.519531 243.871094 258.730469 243.289062 258.910156 242.699219 C 259.089844 242.105469 259.238281 241.503906 259.359375 240.898438 C 259.480469 240.289062 259.570312 239.679688 259.632812 239.0625 C 259.691406 238.445312 259.722656 237.828125 259.722656 237.207031 C 259.722656 236.589844 259.691406 235.972656 259.632812 235.355469 C 259.570312 234.738281 259.480469 234.125 259.359375 233.519531 C 259.238281 232.910156 259.089844 232.3125 258.910156 231.71875 C 258.730469 231.125 258.519531 230.542969 258.285156 229.972656 C 258.046875 229.398438 257.78125 228.839844 257.492188 228.292969 C 257.199219 227.75 256.878906 227.21875 256.535156 226.703125 C 256.191406 226.1875 255.824219 225.691406 255.429688 225.210938 C 255.039062 224.734375 254.621094 224.273438 254.183594 223.835938 C 253.746094 223.398438 253.289062 222.984375 252.808594 222.589844 C 252.332031 222.199219 251.835938 221.828125 251.320312 221.484375 C 250.804688 221.140625 250.273438 220.824219 249.726562 220.53125 C 249.179688 220.238281 248.621094 219.976562 248.050781 219.738281 C 247.476562 219.5 246.894531 219.292969 246.304688 219.113281 C 245.710938 218.933594 245.109375 218.78125 244.503906 218.660156 C 243.894531 218.542969 243.285156 218.449219 242.667969 218.390625 C 242.050781 218.328125 241.433594 218.296875 240.8125 218.296875 Z M 240.8125 218.296875 "/>
<path style=" stroke:none;fill-rule:nonzero;fill:rgb(27.839661%,16.859436%,16.079712%);fill-opacity:1;" d="M 240.8125 257.269531 C 229.746094 257.269531 220.75 248.269531 220.75 237.203125 C 220.75 226.136719 229.75 217.140625 240.8125 217.140625 C 251.882812 217.140625 260.878906 226.140625 260.878906 237.203125 C 260.878906 248.273438 251.882812 257.269531 240.8125 257.269531 Z M 240.8125 219.453125 C 231.027344 219.453125 223.0625 227.417969 223.0625 237.203125 C 223.0625 246.992188 231.027344 254.953125 240.8125 254.953125 C 250.601562 254.953125 258.5625 246.992188 258.5625 237.203125 C 258.5625 227.417969 250.601562 219.453125 240.8125 219.453125 Z M 240.8125 219.453125 "/>
<path style=" stroke:none;fill-rule:nonzero;fill:rgb(27.839661%,16.859436%,16.079712%);fill-opacity:1;" d="M 238.351562 242.261719 C 238.375 242.261719 238.429688 242.285156 238.507812 242.339844 L 238.464844 242.320312 C 238.84375 242.582031 239.183594 242.789062 239.484375 242.9375 C 239.785156 243.085938 240.101562 243.1875 240.441406 243.253906 L 240.441406 237.167969 L 240.089844 236.972656 C 239.660156 236.738281 239.25 236.488281 238.855469 236.226562 C 238.464844 235.964844 238.109375 235.683594 237.800781 235.363281 C 237.488281 235.054688 237.222656 234.71875 237.007812 234.371094 C 236.792969 234.023438 236.644531 233.632812 236.566406 233.214844 C 236.515625 233.007812 236.484375 232.816406 236.480469 232.628906 C 236.476562 232.441406 236.472656 232.246094 236.472656 232.039062 C 236.472656 231.429688 236.570312 230.886719 236.773438 230.433594 C 236.976562 229.976562 237.257812 229.589844 237.605469 229.269531 C 237.957031 228.953125 238.371094 228.695312 238.855469 228.507812 C 239.339844 228.320312 239.867188 228.195312 240.4375 228.128906 L 240.4375 227.582031 C 240.4375 227.320312 240.5 227.101562 240.613281 226.917969 C 240.730469 226.730469 240.949219 226.640625 241.257812 226.640625 L 241.335938 226.640625 C 242.011719 226.640625 242.386719 226.976562 242.453125 227.636719 L 242.433594 228.164062 C 242.800781 228.230469 243.175781 228.328125 243.558594 228.46875 C 243.945312 228.609375 244.378906 228.777344 244.863281 228.988281 L 244.804688 228.953125 C 245.027344 229.03125 245.199219 229.125 245.324219 229.246094 C 245.453125 229.363281 245.527344 229.550781 245.550781 229.8125 L 245.550781 229.929688 C 245.550781 230.019531 245.53125 230.136719 245.480469 230.28125 C 245.433594 230.425781 245.363281 230.566406 245.277344 230.695312 C 245.1875 230.828125 245.082031 230.941406 244.964844 231.039062 C 244.847656 231.136719 244.714844 231.1875 244.570312 231.1875 C 244.453125 231.1875 244.34375 231.179688 244.25 231.15625 C 244.152344 231.140625 244.035156 231.085938 243.902344 230.992188 L 243.902344 231.011719 L 243.691406 230.890625 C 243.3125 230.695312 242.894531 230.539062 242.441406 230.425781 L 242.441406 235.769531 L 242.519531 235.8125 C 243.574219 236.351562 244.386719 236.941406 244.964844 237.597656 C 245.539062 238.25 245.917969 238.925781 246.097656 239.636719 C 246.175781 239.9375 246.230469 240.210938 246.261719 240.457031 C 246.292969 240.703125 246.316406 240.957031 246.316406 241.21875 C 246.316406 241.820312 246.21875 242.359375 246.019531 242.84375 C 245.820312 243.328125 245.554688 243.746094 245.214844 244.109375 C 244.875 244.464844 244.472656 244.761719 243.992188 244.988281 C 243.515625 245.21875 242.996094 245.375 242.433594 245.449219 L 242.433594 246.851562 C 242.433594 247.113281 242.382812 247.335938 242.277344 247.519531 C 242.179688 247.695312 241.960938 247.792969 241.632812 247.792969 L 241.515625 247.792969 C 241.1875 247.792969 240.925781 247.707031 240.730469 247.527344 C 240.535156 247.351562 240.433594 247.089844 240.433594 246.753906 L 240.433594 245.441406 C 239.726562 245.363281 239.121094 245.207031 238.613281 244.976562 C 238.101562 244.742188 237.578125 244.449219 237.046875 244.097656 C 236.902344 243.976562 236.808594 243.871094 236.75 243.761719 C 236.699219 243.660156 236.636719 243.515625 236.578125 243.328125 L 236.578125 243.210938 C 236.578125 243.09375 236.613281 242.960938 236.679688 242.8125 C 236.75 242.660156 236.839844 242.519531 236.945312 242.382812 C 237.050781 242.242188 237.160156 242.128906 237.28125 242.03125 C 237.398438 241.933594 237.507812 241.882812 237.617188 241.882812 C 237.761719 241.882812 237.886719 241.925781 238 242.011719 C 238.117188 242.09375 238.21875 242.183594 238.320312 242.277344 L 238.351562 242.277344 C 238.375 242.292969 238.398438 242.296875 238.40625 242.296875 Z M 239.351562 233.9375 C 239.660156 234.226562 240.019531 234.480469 240.441406 234.703125 L 240.441406 230.414062 C 239.945312 230.515625 239.535156 230.71875 239.199219 231.019531 C 238.863281 231.320312 238.699219 231.726562 238.699219 232.230469 C 238.699219 232.308594 238.703125 232.390625 238.707031 232.484375 C 238.710938 232.574219 238.730469 232.6875 238.761719 232.820312 C 238.851562 233.277344 239.046875 233.652344 239.351562 233.9375 Z M 243.382812 239.097656 C 243.121094 238.777344 242.804688 238.5 242.441406 238.261719 L 242.441406 243.140625 C 242.894531 242.953125 243.277344 242.679688 243.582031 242.300781 C 243.886719 241.921875 244.039062 241.480469 244.039062 240.96875 C 244.039062 240.828125 244.027344 240.695312 244 240.578125 C 243.972656 240.460938 243.949219 240.339844 243.921875 240.207031 C 243.824219 239.785156 243.636719 239.414062 243.382812 239.097656 Z M 243.382812 239.097656 "/>
<path style=" stroke:none;fill-rule:nonzero;fill:rgb(27.839661%,16.859436%,16.079712%);fill-opacity:1;" d="M 284.289062 209.019531 C 284.3125 209.019531 284.367188 209.042969 284.445312 209.097656 L 284.402344 209.078125 C 284.78125 209.339844 285.121094 209.546875 285.421875 209.695312 C 285.722656 209.84375 286.039062 209.945312 286.378906 210.011719 L 286.378906 203.925781 L 286.027344 203.730469 C 285.59375 203.496094 285.183594 203.246094 284.792969 202.984375 C 284.402344 202.722656 284.046875 202.441406 283.738281 202.121094 C 283.425781 201.8125 283.160156 201.476562 282.945312 201.128906 C 282.730469 200.773438 282.582031 200.390625 282.503906 199.972656 C 282.453125 199.761719 282.421875 199.570312 282.417969 199.382812 C 282.414062 199.195312 282.410156 199.003906 282.410156 198.796875 C 282.410156 198.1875 282.507812 197.644531 282.710938 197.191406 C 282.914062 196.734375 283.191406 196.347656 283.542969 196.027344 C 283.894531 195.710938 284.308594 195.453125 284.792969 195.265625 C 285.277344 195.074219 285.804688 194.949219 286.375 194.886719 L 286.375 194.339844 C 286.375 194.078125 286.4375 193.855469 286.550781 193.675781 C 286.667969 193.488281 286.886719 193.398438 287.195312 193.398438 L 287.273438 193.398438 C 287.949219 193.398438 288.324219 193.734375 288.390625 194.394531 L 288.371094 194.921875 C 288.738281 194.984375 289.113281 195.085938 289.496094 195.226562 C 289.878906 195.367188 290.316406 195.535156 290.800781 195.746094 L 290.742188 195.710938 C 290.964844 195.789062 291.136719 195.882812 291.261719 196 C 291.386719 196.121094 291.460938 196.308594 291.488281 196.570312 L 291.488281 196.6875 C 291.488281 196.777344 291.46875 196.894531 291.417969 197.039062 C 291.371094 197.183594 291.300781 197.324219 291.214844 197.453125 C 291.121094 197.585938 291.019531 197.699219 290.898438 197.796875 C 290.78125 197.894531 290.652344 197.945312 290.507812 197.945312 C 290.390625 197.945312 290.28125 197.9375 290.183594 197.914062 C 290.089844 197.898438 289.972656 197.839844 289.839844 197.75 L 289.839844 197.765625 L 289.628906 197.648438 C 289.25 197.453125 288.828125 197.296875 288.375 197.183594 L 288.375 202.527344 L 288.453125 202.570312 C 289.507812 203.105469 290.324219 203.699219 290.898438 204.355469 C 291.476562 205.007812 291.855469 205.683594 292.035156 206.394531 C 292.113281 206.695312 292.167969 206.96875 292.199219 207.214844 C 292.230469 207.460938 292.25 207.714844 292.25 207.976562 C 292.25 208.578125 292.15625 209.117188 291.957031 209.601562 C 291.757812 210.085938 291.492188 210.503906 291.152344 210.867188 C 290.8125 211.222656 290.40625 211.519531 289.929688 211.746094 C 289.453125 211.976562 288.933594 212.128906 288.371094 212.203125 L 288.371094 213.613281 C 288.371094 213.875 288.320312 214.097656 288.214844 214.28125 C 288.113281 214.457031 287.898438 214.554688 287.570312 214.554688 L 287.453125 214.554688 C 287.125 214.554688 286.863281 214.46875 286.667969 214.289062 C 286.472656 214.113281 286.371094 213.851562 286.371094 213.515625 L 286.371094 212.203125 C 285.664062 212.125 285.058594 211.96875 284.550781 211.738281 C 284.039062 211.503906 283.515625 211.210938 282.984375 210.859375 C 282.839844 210.738281 282.746094 210.632812 282.6875 210.523438 C 282.636719 210.421875 282.574219 210.277344 282.511719 210.089844 L 282.511719 209.957031 C 282.511719 209.835938 282.550781 209.707031 282.617188 209.558594 C 282.6875 209.40625 282.773438 209.261719 282.882812 209.128906 C 282.988281 208.988281 283.097656 208.875 283.21875 208.773438 C 283.335938 208.679688 283.445312 208.625 283.554688 208.625 C 283.699219 208.625 283.824219 208.667969 283.9375 208.757812 C 284.050781 208.839844 284.15625 208.925781 284.257812 209.023438 L 284.289062 209.023438 C 284.3125 209.035156 284.335938 209.039062 284.34375 209.039062 Z M 285.289062 200.695312 C 285.59375 200.984375 285.957031 201.238281 286.378906 201.460938 L 286.378906 197.167969 C 285.882812 197.273438 285.472656 197.476562 285.136719 197.777344 C 284.800781 198.078125 284.636719 198.480469 284.636719 198.988281 C 284.636719 199.066406 284.640625 199.148438 284.644531 199.242188 C 284.648438 199.332031 284.667969 199.445312 284.695312 199.574219 C 284.789062 200.039062 284.984375 200.410156 285.289062 200.695312 Z M 289.316406 205.859375 C 289.054688 205.539062 288.742188 205.261719 288.375 205.023438 L 288.375 209.902344 C 288.828125 209.714844 289.214844 209.441406 289.519531 209.0625 C 289.824219 208.683594 289.976562 208.242188 289.976562 207.730469 C 289.976562 207.589844 289.960938 207.457031 289.9375 207.339844 C 289.910156 207.222656 289.882812 207.101562 289.859375 206.96875 C 289.761719 206.546875 289.574219 206.175781 289.316406 205.859375 Z M 289.316406 205.859375 "/>
</g>
</svg>
