<?xml version="1.0" encoding="UTF-8"?>
<svg xmlns="http://www.w3.org/2000/svg" xmlns:xlink="http://www.w3.org/1999/xlink" width="375pt" height="374.999991pt" viewBox="0 0 375 374.999991" version="1.2">
<defs>
<clipPath id="clip1">
  <path d="M 340 65 L 357.894531 65 L 357.894531 83 L 340 83 Z M 340 65 "/>
</clipPath>
<clipPath id="clip2">
  <path d="M 69 339 L 88 339 L 88 357.894531 L 69 357.894531 Z M 69 339 "/>
</clipPath>
</defs>
<g id="surface1">
<path style=" stroke:none;fill-rule:nonzero;fill:rgb(93.328857%,24.308777%,32.939148%);fill-opacity:1;" d="M 26.378906 87.152344 C 25.808594 87.152344 25.242188 87.207031 24.679688 87.316406 C 24.121094 87.429688 23.574219 87.59375 23.046875 87.8125 C 22.519531 88.03125 22.015625 88.300781 21.539062 88.617188 C 21.0625 88.9375 20.625 89.296875 20.21875 89.703125 C 19.816406 90.105469 19.453125 90.546875 19.136719 91.023438 C 18.820312 91.5 18.550781 92 18.332031 92.527344 C 18.113281 93.058594 17.945312 93.601562 17.835938 94.164062 C 17.722656 94.726562 17.667969 95.292969 17.667969 95.863281 C 17.667969 96.433594 17.722656 97.003906 17.835938 97.5625 C 17.945312 98.125 18.113281 98.667969 18.332031 99.199219 C 18.550781 99.726562 18.820312 100.226562 19.136719 100.703125 C 19.453125 101.179688 19.816406 101.621094 20.21875 102.023438 C 20.625 102.429688 21.0625 102.789062 21.539062 103.109375 C 22.015625 103.425781 22.519531 103.695312 23.046875 103.914062 C 23.574219 104.132812 24.121094 104.296875 24.679688 104.410156 C 25.242188 104.519531 25.808594 104.574219 26.378906 104.574219 C 26.953125 104.574219 27.519531 104.519531 28.082031 104.410156 C 28.640625 104.296875 29.1875 104.132812 29.714844 103.914062 C 30.242188 103.695312 30.746094 103.425781 31.222656 103.109375 C 31.695312 102.789062 32.136719 102.429688 32.542969 102.023438 C 32.945312 101.621094 33.308594 101.179688 33.625 100.703125 C 33.941406 100.226562 34.210938 99.726562 34.429688 99.199219 C 34.648438 98.667969 34.8125 98.125 34.925781 97.5625 C 35.039062 97.003906 35.09375 96.433594 35.09375 95.863281 C 35.09375 95.292969 35.039062 94.726562 34.925781 94.164062 C 34.8125 93.601562 34.648438 93.058594 34.429688 92.527344 C 34.210938 92 33.941406 91.5 33.625 91.023438 C 33.308594 90.546875 32.945312 90.105469 32.542969 89.703125 C 32.136719 89.296875 31.695312 88.9375 31.222656 88.617188 C 30.746094 88.300781 30.242188 88.03125 29.714844 87.8125 C 29.1875 87.59375 28.640625 87.429688 28.082031 87.316406 C 27.519531 87.207031 26.953125 87.152344 26.378906 87.152344 Z M 26.378906 87.152344 "/>
<path style=" stroke:none;fill-rule:nonzero;fill:rgb(94.509888%,73.728943%,9.799194%);fill-opacity:1;" d="M 305.183594 21.804688 C 304.898438 21.804688 304.613281 21.835938 304.332031 21.890625 C 304.054688 21.945312 303.78125 22.027344 303.515625 22.136719 C 303.25 22.246094 303 22.382812 302.761719 22.539062 C 302.523438 22.699219 302.304688 22.878906 302.101562 23.082031 C 301.902344 23.285156 301.71875 23.503906 301.5625 23.742188 C 301.402344 23.980469 301.269531 24.230469 301.160156 24.496094 C 301.050781 24.761719 300.964844 25.03125 300.910156 25.3125 C 300.855469 25.59375 300.828125 25.875 300.828125 26.164062 C 300.828125 26.449219 300.855469 26.730469 300.910156 27.011719 C 300.964844 27.292969 301.050781 27.566406 301.160156 27.828125 C 301.269531 28.09375 301.402344 28.34375 301.5625 28.582031 C 301.71875 28.820312 301.902344 29.039062 302.101562 29.242188 C 302.304688 29.445312 302.523438 29.625 302.761719 29.785156 C 303 29.945312 303.25 30.078125 303.515625 30.1875 C 303.78125 30.296875 304.054688 30.378906 304.332031 30.433594 C 304.613281 30.492188 304.898438 30.519531 305.183594 30.519531 C 305.46875 30.519531 305.753906 30.492188 306.03125 30.433594 C 306.3125 30.378906 306.585938 30.296875 306.851562 30.1875 C 307.113281 30.078125 307.367188 29.945312 307.601562 29.785156 C 307.839844 29.625 308.0625 29.445312 308.261719 29.242188 C 308.464844 29.039062 308.644531 28.820312 308.804688 28.582031 C 308.964844 28.34375 309.097656 28.09375 309.207031 27.828125 C 309.316406 27.566406 309.398438 27.292969 309.457031 27.011719 C 309.511719 26.730469 309.539062 26.449219 309.539062 26.164062 C 309.539062 25.875 309.511719 25.59375 309.457031 25.3125 C 309.398438 25.03125 309.316406 24.761719 309.207031 24.496094 C 309.097656 24.230469 308.964844 23.980469 308.804688 23.742188 C 308.644531 23.503906 308.464844 23.285156 308.261719 23.082031 C 308.0625 22.878906 307.839844 22.699219 307.601562 22.539062 C 307.367188 22.382812 307.113281 22.246094 306.851562 22.136719 C 306.585938 22.027344 306.3125 21.945312 306.03125 21.890625 C 305.753906 21.835938 305.46875 21.804688 305.183594 21.804688 Z M 305.183594 21.804688 "/>
<path style=" stroke:none;fill-rule:nonzero;fill:rgb(98.81897%,87.838745%,63.529968%);fill-opacity:1;" d="M 187.5625 26.164062 C 184.925781 26.164062 182.289062 26.226562 179.65625 26.355469 C 177.019531 26.484375 174.390625 26.679688 171.765625 26.9375 C 169.140625 27.199219 166.523438 27.519531 163.914062 27.90625 C 161.304688 28.292969 158.707031 28.746094 156.117188 29.261719 C 153.53125 29.773438 150.957031 30.351562 148.398438 30.992188 C 145.839844 31.632812 143.296875 32.335938 140.773438 33.101562 C 138.25 33.867188 135.746094 34.695312 133.261719 35.585938 C 130.777344 36.472656 128.320312 37.421875 125.882812 38.433594 C 123.445312 39.441406 121.035156 40.511719 118.648438 41.636719 C 116.265625 42.765625 113.910156 43.953125 111.582031 45.195312 C 109.253906 46.4375 106.960938 47.738281 104.699219 49.09375 C 102.4375 50.449219 100.207031 51.863281 98.015625 53.328125 C 95.820312 54.792969 93.664062 56.3125 91.546875 57.882812 C 89.429688 59.453125 87.347656 61.074219 85.308594 62.75 C 83.269531 64.421875 81.273438 66.144531 79.320312 67.917969 C 77.363281 69.6875 75.457031 71.507812 73.589844 73.371094 C 71.722656 75.238281 69.90625 77.148438 68.132812 79.101562 C 66.363281 81.054688 64.640625 83.054688 62.96875 85.09375 C 61.292969 87.132812 59.671875 89.210938 58.101562 91.328125 C 56.527344 93.449219 55.011719 95.605469 53.542969 97.796875 C 52.078125 99.992188 50.667969 102.21875 49.3125 104.480469 C 47.957031 106.742188 46.65625 109.039062 45.414062 111.363281 C 44.167969 113.691406 42.984375 116.046875 41.855469 118.429688 C 40.726562 120.816406 39.660156 123.226562 38.648438 125.664062 C 37.640625 128.101562 36.691406 130.5625 35.800781 133.042969 C 34.914062 135.527344 34.085938 138.03125 33.320312 140.554688 C 32.554688 143.082031 31.851562 145.621094 31.210938 148.179688 C 30.570312 150.738281 29.992188 153.3125 29.476562 155.898438 C 28.964844 158.488281 28.511719 161.085938 28.125 163.695312 C 27.738281 166.304688 27.414062 168.921875 27.15625 171.546875 C 26.898438 174.171875 26.703125 176.800781 26.574219 179.4375 C 26.445312 182.070312 26.378906 184.707031 26.378906 187.34375 C 26.378906 189.984375 26.445312 192.621094 26.574219 195.253906 C 26.703125 197.890625 26.898438 200.519531 27.15625 203.144531 C 27.414062 205.769531 27.738281 208.386719 28.125 210.996094 C 28.511719 213.605469 28.964844 216.203125 29.476562 218.789062 C 29.992188 221.378906 30.570312 223.949219 31.210938 226.507812 C 31.851562 229.070312 32.554688 231.609375 33.320312 234.132812 C 34.085938 236.660156 34.914062 239.164062 35.800781 241.644531 C 36.691406 244.128906 37.640625 246.589844 38.648438 249.027344 C 39.660156 251.464844 40.726562 253.875 41.855469 256.261719 C 42.984375 258.644531 44.167969 261 45.414062 263.328125 C 46.65625 265.652344 47.957031 267.949219 49.3125 270.210938 C 50.667969 272.472656 52.078125 274.699219 53.542969 276.894531 C 55.011719 279.085938 56.527344 281.242188 58.101562 283.363281 C 59.671875 285.480469 61.292969 287.558594 62.96875 289.597656 C 64.640625 291.636719 66.363281 293.632812 68.132812 295.589844 C 69.90625 297.542969 71.722656 299.453125 73.589844 301.320312 C 75.457031 303.183594 77.363281 305.003906 79.320312 306.773438 C 81.273438 308.546875 83.269531 310.269531 85.308594 311.941406 C 87.347656 313.613281 89.429688 315.238281 91.546875 316.808594 C 93.664062 318.378906 95.820312 319.898438 98.015625 321.363281 C 100.207031 322.828125 102.4375 324.242188 104.699219 325.597656 C 106.960938 326.953125 109.253906 328.253906 111.582031 329.496094 C 113.910156 330.738281 116.265625 331.925781 118.648438 333.054688 C 121.035156 334.179688 123.445312 335.25 125.882812 336.257812 C 128.320312 337.269531 130.777344 338.21875 133.261719 339.105469 C 135.746094 339.996094 138.25 340.820312 140.773438 341.585938 C 143.296875 342.355469 145.839844 343.058594 148.398438 343.699219 C 150.957031 344.339844 153.53125 344.917969 156.117188 345.429688 C 158.707031 345.945312 161.304688 346.398438 163.914062 346.785156 C 166.523438 347.171875 169.140625 347.492188 171.765625 347.753906 C 174.390625 348.011719 177.019531 348.203125 179.65625 348.335938 C 182.289062 348.464844 184.925781 348.527344 187.5625 348.527344 C 190.203125 348.527344 192.835938 348.464844 195.472656 348.335938 C 198.105469 348.203125 200.738281 348.011719 203.363281 347.753906 C 205.988281 347.492188 208.605469 347.171875 211.214844 346.785156 C 213.824219 346.398438 216.421875 345.945312 219.007812 345.429688 C 221.59375 344.917969 224.167969 344.339844 226.726562 343.699219 C 229.285156 343.058594 231.828125 342.355469 234.351562 341.585938 C 236.875 340.820312 239.378906 339.996094 241.863281 339.105469 C 244.347656 338.21875 246.808594 337.269531 249.246094 336.257812 C 251.683594 335.25 254.09375 334.179688 256.476562 333.054688 C 258.863281 331.925781 261.21875 330.738281 263.542969 329.496094 C 265.871094 328.253906 268.164062 326.953125 270.429688 325.597656 C 272.691406 324.242188 274.917969 322.828125 277.113281 321.363281 C 279.304688 319.898438 281.460938 318.378906 283.578125 316.808594 C 285.699219 315.238281 287.777344 313.613281 289.816406 311.941406 C 291.855469 310.269531 293.851562 308.546875 295.808594 306.773438 C 297.761719 305.003906 299.671875 303.183594 301.535156 301.320312 C 303.402344 299.453125 305.21875 297.542969 306.992188 295.589844 C 308.761719 293.632812 310.484375 291.636719 312.160156 289.597656 C 313.832031 287.558594 315.457031 285.480469 317.027344 283.363281 C 318.597656 281.242188 320.117188 279.085938 321.582031 276.894531 C 323.046875 274.699219 324.457031 272.472656 325.8125 270.210938 C 327.171875 267.949219 328.46875 265.652344 329.714844 263.328125 C 330.957031 261 332.144531 258.644531 333.269531 256.261719 C 334.398438 253.875 335.46875 251.464844 336.476562 249.027344 C 337.484375 246.589844 338.433594 244.128906 339.324219 241.644531 C 340.210938 239.164062 341.039062 236.660156 341.804688 234.132812 C 342.570312 231.609375 343.273438 229.070312 343.914062 226.507812 C 344.554688 223.949219 345.132812 221.378906 345.648438 218.789062 C 346.164062 216.203125 346.613281 213.605469 347 210.996094 C 347.386719 208.386719 347.710938 205.769531 347.96875 203.144531 C 348.230469 200.519531 348.421875 197.890625 348.550781 195.253906 C 348.679688 192.621094 348.746094 189.984375 348.746094 187.34375 C 348.746094 184.707031 348.679688 182.070312 348.550781 179.4375 C 348.421875 176.800781 348.230469 174.171875 347.96875 171.546875 C 347.710938 168.921875 347.386719 166.304688 347 163.695312 C 346.613281 161.085938 346.164062 158.488281 345.648438 155.898438 C 345.132812 153.3125 344.554688 150.738281 343.914062 148.179688 C 343.273438 145.621094 342.570312 143.082031 341.804688 140.554688 C 341.039062 138.03125 340.210938 135.527344 339.324219 133.042969 C 338.433594 130.5625 337.484375 128.101562 336.476562 125.664062 C 335.46875 123.226562 334.398438 120.816406 333.269531 118.429688 C 332.144531 116.046875 330.957031 113.691406 329.714844 111.363281 C 328.46875 109.039062 327.171875 106.742188 325.8125 104.480469 C 324.457031 102.21875 323.046875 99.992188 321.582031 97.796875 C 320.117188 95.605469 318.597656 93.449219 317.027344 91.328125 C 315.457031 89.210938 313.832031 87.132812 312.160156 85.09375 C 310.484375 83.054688 308.761719 81.054688 306.992188 79.101562 C 305.21875 77.148438 303.402344 75.238281 301.535156 73.371094 C 299.671875 71.507812 297.761719 69.6875 295.808594 67.917969 C 293.851562 66.144531 291.855469 64.421875 289.816406 62.75 C 287.777344 61.074219 285.699219 59.453125 283.578125 57.882812 C 281.460938 56.3125 279.304688 54.792969 277.113281 53.328125 C 274.917969 51.863281 272.691406 50.449219 270.429688 49.09375 C 268.164062 47.738281 265.871094 46.4375 263.542969 45.195312 C 261.21875 43.953125 258.863281 42.765625 256.476562 41.636719 C 254.09375 40.511719 251.683594 39.441406 249.246094 38.433594 C 246.808594 37.421875 244.347656 36.472656 241.863281 35.585938 C 239.378906 34.695312 236.875 33.867188 234.351562 33.101562 C 231.828125 32.335938 229.285156 31.632812 226.726562 30.992188 C 224.167969 30.351562 221.59375 29.773438 219.007812 29.261719 C 216.421875 28.746094 213.824219 28.292969 211.214844 27.90625 C 208.605469 27.519531 205.988281 27.199219 203.363281 26.9375 C 200.738281 26.679688 198.105469 26.484375 195.472656 26.355469 C 192.835938 26.226562 190.203125 26.164062 187.5625 26.164062 Z M 187.5625 26.164062 "/>
<path style=" stroke:none;fill-rule:nonzero;fill:rgb(94.509888%,73.728943%,9.799194%);fill-opacity:1;" d="M 331.320312 17.449219 C 330.75 17.449219 330.179688 17.476562 329.613281 17.535156 C 329.046875 17.589844 328.480469 17.671875 327.921875 17.785156 C 327.363281 17.894531 326.808594 18.035156 326.261719 18.199219 C 325.714844 18.367188 325.179688 18.558594 324.652344 18.777344 C 324.125 18.996094 323.609375 19.238281 323.105469 19.507812 C 322.601562 19.777344 322.113281 20.070312 321.640625 20.386719 C 321.164062 20.703125 320.707031 21.042969 320.265625 21.40625 C 319.824219 21.765625 319.402344 22.148438 319 22.554688 C 318.597656 22.957031 318.214844 23.378906 317.851562 23.820312 C 317.488281 24.261719 317.148438 24.71875 316.832031 25.195312 C 316.515625 25.667969 316.222656 26.15625 315.953125 26.660156 C 315.683594 27.164062 315.441406 27.679688 315.222656 28.207031 C 315.003906 28.734375 314.8125 29.269531 314.644531 29.816406 C 314.480469 30.363281 314.34375 30.917969 314.230469 31.476562 C 314.121094 32.035156 314.035156 32.597656 313.980469 33.167969 C 313.921875 33.734375 313.894531 34.304688 313.894531 34.875 C 313.894531 35.445312 313.921875 36.015625 313.980469 36.582031 C 314.035156 37.152344 314.121094 37.714844 314.230469 38.273438 C 314.34375 38.835938 314.480469 39.386719 314.644531 39.933594 C 314.8125 40.480469 315.003906 41.015625 315.222656 41.542969 C 315.441406 42.070312 315.683594 42.585938 315.953125 43.089844 C 316.222656 43.59375 316.515625 44.082031 316.832031 44.554688 C 317.148438 45.03125 317.488281 45.488281 317.851562 45.929688 C 318.214844 46.371094 318.597656 46.792969 319 47.195312 C 319.402344 47.601562 319.824219 47.984375 320.265625 48.34375 C 320.707031 48.707031 321.164062 49.046875 321.640625 49.363281 C 322.113281 49.679688 322.605469 49.972656 323.105469 50.242188 C 323.609375 50.511719 324.125 50.753906 324.652344 50.972656 C 325.179688 51.191406 325.714844 51.382812 326.261719 51.550781 C 326.808594 51.714844 327.363281 51.855469 327.921875 51.964844 C 328.480469 52.078125 329.046875 52.160156 329.613281 52.214844 C 330.179688 52.273438 330.75 52.300781 331.320312 52.300781 C 331.890625 52.300781 332.460938 52.273438 333.027344 52.214844 C 333.597656 52.160156 334.160156 52.078125 334.71875 51.964844 C 335.28125 51.855469 335.832031 51.714844 336.378906 51.550781 C 336.925781 51.382812 337.460938 51.191406 337.988281 50.972656 C 338.515625 50.753906 339.03125 50.511719 339.535156 50.242188 C 340.039062 49.972656 340.527344 49.679688 341 49.363281 C 341.476562 49.046875 341.933594 48.707031 342.375 48.34375 C 342.816406 47.984375 343.238281 47.601562 343.640625 47.195312 C 344.046875 46.792969 344.429688 46.371094 344.789062 45.929688 C 345.152344 45.488281 345.492188 45.03125 345.808594 44.554688 C 346.125 44.082031 346.417969 43.59375 346.6875 43.089844 C 346.957031 42.585938 347.203125 42.070312 347.417969 41.542969 C 347.636719 41.015625 347.832031 40.480469 347.996094 39.933594 C 348.160156 39.386719 348.300781 38.835938 348.410156 38.273438 C 348.523438 37.714844 348.605469 37.152344 348.664062 36.582031 C 348.71875 36.015625 348.746094 35.445312 348.746094 34.875 C 348.746094 34.304688 348.71875 33.734375 348.664062 33.167969 C 348.605469 32.597656 348.523438 32.035156 348.410156 31.476562 C 348.300781 30.917969 348.160156 30.363281 347.996094 29.816406 C 347.832031 29.269531 347.636719 28.734375 347.417969 28.207031 C 347.203125 27.679688 346.957031 27.164062 346.6875 26.660156 C 346.417969 26.15625 346.125 25.667969 345.808594 25.195312 C 345.492188 24.71875 345.152344 24.261719 344.789062 23.820312 C 344.429688 23.378906 344.046875 22.957031 343.640625 22.554688 C 343.238281 22.148438 342.816406 21.765625 342.375 21.40625 C 341.933594 21.042969 341.476562 20.703125 341 20.386719 C 340.527344 20.070312 340.039062 19.777344 339.535156 19.507812 C 339.03125 19.238281 338.515625 18.996094 337.988281 18.777344 C 337.460938 18.558594 336.925781 18.367188 336.378906 18.199219 C 335.832031 18.035156 335.28125 17.894531 334.71875 17.785156 C 334.160156 17.671875 333.597656 17.589844 333.027344 17.535156 C 332.460938 17.476562 331.890625 17.449219 331.320312 17.449219 Z M 331.320312 17.449219 "/>
<g clip-path="url(#clip1)" clip-rule="nonzero">
<path style=" stroke:none;fill-rule:nonzero;fill:rgb(93.328857%,24.308777%,32.939148%);fill-opacity:1;" d="M 348.746094 65.371094 C 348.175781 65.371094 347.609375 65.425781 347.046875 65.535156 C 346.484375 65.648438 345.941406 65.8125 345.410156 66.03125 C 344.882812 66.25 344.382812 66.519531 343.90625 66.835938 C 343.429688 67.15625 342.988281 67.515625 342.585938 67.921875 C 342.179688 68.324219 341.820312 68.765625 341.5 69.242188 C 341.183594 69.71875 340.914062 70.21875 340.695312 70.746094 C 340.476562 71.277344 340.3125 71.820312 340.199219 72.382812 C 340.089844 72.941406 340.035156 73.511719 340.035156 74.082031 C 340.035156 74.652344 340.089844 75.21875 340.199219 75.78125 C 340.3125 76.34375 340.476562 76.886719 340.695312 77.417969 C 340.914062 77.945312 341.183594 78.445312 341.5 78.921875 C 341.820312 79.398438 342.179688 79.839844 342.585938 80.242188 C 342.988281 80.648438 343.429688 81.007812 343.90625 81.324219 C 344.382812 81.644531 344.882812 81.914062 345.410156 82.132812 C 345.941406 82.351562 346.484375 82.515625 347.046875 82.628906 C 347.609375 82.738281 348.175781 82.792969 348.746094 82.792969 C 349.316406 82.792969 349.886719 82.738281 350.445312 82.628906 C 351.007812 82.515625 351.550781 82.351562 352.082031 82.132812 C 352.609375 81.914062 353.109375 81.644531 353.585938 81.324219 C 354.0625 81.007812 354.503906 80.648438 354.90625 80.242188 C 355.3125 79.839844 355.671875 79.398438 355.992188 78.921875 C 356.308594 78.445312 356.578125 77.945312 356.796875 77.417969 C 357.015625 76.886719 357.179688 76.34375 357.292969 75.78125 C 357.402344 75.21875 357.457031 74.652344 357.457031 74.082031 C 357.457031 73.511719 357.402344 72.941406 357.292969 72.382812 C 357.179688 71.820312 357.015625 71.277344 356.796875 70.746094 C 356.578125 70.21875 356.308594 69.71875 355.992188 69.242188 C 355.671875 68.765625 355.3125 68.324219 354.90625 67.921875 C 354.503906 67.515625 354.0625 67.15625 353.585938 66.835938 C 353.109375 66.519531 352.609375 66.25 352.082031 66.03125 C 351.550781 65.8125 351.007812 65.648438 350.445312 65.535156 C 349.886719 65.425781 349.316406 65.371094 348.746094 65.371094 Z M 348.746094 65.371094 "/>
</g>
<path style=" stroke:none;fill-rule:nonzero;fill:rgb(98.429871%,80.389404%,34.899902%);fill-opacity:1;" d="M 322.609375 291.898438 C 322.035156 291.898438 321.46875 291.953125 320.910156 292.0625 C 320.347656 292.175781 319.804688 292.339844 319.273438 292.558594 C 318.746094 292.777344 318.242188 293.046875 317.769531 293.363281 C 317.292969 293.683594 316.851562 294.042969 316.449219 294.449219 C 316.042969 294.851562 315.683594 295.292969 315.363281 295.769531 C 315.046875 296.246094 314.777344 296.746094 314.558594 297.273438 C 314.339844 297.804688 314.175781 298.347656 314.0625 298.910156 C 313.953125 299.46875 313.894531 300.035156 313.894531 300.609375 C 313.894531 301.179688 313.953125 301.746094 314.0625 302.308594 C 314.175781 302.871094 314.339844 303.414062 314.558594 303.941406 C 314.777344 304.472656 315.046875 304.972656 315.363281 305.449219 C 315.683594 305.925781 316.042969 306.367188 316.449219 306.769531 C 316.851562 307.175781 317.292969 307.535156 317.769531 307.851562 C 318.242188 308.171875 318.746094 308.441406 319.273438 308.660156 C 319.804688 308.878906 320.347656 309.042969 320.910156 309.152344 C 321.46875 309.265625 322.035156 309.320312 322.609375 309.320312 C 323.179688 309.320312 323.746094 309.265625 324.308594 309.152344 C 324.871094 309.042969 325.414062 308.878906 325.941406 308.660156 C 326.472656 308.441406 326.972656 308.171875 327.449219 307.851562 C 327.925781 307.535156 328.363281 307.175781 328.769531 306.769531 C 329.171875 306.367188 329.535156 305.925781 329.851562 305.449219 C 330.171875 304.972656 330.4375 304.472656 330.65625 303.941406 C 330.875 303.414062 331.042969 302.871094 331.152344 302.308594 C 331.265625 301.746094 331.320312 301.179688 331.320312 300.609375 C 331.320312 300.035156 331.265625 299.46875 331.152344 298.910156 C 331.042969 298.347656 330.875 297.804688 330.65625 297.273438 C 330.4375 296.746094 330.171875 296.246094 329.851562 295.769531 C 329.535156 295.292969 329.171875 294.851562 328.769531 294.449219 C 328.363281 294.042969 327.925781 293.683594 327.449219 293.363281 C 326.972656 293.046875 326.472656 292.777344 325.941406 292.558594 C 325.414062 292.339844 324.871094 292.175781 324.308594 292.0625 C 323.746094 291.953125 323.179688 291.898438 322.609375 291.898438 Z M 35.09375 226.550781 C 34.523438 226.550781 33.953125 226.582031 33.386719 226.636719 C 32.816406 226.691406 32.253906 226.777344 31.695312 226.886719 C 31.132812 227 30.582031 227.136719 30.035156 227.300781 C 29.488281 227.46875 28.953125 227.660156 28.425781 227.878906 C 27.898438 228.097656 27.382812 228.339844 26.878906 228.609375 C 26.375 228.878906 25.886719 229.171875 25.414062 229.488281 C 24.9375 229.804688 24.480469 230.144531 24.039062 230.507812 C 23.597656 230.871094 23.175781 231.253906 22.773438 231.65625 C 22.367188 232.058594 21.984375 232.480469 21.625 232.921875 C 21.261719 233.363281 20.921875 233.820312 20.605469 234.296875 C 20.289062 234.769531 19.996094 235.261719 19.726562 235.761719 C 19.457031 236.265625 19.210938 236.78125 18.996094 237.308594 C 18.777344 237.835938 18.582031 238.371094 18.417969 238.917969 C 18.253906 239.464844 18.113281 240.019531 18.003906 240.578125 C 17.890625 241.136719 17.808594 241.703125 17.75 242.269531 C 17.695312 242.835938 17.667969 243.40625 17.667969 243.976562 C 17.667969 244.546875 17.695312 245.117188 17.75 245.683594 C 17.808594 246.253906 17.890625 246.816406 18.003906 247.375 C 18.113281 247.9375 18.253906 248.488281 18.417969 249.035156 C 18.582031 249.582031 18.777344 250.117188 18.996094 250.644531 C 19.210938 251.171875 19.457031 251.6875 19.726562 252.191406 C 19.996094 252.695312 20.289062 253.183594 20.605469 253.660156 C 20.921875 254.132812 21.261719 254.589844 21.625 255.03125 C 21.984375 255.472656 22.367188 255.894531 22.773438 256.296875 C 23.175781 256.703125 23.597656 257.085938 24.039062 257.445312 C 24.480469 257.808594 24.9375 258.148438 25.414062 258.464844 C 25.886719 258.78125 26.375 259.074219 26.878906 259.34375 C 27.382812 259.613281 27.898438 259.859375 28.425781 260.074219 C 28.953125 260.292969 29.488281 260.488281 30.035156 260.652344 C 30.582031 260.816406 31.132812 260.957031 31.695312 261.066406 C 32.253906 261.179688 32.816406 261.261719 33.386719 261.320312 C 33.953125 261.375 34.523438 261.402344 35.09375 261.402344 C 35.664062 261.402344 36.234375 261.375 36.800781 261.320312 C 37.367188 261.261719 37.933594 261.179688 38.492188 261.066406 C 39.050781 260.957031 39.605469 260.816406 40.152344 260.652344 C 40.699219 260.488281 41.234375 260.292969 41.761719 260.074219 C 42.289062 259.859375 42.804688 259.613281 43.308594 259.34375 C 43.8125 259.074219 44.300781 258.78125 44.773438 258.464844 C 45.25 258.148438 45.707031 257.808594 46.148438 257.445312 C 46.589844 257.085938 47.011719 256.703125 47.414062 256.296875 C 47.816406 255.894531 48.199219 255.472656 48.5625 255.03125 C 48.925781 254.589844 49.265625 254.132812 49.582031 253.660156 C 49.898438 253.183594 50.191406 252.695312 50.460938 252.191406 C 50.730469 251.6875 50.972656 251.171875 51.191406 250.644531 C 51.410156 250.117188 51.601562 249.582031 51.769531 249.035156 C 51.933594 248.488281 52.070312 247.9375 52.183594 247.375 C 52.292969 246.816406 52.378906 246.253906 52.433594 245.683594 C 52.492188 245.117188 52.519531 244.546875 52.519531 243.976562 C 52.519531 243.40625 52.492188 242.835938 52.433594 242.269531 C 52.378906 241.703125 52.292969 241.136719 52.183594 240.578125 C 52.070312 240.019531 51.933594 239.464844 51.769531 238.917969 C 51.601562 238.371094 51.410156 237.835938 51.191406 237.308594 C 50.972656 236.78125 50.730469 236.265625 50.460938 235.761719 C 50.191406 235.261719 49.898438 234.769531 49.582031 234.296875 C 49.265625 233.820312 48.925781 233.363281 48.5625 232.921875 C 48.199219 232.480469 47.816406 232.058594 47.414062 231.65625 C 47.011719 231.253906 46.589844 230.871094 46.148438 230.507812 C 45.707031 230.144531 45.25 229.804688 44.773438 229.488281 C 44.300781 229.171875 43.8125 228.878906 43.308594 228.609375 C 42.804688 228.339844 42.289062 228.097656 41.761719 227.878906 C 41.234375 227.660156 40.699219 227.46875 40.152344 227.300781 C 39.605469 227.136719 39.050781 227 38.492188 226.886719 C 37.933594 226.777344 37.367188 226.691406 36.800781 226.636719 C 36.234375 226.582031 35.664062 226.550781 35.09375 226.550781 Z M 35.09375 226.550781 "/>
<g clip-path="url(#clip2)" clip-rule="nonzero">
<path style=" stroke:none;fill-rule:nonzero;fill:rgb(93.328857%,24.308777%,32.939148%);fill-opacity:1;" d="M 78.65625 339.816406 C 78.082031 339.816406 77.515625 339.871094 76.957031 339.984375 C 76.394531 340.09375 75.851562 340.261719 75.320312 340.480469 C 74.792969 340.699219 74.292969 340.964844 73.816406 341.285156 C 73.339844 341.601562 72.898438 341.964844 72.496094 342.367188 C 72.089844 342.773438 71.730469 343.210938 71.410156 343.6875 C 71.09375 344.164062 70.824219 344.664062 70.605469 345.195312 C 70.386719 345.722656 70.222656 346.265625 70.109375 346.828125 C 70 347.390625 69.945312 347.957031 69.945312 348.527344 C 69.945312 349.101562 70 349.667969 70.109375 350.226562 C 70.222656 350.789062 70.386719 351.332031 70.605469 351.863281 C 70.824219 352.390625 71.09375 352.894531 71.410156 353.367188 C 71.730469 353.84375 72.089844 354.285156 72.496094 354.6875 C 72.898438 355.09375 73.339844 355.453125 73.816406 355.773438 C 74.292969 356.089844 74.792969 356.359375 75.320312 356.578125 C 75.851562 356.796875 76.394531 356.960938 76.957031 357.074219 C 77.515625 357.183594 78.082031 357.242188 78.65625 357.242188 C 79.226562 357.242188 79.792969 357.183594 80.355469 357.074219 C 80.917969 356.960938 81.460938 356.796875 81.988281 356.578125 C 82.519531 356.359375 83.019531 356.089844 83.496094 355.773438 C 83.972656 355.453125 84.414062 355.09375 84.816406 354.6875 C 85.222656 354.285156 85.582031 353.84375 85.898438 353.367188 C 86.21875 352.894531 86.488281 352.390625 86.707031 351.863281 C 86.925781 351.332031 87.089844 350.789062 87.203125 350.226562 C 87.3125 349.667969 87.367188 349.101562 87.367188 348.527344 C 87.367188 347.957031 87.3125 347.390625 87.203125 346.828125 C 87.089844 346.265625 86.925781 345.722656 86.707031 345.195312 C 86.488281 344.664062 86.21875 344.164062 85.898438 343.6875 C 85.582031 343.210938 85.222656 342.773438 84.816406 342.367188 C 84.414062 341.964844 83.972656 341.601562 83.496094 341.285156 C 83.019531 340.964844 82.519531 340.699219 81.988281 340.480469 C 81.460938 340.261719 80.917969 340.09375 80.355469 339.984375 C 79.792969 339.871094 79.226562 339.816406 78.65625 339.816406 Z M 78.65625 339.816406 "/>
</g>
<path style=" stroke:none;fill-rule:nonzero;fill:rgb(100%,100%,100%);fill-opacity:1;" d="M 50.339844 191.703125 C 49.625 191.703125 48.917969 191.773438 48.214844 191.910156 C 47.515625 192.050781 46.832031 192.257812 46.171875 192.53125 C 45.511719 192.804688 44.882812 193.140625 44.289062 193.539062 C 43.695312 193.933594 43.144531 194.386719 42.640625 194.890625 C 42.132812 195.398438 41.683594 195.949219 41.285156 196.542969 C 40.886719 197.136719 40.550781 197.765625 40.277344 198.425781 C 40.003906 199.085938 39.796875 199.765625 39.660156 200.46875 C 39.519531 201.167969 39.449219 201.878906 39.449219 202.59375 C 39.449219 203.308594 39.519531 204.015625 39.660156 204.71875 C 39.796875 205.417969 40.003906 206.097656 40.277344 206.761719 C 40.550781 207.421875 40.886719 208.046875 41.285156 208.644531 C 41.683594 209.238281 42.132812 209.789062 42.640625 210.292969 C 43.144531 210.800781 43.695312 211.25 44.289062 211.648438 C 44.882812 212.046875 45.511719 212.378906 46.171875 212.652344 C 46.832031 212.929688 47.515625 213.132812 48.214844 213.273438 C 48.917969 213.414062 49.625 213.484375 50.339844 213.484375 C 51.054688 213.484375 51.761719 213.414062 52.464844 213.273438 C 53.167969 213.132812 53.847656 212.929688 54.507812 212.652344 C 55.167969 212.378906 55.796875 212.046875 56.390625 211.648438 C 56.984375 211.25 57.535156 210.800781 58.042969 210.292969 C 58.546875 209.789062 59 209.238281 59.394531 208.644531 C 59.792969 208.046875 60.128906 207.421875 60.402344 206.761719 C 60.675781 206.097656 60.882812 205.417969 61.023438 204.71875 C 61.160156 204.015625 61.230469 203.308594 61.230469 202.59375 C 61.230469 201.878906 61.160156 201.167969 61.023438 200.46875 C 60.882812 199.765625 60.675781 199.085938 60.402344 198.425781 C 60.128906 197.765625 59.792969 197.136719 59.394531 196.542969 C 59 195.949219 58.546875 195.398438 58.042969 194.890625 C 57.535156 194.386719 56.984375 193.933594 56.390625 193.539062 C 55.796875 193.140625 55.167969 192.804688 54.507812 192.53125 C 53.847656 192.257812 53.167969 192.050781 52.464844 191.910156 C 51.761719 191.773438 51.054688 191.703125 50.339844 191.703125 Z M 50.339844 191.703125 "/>
<path style=" stroke:none;fill-rule:nonzero;fill:rgb(94.509888%,73.728943%,9.799194%);fill-opacity:1;" d="M 61.230469 257.046875 C 60.945312 257.046875 60.660156 257.074219 60.382812 257.128906 C 60.101562 257.1875 59.828125 257.269531 59.5625 257.378906 C 59.300781 257.488281 59.046875 257.621094 58.8125 257.78125 C 58.574219 257.9375 58.351562 258.121094 58.152344 258.320312 C 57.949219 258.523438 57.769531 258.746094 57.609375 258.980469 C 57.449219 259.21875 57.316406 259.472656 57.207031 259.734375 C 57.097656 260 57.015625 260.273438 56.957031 260.550781 C 56.902344 260.832031 56.875 261.117188 56.875 261.402344 C 56.875 261.6875 56.902344 261.972656 56.957031 262.253906 C 57.015625 262.53125 57.097656 262.804688 57.207031 263.070312 C 57.316406 263.332031 57.449219 263.585938 57.609375 263.824219 C 57.769531 264.058594 57.949219 264.28125 58.152344 264.484375 C 58.351562 264.683594 58.574219 264.867188 58.8125 265.023438 C 59.046875 265.183594 59.300781 265.316406 59.5625 265.425781 C 59.828125 265.535156 60.101562 265.621094 60.382812 265.675781 C 60.660156 265.730469 60.945312 265.757812 61.230469 265.757812 C 61.515625 265.757812 61.800781 265.730469 62.082031 265.675781 C 62.359375 265.621094 62.632812 265.535156 62.898438 265.425781 C 63.164062 265.316406 63.414062 265.183594 63.652344 265.023438 C 63.890625 264.867188 64.109375 264.683594 64.3125 264.484375 C 64.511719 264.28125 64.695312 264.058594 64.851562 263.824219 C 65.011719 263.585938 65.144531 263.332031 65.253906 263.070312 C 65.363281 262.804688 65.449219 262.53125 65.503906 262.253906 C 65.558594 261.972656 65.585938 261.6875 65.585938 261.402344 C 65.585938 261.117188 65.558594 260.832031 65.503906 260.550781 C 65.449219 260.273438 65.363281 260 65.253906 259.734375 C 65.144531 259.472656 65.011719 259.21875 64.851562 258.980469 C 64.695312 258.746094 64.511719 258.523438 64.3125 258.320312 C 64.109375 258.121094 63.890625 257.9375 63.652344 257.78125 C 63.414062 257.621094 63.164062 257.488281 62.898438 257.378906 C 62.632812 257.269531 62.359375 257.1875 62.082031 257.128906 C 61.800781 257.074219 61.515625 257.046875 61.230469 257.046875 Z M 61.230469 257.046875 "/>
<path style=" stroke:none;fill-rule:nonzero;fill:rgb(100%,100%,100%);fill-opacity:1;" d="M 318.253906 113.289062 C 317.964844 113.289062 317.683594 113.316406 317.402344 113.371094 C 317.121094 113.429688 316.847656 113.511719 316.585938 113.621094 C 316.320312 113.730469 316.070312 113.863281 315.832031 114.023438 C 315.59375 114.179688 315.375 114.363281 315.171875 114.566406 C 314.96875 114.765625 314.789062 114.988281 314.628906 115.222656 C 314.472656 115.460938 314.335938 115.714844 314.226562 115.976562 C 314.117188 116.242188 314.035156 116.515625 313.980469 116.796875 C 313.921875 117.074219 313.894531 117.359375 313.894531 117.644531 C 313.894531 117.929688 313.921875 118.214844 313.980469 118.496094 C 314.035156 118.773438 314.117188 119.046875 314.226562 119.3125 C 314.335938 119.574219 314.472656 119.828125 314.628906 120.066406 C 314.789062 120.304688 314.96875 120.523438 315.171875 120.726562 C 315.375 120.925781 315.59375 121.109375 315.832031 121.265625 C 316.070312 121.425781 316.320312 121.558594 316.585938 121.667969 C 316.847656 121.777344 317.121094 121.863281 317.402344 121.917969 C 317.683594 121.972656 317.964844 122 318.253906 122 C 318.539062 122 318.820312 121.972656 319.101562 121.917969 C 319.382812 121.863281 319.65625 121.777344 319.917969 121.667969 C 320.183594 121.558594 320.433594 121.425781 320.671875 121.265625 C 320.910156 121.109375 321.128906 120.925781 321.332031 120.726562 C 321.535156 120.523438 321.714844 120.304688 321.875 120.066406 C 322.03125 119.828125 322.167969 119.574219 322.277344 119.3125 C 322.386719 119.046875 322.46875 118.773438 322.523438 118.496094 C 322.582031 118.214844 322.609375 117.929688 322.609375 117.644531 C 322.609375 117.359375 322.582031 117.074219 322.523438 116.796875 C 322.46875 116.515625 322.386719 116.242188 322.277344 115.976562 C 322.167969 115.714844 322.03125 115.460938 321.875 115.222656 C 321.714844 114.988281 321.535156 114.765625 321.332031 114.566406 C 321.128906 114.363281 320.910156 114.179688 320.671875 114.023438 C 320.433594 113.863281 320.183594 113.730469 319.917969 113.621094 C 319.65625 113.511719 319.382812 113.429688 319.101562 113.371094 C 318.820312 113.316406 318.539062 113.289062 318.253906 113.289062 Z M 318.253906 113.289062 "/>
<path style=" stroke:none;fill-rule:nonzero;fill:rgb(100%,99.609375%,95.689392%);fill-opacity:1;" d="M 130.203125 288.847656 C 120.277344 288.847656 112.199219 280.769531 112.199219 270.84375 L 112.199219 103.847656 C 112.199219 93.921875 120.277344 85.84375 130.203125 85.84375 L 249.273438 85.84375 C 259.203125 85.84375 267.277344 93.921875 267.277344 103.847656 L 267.277344 270.84375 C 267.277344 280.769531 259.203125 288.847656 249.273438 288.847656 Z M 130.203125 288.847656 "/>
<path style=" stroke:none;fill-rule:nonzero;fill:rgb(27.839661%,16.859436%,16.079712%);fill-opacity:1;" d="M 249.277344 88.894531 C 257.523438 88.894531 264.234375 95.605469 264.234375 103.851562 L 264.234375 270.84375 C 264.234375 279.089844 257.523438 285.800781 249.277344 285.800781 L 130.203125 285.800781 C 121.957031 285.800781 115.25 279.089844 115.25 270.84375 L 115.25 103.847656 C 115.25 95.601562 121.957031 88.890625 130.203125 88.890625 L 249.277344 88.890625 M 249.277344 82.792969 L 130.203125 82.792969 C 118.578125 82.792969 109.148438 92.222656 109.148438 103.847656 L 109.148438 270.839844 C 109.148438 282.46875 118.578125 291.898438 130.203125 291.898438 L 249.273438 291.898438 C 260.90625 291.898438 270.332031 282.46875 270.332031 270.84375 L 270.332031 103.847656 C 270.332031 92.222656 260.90625 82.792969 249.277344 82.792969 Z M 249.277344 82.792969 "/>
<path style=" stroke:none;fill-rule:nonzero;fill:rgb(27.839661%,16.859436%,16.079712%);fill-opacity:1;" d="M 202.808594 151.40625 L 133.109375 151.40625 C 132.507812 151.40625 132.019531 150.917969 132.019531 150.316406 L 132.019531 124.179688 C 132.019531 123.578125 132.507812 123.089844 133.109375 123.089844 L 139.917969 123.089844 C 140.519531 123.089844 141.007812 123.578125 141.007812 124.179688 C 141.007812 124.78125 140.519531 125.269531 139.917969 125.269531 L 134.199219 125.269531 L 134.199219 149.226562 L 201.722656 149.226562 L 201.722656 125.269531 L 172.316406 125.269531 C 171.714844 125.269531 171.226562 124.78125 171.226562 124.179688 C 171.226562 123.578125 171.714844 123.089844 172.316406 123.089844 L 202.808594 123.089844 C 203.410156 123.089844 203.898438 123.578125 203.898438 124.179688 L 203.898438 150.316406 C 203.898438 150.917969 203.410156 151.40625 202.808594 151.40625 Z M 202.808594 151.40625 "/>
<path style=" stroke:none;fill-rule:nonzero;fill:rgb(27.839661%,16.859436%,16.079712%);fill-opacity:1;" d="M 164.148438 125.269531 L 147.8125 125.269531 C 147.210938 125.269531 146.722656 124.78125 146.722656 124.179688 C 146.722656 123.578125 147.210938 123.089844 147.8125 123.089844 L 164.148438 123.089844 C 164.75 123.089844 165.238281 123.578125 165.238281 124.179688 C 165.238281 124.78125 164.75 125.269531 164.148438 125.269531 Z M 187.5625 203.679688 L 173.949219 203.679688 C 173.347656 203.679688 172.859375 203.195312 172.859375 202.59375 C 172.859375 201.992188 173.347656 201.503906 173.949219 201.503906 L 187.5625 201.503906 C 188.164062 201.503906 188.652344 201.992188 188.652344 202.59375 C 188.652344 203.195312 188.164062 203.679688 187.5625 203.679688 Z M 246.375 151.40625 L 220.234375 151.40625 C 219.632812 151.40625 219.144531 150.917969 219.144531 150.316406 L 219.144531 124.179688 C 219.144531 123.578125 219.632812 123.089844 220.234375 123.089844 L 246.375 123.089844 C 246.972656 123.089844 247.460938 123.578125 247.460938 124.179688 L 247.460938 150.316406 C 247.460938 150.917969 246.972656 151.40625 246.375 151.40625 Z M 221.324219 149.226562 L 245.285156 149.226562 L 245.285156 125.269531 L 221.324219 125.269531 Z M 221.324219 149.226562 "/>
<path style=" stroke:none;fill-rule:nonzero;fill:rgb(27.839661%,16.859436%,16.079712%);fill-opacity:1;" d="M 202.808594 203.679688 L 196 203.679688 C 195.398438 203.679688 194.914062 203.195312 194.914062 202.59375 C 194.914062 201.992188 195.398438 201.503906 196 201.503906 L 201.722656 201.503906 L 201.722656 177.542969 L 134.199219 177.542969 L 134.199219 201.503906 L 163.605469 201.503906 C 164.203125 201.503906 164.691406 201.992188 164.691406 202.59375 C 164.691406 203.195312 164.203125 203.679688 163.605469 203.679688 L 133.109375 203.679688 C 132.507812 203.679688 132.019531 203.195312 132.019531 202.59375 L 132.019531 176.453125 C 132.019531 175.855469 132.507812 175.367188 133.109375 175.367188 L 202.808594 175.367188 C 203.410156 175.367188 203.898438 175.855469 203.898438 176.453125 L 203.898438 202.59375 C 203.898438 203.195312 203.410156 203.679688 202.808594 203.679688 Z M 246.375 203.679688 L 220.234375 203.679688 C 219.632812 203.679688 219.144531 203.195312 219.144531 202.59375 L 219.144531 176.453125 C 219.144531 175.855469 219.632812 175.367188 220.234375 175.367188 L 246.375 175.367188 C 246.972656 175.367188 247.460938 175.855469 247.460938 176.453125 L 247.460938 202.59375 C 247.460938 203.195312 246.972656 203.679688 246.375 203.679688 Z M 221.324219 201.503906 L 245.285156 201.503906 L 245.285156 177.542969 L 221.324219 177.542969 Z M 202.808594 255.957031 L 133.109375 255.957031 C 132.507812 255.957031 132.019531 255.46875 132.019531 254.867188 L 132.019531 228.730469 C 132.019531 228.128906 132.507812 227.640625 133.109375 227.640625 L 163.605469 227.640625 C 164.203125 227.640625 164.691406 228.128906 164.691406 228.730469 C 164.691406 229.332031 164.203125 229.820312 163.605469 229.820312 L 134.199219 229.820312 L 134.199219 253.777344 L 201.722656 253.777344 L 201.722656 229.820312 L 172.316406 229.820312 C 171.714844 229.820312 171.226562 229.332031 171.226562 228.730469 C 171.226562 228.128906 171.714844 227.640625 172.316406 227.640625 L 202.808594 227.640625 C 203.410156 227.640625 203.898438 228.128906 203.898438 228.730469 L 203.898438 254.867188 C 203.898438 255.46875 203.410156 255.957031 202.808594 255.957031 Z M 246.375 255.957031 L 220.234375 255.957031 C 219.632812 255.957031 219.144531 255.46875 219.144531 254.867188 L 219.144531 228.730469 C 219.144531 228.128906 219.632812 227.640625 220.234375 227.640625 L 246.375 227.640625 C 246.972656 227.640625 247.460938 228.128906 247.460938 228.730469 L 247.460938 254.867188 C 247.460938 255.46875 246.972656 255.957031 246.375 255.957031 Z M 221.324219 253.777344 L 245.285156 253.777344 L 245.285156 229.820312 L 221.324219 229.820312 Z M 221.324219 253.777344 "/>
<path style=" stroke:none;fill-rule:nonzero;fill:rgb(27.839661%,16.859436%,16.079712%);fill-opacity:1;" d="M 235.355469 144.851562 C 234.855469 144.851562 234.355469 144.679688 233.945312 144.332031 C 233.03125 143.550781 232.921875 142.175781 233.695312 141.261719 L 250.183594 121.886719 C 250.96875 120.972656 252.347656 120.863281 253.257812 121.640625 C 254.171875 122.417969 254.28125 123.796875 253.503906 124.710938 L 237.015625 144.082031 C 236.582031 144.59375 235.96875 144.851562 235.355469 144.851562 Z M 235.355469 144.851562 "/>
<path style=" stroke:none;fill-rule:nonzero;fill:rgb(27.839661%,16.859436%,16.079712%);fill-opacity:1;" d="M 234.835938 144.566406 C 234.140625 144.566406 233.453125 144.230469 233.03125 143.609375 L 224.964844 131.707031 C 224.292969 130.710938 224.550781 129.359375 225.550781 128.683594 C 226.542969 128.023438 227.898438 128.269531 228.574219 129.265625 L 236.636719 141.167969 C 237.3125 142.167969 237.050781 143.515625 236.054688 144.191406 C 235.679688 144.441406 235.257812 144.566406 234.835938 144.566406 Z M 234.835938 144.566406 "/>
<path style=" stroke:none;fill-rule:nonzero;fill:rgb(27.839661%,16.859436%,16.079712%);fill-opacity:1;" d="M 235.355469 197.125 C 234.855469 197.125 234.355469 196.957031 233.945312 196.605469 C 233.03125 195.828125 232.921875 194.449219 233.695312 193.535156 L 250.183594 174.164062 C 250.96875 173.246094 252.347656 173.140625 253.257812 173.914062 C 254.171875 174.695312 254.28125 176.070312 253.503906 176.984375 L 237.015625 196.359375 C 236.582031 196.867188 235.96875 197.125 235.355469 197.125 Z M 235.355469 197.125 "/>
<path style=" stroke:none;fill-rule:nonzero;fill:rgb(27.839661%,16.859436%,16.079712%);fill-opacity:1;" d="M 234.835938 196.84375 C 234.140625 196.84375 233.453125 196.507812 233.03125 195.882812 L 224.964844 183.984375 C 224.292969 182.984375 224.550781 181.632812 225.550781 180.960938 C 226.542969 180.292969 227.898438 180.546875 228.574219 181.542969 L 236.636719 193.445312 C 237.3125 194.441406 237.050781 195.792969 236.054688 196.46875 C 235.679688 196.714844 235.257812 196.84375 234.835938 196.84375 Z M 234.835938 196.84375 "/>
<path style=" stroke:none;fill-rule:nonzero;fill:rgb(27.839661%,16.859436%,16.079712%);fill-opacity:1;" d="M 235.355469 249.402344 C 234.855469 249.402344 234.355469 249.230469 233.945312 248.882812 C 233.03125 248.101562 232.921875 246.726562 233.695312 245.8125 L 250.183594 226.4375 C 250.96875 225.519531 252.347656 225.414062 253.257812 226.191406 C 254.171875 226.96875 254.28125 228.347656 253.503906 229.261719 L 237.015625 248.632812 C 236.582031 249.144531 235.96875 249.402344 235.355469 249.402344 Z M 235.355469 249.402344 "/>
<path style=" stroke:none;fill-rule:nonzero;fill:rgb(27.839661%,16.859436%,16.079712%);fill-opacity:1;" d="M 234.835938 249.117188 C 234.140625 249.117188 233.453125 248.78125 233.03125 248.160156 L 224.964844 236.257812 C 224.292969 235.261719 224.550781 233.910156 225.550781 233.234375 C 226.542969 232.566406 227.898438 232.820312 228.574219 233.820312 L 236.636719 245.71875 C 237.3125 246.71875 237.050781 248.066406 236.054688 248.742188 C 235.679688 248.992188 235.257812 249.117188 234.835938 249.117188 Z M 234.835938 249.117188 "/>
<path style=" stroke:none;fill-rule:nonzero;fill:rgb(27.839661%,16.859436%,16.079712%);fill-opacity:1;" d="M 194.097656 133.980469 L 141.820312 133.980469 C 141.222656 133.980469 140.734375 133.492188 140.734375 132.890625 C 140.734375 132.289062 141.222656 131.804688 141.820312 131.804688 L 194.097656 131.804688 C 194.699219 131.804688 195.1875 132.289062 195.1875 132.890625 C 195.1875 133.492188 194.699219 133.980469 194.097656 133.980469 Z M 194.097656 133.980469 "/>
<path style=" stroke:none;fill-rule:nonzero;fill:rgb(27.839661%,16.859436%,16.079712%);fill-opacity:1;" d="M 167.960938 142.695312 L 141.820312 142.695312 C 141.222656 142.695312 140.734375 142.207031 140.734375 141.605469 C 140.734375 141.003906 141.222656 140.515625 141.820312 140.515625 L 167.960938 140.515625 C 168.5625 140.515625 169.050781 141.003906 169.050781 141.605469 C 169.050781 142.207031 168.5625 142.695312 167.960938 142.695312 Z M 167.960938 142.695312 "/>
<path style=" stroke:none;fill-rule:nonzero;fill:rgb(27.839661%,16.859436%,16.079712%);fill-opacity:1;" d="M 194.097656 238.53125 L 141.820312 238.53125 C 141.222656 238.53125 140.734375 238.042969 140.734375 237.441406 C 140.734375 236.839844 141.222656 236.355469 141.820312 236.355469 L 194.097656 236.355469 C 194.699219 236.355469 195.1875 236.839844 195.1875 237.441406 C 195.1875 238.042969 194.699219 238.53125 194.097656 238.53125 Z M 194.097656 238.53125 "/>
<path style=" stroke:none;fill-rule:nonzero;fill:rgb(27.839661%,16.859436%,16.079712%);fill-opacity:1;" d="M 167.960938 247.246094 L 141.820312 247.246094 C 141.222656 247.246094 140.734375 246.757812 140.734375 246.15625 C 140.734375 245.554688 141.222656 245.066406 141.820312 245.066406 L 167.960938 245.066406 C 168.5625 245.066406 169.050781 245.554688 169.050781 246.15625 C 169.050781 246.757812 168.5625 247.246094 167.960938 247.246094 Z M 167.960938 247.246094 "/>
<path style=" stroke:none;fill-rule:nonzero;fill:rgb(27.839661%,16.859436%,16.079712%);fill-opacity:1;" d="M 194.097656 247.246094 L 176.671875 247.246094 C 176.070312 247.246094 175.582031 246.757812 175.582031 246.15625 C 175.582031 245.554688 176.070312 245.066406 176.671875 245.066406 L 194.097656 245.066406 C 194.699219 245.066406 195.1875 245.554688 195.1875 246.15625 C 195.1875 246.757812 194.699219 247.246094 194.097656 247.246094 Z M 194.097656 247.246094 "/>
<path style=" stroke:none;fill-rule:nonzero;fill:rgb(27.839661%,16.859436%,16.079712%);fill-opacity:1;" d="M 172.316406 186.257812 L 141.820312 186.257812 C 141.222656 186.257812 140.734375 185.769531 140.734375 185.167969 C 140.734375 184.566406 141.222656 184.078125 141.820312 184.078125 L 172.316406 184.078125 C 172.917969 184.078125 173.40625 184.566406 173.40625 185.167969 C 173.40625 185.769531 172.917969 186.257812 172.316406 186.257812 Z M 172.316406 186.257812 "/>
<path style=" stroke:none;fill-rule:nonzero;fill:rgb(27.839661%,16.859436%,16.079712%);fill-opacity:1;" d="M 194.097656 186.257812 L 181.027344 186.257812 C 180.425781 186.257812 179.941406 185.769531 179.941406 185.167969 C 179.941406 184.566406 180.425781 184.078125 181.027344 184.078125 L 194.097656 184.078125 C 194.699219 184.078125 195.1875 184.566406 195.1875 185.167969 C 195.1875 185.769531 194.699219 186.257812 194.097656 186.257812 Z M 194.097656 186.257812 "/>
<path style=" stroke:none;fill-rule:nonzero;fill:rgb(27.839661%,16.859436%,16.079712%);fill-opacity:1;" d="M 167.960938 194.96875 L 141.820312 194.96875 C 141.222656 194.96875 140.734375 194.480469 140.734375 193.878906 C 140.734375 193.277344 141.222656 192.789062 141.820312 192.789062 L 167.960938 192.789062 C 168.5625 192.789062 169.050781 193.277344 169.050781 193.878906 C 169.050781 194.480469 168.5625 194.96875 167.960938 194.96875 Z M 167.960938 194.96875 "/>
</g>
</svg>
