<?xml version="1.0" encoding="UTF-8"?>
<svg xmlns="http://www.w3.org/2000/svg" xmlns:xlink="http://www.w3.org/1999/xlink" width="375pt" height="374.999991pt" viewBox="0 0 375 374.999991" version="1.2">
<defs>
<clipPath id="clip1">
  <path d="M 56.390625 4 L 301 4 L 301 358 L 56.390625 358 Z M 56.390625 4 "/>
</clipPath>
<clipPath id="clip2">
  <path d="M 56.390625 9 L 301 9 L 301 358 L 56.390625 358 Z M 56.390625 9 "/>
</clipPath>
<clipPath id="clip3">
  <path d="M 56.390625 153 L 239 153 L 239 358 L 56.390625 358 Z M 56.390625 153 "/>
</clipPath>
<clipPath id="clip4">
  <path d="M 92 24 L 318.890625 24 L 318.890625 364 L 92 364 Z M 92 24 "/>
</clipPath>
</defs>
<g id="surface1">
<g clip-path="url(#clip1)" clip-rule="nonzero">
<path style=" stroke:none;fill-rule:nonzero;fill:rgb(23.139954%,39.99939%,92.939758%);fill-opacity:1;" d="M 300.6875 30.578125 L 264.617188 9.992188 C 263.039062 8.847656 261.347656 7.878906 259.550781 7.101562 L 259.019531 6.800781 L 258.996094 6.84375 C 249.292969 2.914062 236.757812 4.332031 223.085938 12.195312 L 111.992188 76.082031 C 81.445312 93.648438 56.453125 136.773438 56.453125 171.914062 L 56.453125 299.691406 C 56.453125 316.824219 62.425781 328.976562 72.058594 334.941406 L 71.964844 335.109375 L 112.050781 357.734375 L 134.59375 318.636719 L 223.085938 267.75 C 253.628906 250.179688 278.625 207.054688 278.625 171.917969 L 278.625 68.839844 Z M 300.6875 30.578125 "/>
</g>
<g clip-path="url(#clip2)" clip-rule="nonzero">
<path style=" stroke:none;fill-rule:nonzero;fill:rgb(16.468811%,29.40979%,84.709167%);fill-opacity:1;" d="M 300.6875 30.578125 L 262.078125 21.554688 C 260.5 20.414062 252.617188 20.441406 250.820312 19.65625 L 247.957031 18.519531 L 242.800781 17.5625 C 233.097656 13.632812 236.757812 4.332031 223.085938 12.191406 L 111.992188 76.082031 C 81.445312 93.648438 56.453125 136.773438 56.453125 171.914062 L 56.453125 299.691406 C 56.453125 316.824219 62.425781 328.976562 72.058594 334.941406 L 71.964844 335.109375 L 112.050781 357.734375 L 134.59375 318.636719 L 223.085938 267.75 C 253.628906 250.179688 278.625 207.054688 278.625 171.917969 L 278.625 68.839844 Z M 300.6875 30.578125 "/>
</g>
<g clip-path="url(#clip3)" clip-rule="nonzero">
<path style=" stroke:none;fill-rule:nonzero;fill:rgb(10.198975%,25.099182%,72.938538%);fill-opacity:1;" d="M 58.574219 153.503906 C 57.226562 159.761719 56.460938 165.957031 56.460938 171.914062 L 56.460938 299.691406 C 56.460938 316.824219 62.433594 328.976562 72.066406 334.941406 L 71.972656 335.109375 L 112.0625 357.734375 L 134.601562 318.636719 L 223.097656 267.75 C 228.285156 264.761719 233.300781 260.992188 238.070312 256.691406 Z M 58.574219 153.503906 "/>
</g>
<path style=" stroke:none;fill-rule:nonzero;fill:rgb(37.649536%,49.409485%,98.81897%);fill-opacity:1;" d="M 150.179688 98.136719 C 119.632812 115.703125 94.632812 158.832031 94.632812 193.96875 L 94.632812 321.746094 C 94.632812 356.882812 119.632812 371.257812 150.179688 353.6875 L 261.265625 289.800781 C 291.8125 272.234375 316.8125 229.109375 316.8125 193.96875 L 316.8125 66.191406 C 316.8125 31.054688 291.8125 16.683594 261.265625 34.253906 Z M 150.179688 98.136719 "/>
<path style=" stroke:none;fill-rule:nonzero;fill:rgb(31.369019%,41.178894%,100%);fill-opacity:1;" d="M 316.808594 66.191406 C 316.808594 31.054688 291.808594 16.683594 261.265625 34.253906 L 150.171875 98.136719 C 119.625 115.703125 94.628906 158.832031 94.628906 193.96875 L 94.628906 321.746094 C 94.628906 356.882812 119.625 371.257812 150.171875 353.6875 "/>
<g clip-path="url(#clip4)" clip-rule="nonzero">
<path style=" stroke:none;fill-rule:nonzero;fill:rgb(49.01886%,61.178589%,100%);fill-opacity:1;" d="M 125.507812 363.46875 L 125.5 363.46875 C 105.363281 363.46875 92.347656 347.09375 92.347656 321.746094 L 92.347656 193.96875 C 92.347656 158.015625 117.773438 114.136719 149.03125 96.160156 L 260.125 32.273438 C 269.128906 27.09375 277.820312 24.472656 285.945312 24.472656 C 306.085938 24.472656 319.105469 40.847656 319.105469 66.191406 L 319.105469 193.972656 C 319.105469 229.925781 293.671875 273.800781 262.417969 291.777344 L 151.324219 355.664062 C 142.3125 360.84375 133.632812 363.46875 125.507812 363.46875 Z M 285.945312 29.023438 C 278.632812 29.023438 270.714844 31.445312 262.417969 36.210938 L 151.324219 100.105469 C 121.332031 117.355469 96.925781 159.457031 96.925781 193.960938 L 96.925781 321.738281 C 96.925781 344.660156 107.875 358.898438 125.5 358.898438 L 125.507812 358.898438 C 132.820312 358.898438 140.734375 356.476562 149.03125 351.710938 L 260.125 287.816406 C 290.117188 270.570312 314.519531 228.464844 314.519531 193.960938 L 314.519531 66.183594 C 314.519531 43.261719 303.578125 29.023438 285.945312 29.023438 Z M 285.945312 29.023438 "/>
</g>
<path style=" stroke:none;fill-rule:nonzero;fill:rgb(22.349548%,65.098572%,100%);fill-opacity:1;" d="M 157.007812 231.214844 C 149.105469 235.761719 142.636719 246.917969 142.636719 256.011719 L 142.636719 289.066406 C 142.636719 298.160156 149.109375 301.878906 157.007812 297.332031 L 185.75 280.804688 C 193.652344 276.261719 200.117188 265.101562 200.117188 256.011719 L 200.117188 222.953125 C 200.117188 213.859375 193.648438 210.144531 185.75 214.6875 Z M 157.007812 231.214844 "/>
<path style=" stroke:none;fill-rule:nonzero;fill:rgb(100%,79.60968%,15.289307%);fill-opacity:1;" d="M 231.273438 188.574219 C 223.371094 193.117188 216.902344 204.277344 216.902344 213.367188 L 216.902344 246.425781 C 216.902344 255.515625 223.375 259.238281 231.273438 254.691406 L 260.015625 238.164062 C 267.917969 233.617188 274.382812 222.457031 274.382812 213.367188 L 274.382812 180.304688 C 274.382812 171.214844 267.914062 167.496094 260.015625 172.039062 Z M 231.273438 188.574219 "/>
<path style=" stroke:none;fill-rule:nonzero;fill:rgb(100%,68.629456%,13.328552%);fill-opacity:1;" d="M 253.1875 175.972656 L 231.277344 188.574219 C 223.375 193.117188 216.902344 204.277344 216.902344 213.367188 L 216.902344 238.570312 Z M 253.1875 175.972656 "/>
<path style=" stroke:none;fill-rule:nonzero;fill:rgb(92.939758%,9.408569%,37.249756%);fill-opacity:1;" d="M 157.007812 149.777344 C 149.105469 154.324219 142.636719 165.484375 142.636719 174.574219 L 142.636719 207.632812 C 142.636719 216.726562 149.109375 220.441406 157.007812 215.898438 L 185.75 199.367188 C 193.652344 194.824219 200.117188 183.664062 200.117188 174.574219 L 200.117188 141.515625 C 200.117188 132.425781 193.648438 128.707031 185.75 133.253906 Z M 157.007812 149.777344 "/>
<path style=" stroke:none;fill-rule:nonzero;fill:rgb(52.938843%,82.749939%,14.118958%);fill-opacity:1;" d="M 231.273438 107.132812 C 223.371094 111.679688 216.902344 122.835938 216.902344 131.929688 L 216.902344 164.984375 C 216.902344 174.082031 223.375 177.796875 231.273438 173.25 L 260.015625 156.722656 C 267.917969 152.175781 274.382812 141.019531 274.382812 131.929688 L 274.382812 98.871094 C 274.382812 89.777344 267.914062 86.0625 260.015625 90.605469 Z M 231.273438 107.132812 "/>
</g>
</svg>
