<?xml version="1.0" encoding="UTF-8"?>
<svg xmlns="http://www.w3.org/2000/svg" xmlns:xlink="http://www.w3.org/1999/xlink" width="375pt" height="374.999991pt" viewBox="0 0 375 374.999991" version="1.2">
<defs>
<clipPath id="clip1">
  <path d="M 16.722656 16.722656 L 357.972656 16.722656 L 357.972656 357.972656 L 16.722656 357.972656 Z M 16.722656 16.722656 "/>
</clipPath>
<clipPath id="clip2">
  <path d="M 322 16.722656 L 357.972656 16.722656 L 357.972656 53 L 322 53 Z M 322 16.722656 "/>
</clipPath>
<clipPath id="clip3">
  <path d="M 16.722656 70 L 35 70 L 35 89 L 16.722656 89 Z M 16.722656 70 "/>
</clipPath>
</defs>
<g id="surface1">
<path style=" stroke:none;fill-rule:nonzero;fill:rgb(94.509888%,73.728943%,9.799194%);fill-opacity:1;" d="M 317.625 25.703125 C 317.625 26 317.59375 26.292969 317.535156 26.582031 C 317.480469 26.871094 317.394531 27.152344 317.28125 27.421875 C 317.167969 27.695312 317.03125 27.953125 316.867188 28.199219 C 316.703125 28.445312 316.515625 28.671875 316.308594 28.878906 C 316.097656 29.089844 315.871094 29.273438 315.628906 29.4375 C 315.382812 29.601562 315.125 29.742188 314.851562 29.855469 C 314.578125 29.964844 314.296875 30.050781 314.007812 30.109375 C 313.71875 30.167969 313.425781 30.195312 313.132812 30.195312 C 312.835938 30.195312 312.546875 30.167969 312.257812 30.109375 C 311.964844 30.050781 311.6875 29.964844 311.414062 29.855469 C 311.140625 29.742188 310.882812 29.601562 310.636719 29.4375 C 310.390625 29.273438 310.164062 29.089844 309.957031 28.878906 C 309.746094 28.671875 309.5625 28.445312 309.398438 28.199219 C 309.234375 27.953125 309.09375 27.695312 308.984375 27.421875 C 308.871094 27.152344 308.785156 26.871094 308.726562 26.582031 C 308.667969 26.292969 308.640625 26 308.640625 25.703125 C 308.640625 25.410156 308.667969 25.117188 308.726562 24.828125 C 308.785156 24.539062 308.871094 24.257812 308.984375 23.984375 C 309.09375 23.714844 309.234375 23.453125 309.398438 23.210938 C 309.5625 22.964844 309.746094 22.738281 309.957031 22.527344 C 310.164062 22.320312 310.390625 22.132812 310.636719 21.96875 C 310.882812 21.804688 311.140625 21.667969 311.414062 21.554688 C 311.6875 21.441406 311.964844 21.355469 312.257812 21.300781 C 312.546875 21.242188 312.835938 21.214844 313.132812 21.214844 C 313.425781 21.214844 313.71875 21.242188 314.007812 21.300781 C 314.296875 21.355469 314.578125 21.441406 314.851562 21.554688 C 315.125 21.667969 315.382812 21.804688 315.628906 21.96875 C 315.871094 22.132812 316.097656 22.320312 316.308594 22.527344 C 316.515625 22.738281 316.703125 22.964844 316.867188 23.210938 C 317.03125 23.453125 317.167969 23.714844 317.28125 23.984375 C 317.394531 24.257812 317.480469 24.539062 317.535156 24.828125 C 317.59375 25.117188 317.625 25.410156 317.625 25.703125 Z M 317.625 25.703125 "/>
<g clip-path="url(#clip1)" clip-rule="nonzero">
<path style=" stroke:none;fill-rule:nonzero;fill:rgb(97.648621%,85.879517%,82.348633%);fill-opacity:1;" d="M 358.042969 187.382812 C 358.042969 190.175781 357.972656 192.964844 357.835938 195.757812 C 357.699219 198.546875 357.496094 201.332031 357.222656 204.109375 C 356.945312 206.890625 356.605469 209.660156 356.195312 212.421875 C 355.785156 215.1875 355.308594 217.9375 354.761719 220.675781 C 354.21875 223.414062 353.605469 226.140625 352.929688 228.847656 C 352.25 231.558594 351.503906 234.25 350.695312 236.921875 C 349.882812 239.59375 349.007812 242.246094 348.066406 244.875 C 347.125 247.507812 346.121094 250.109375 345.050781 252.691406 C 343.984375 255.273438 342.851562 257.824219 341.65625 260.347656 C 340.464844 262.875 339.207031 265.367188 337.890625 267.832031 C 336.574219 270.292969 335.199219 272.722656 333.761719 275.121094 C 332.328125 277.515625 330.832031 279.875 329.28125 282.195312 C 327.730469 284.519531 326.121094 286.800781 324.457031 289.042969 C 322.792969 291.289062 321.078125 293.488281 319.304688 295.648438 C 317.53125 297.808594 315.707031 299.921875 313.832031 301.992188 C 311.957031 304.058594 310.03125 306.082031 308.058594 308.058594 C 306.082031 310.03125 304.058594 311.957031 301.992188 313.832031 C 299.921875 315.707031 297.808594 317.53125 295.648438 319.304688 C 293.488281 321.078125 291.289062 322.792969 289.042969 324.457031 C 286.800781 326.121094 284.519531 327.730469 282.195312 329.28125 C 279.875 330.832031 277.515625 332.328125 275.121094 333.761719 C 272.722656 335.199219 270.292969 336.574219 267.832031 337.890625 C 265.367188 339.207031 262.875 340.464844 260.347656 341.65625 C 257.824219 342.851562 255.273438 343.984375 252.691406 345.050781 C 250.109375 346.121094 247.507812 347.125 244.875 348.066406 C 242.246094 349.007812 239.59375 349.882812 236.921875 350.695312 C 234.25 351.503906 231.558594 352.25 228.847656 352.929688 C 226.140625 353.605469 223.414062 354.21875 220.675781 354.761719 C 217.9375 355.308594 215.1875 355.785156 212.421875 356.195312 C 209.660156 356.605469 206.890625 356.945312 204.109375 357.222656 C 201.332031 357.496094 198.546875 357.699219 195.757812 357.835938 C 192.964844 357.972656 190.175781 358.042969 187.382812 358.042969 C 184.589844 358.042969 181.796875 357.972656 179.007812 357.835938 C 176.21875 357.699219 173.433594 357.496094 170.65625 357.222656 C 167.875 356.945312 165.105469 356.605469 162.339844 356.195312 C 159.578125 355.785156 156.828125 355.308594 154.089844 354.761719 C 151.347656 354.21875 148.625 353.605469 145.914062 352.929688 C 143.207031 352.25 140.515625 351.503906 137.84375 350.695312 C 135.167969 349.882812 132.519531 349.007812 129.890625 348.066406 C 127.257812 347.125 124.652344 346.121094 122.074219 345.050781 C 119.492188 343.984375 116.941406 342.851562 114.414062 341.65625 C 111.890625 340.464844 109.398438 339.207031 106.933594 337.890625 C 104.46875 336.574219 102.042969 335.199219 99.644531 333.761719 C 97.25 332.328125 94.890625 330.832031 92.570312 329.28125 C 90.246094 327.730469 87.964844 326.121094 85.71875 324.457031 C 83.476562 322.792969 81.277344 321.078125 79.117188 319.304688 C 76.957031 317.53125 74.84375 315.707031 72.773438 313.832031 C 70.703125 311.957031 68.683594 310.03125 66.707031 308.058594 C 64.734375 306.082031 62.808594 304.058594 60.933594 301.992188 C 59.054688 299.921875 57.230469 297.808594 55.460938 295.648438 C 53.6875 293.488281 51.972656 291.289062 50.308594 289.042969 C 48.644531 286.800781 47.035156 284.519531 45.484375 282.195312 C 43.933594 279.875 42.4375 277.515625 41.003906 275.121094 C 39.566406 272.722656 38.191406 270.292969 36.875 267.832031 C 35.558594 265.367188 34.300781 262.875 33.109375 260.347656 C 31.914062 257.824219 30.78125 255.273438 29.714844 252.691406 C 28.644531 250.109375 27.640625 247.507812 26.699219 244.875 C 25.757812 242.246094 24.882812 239.59375 24.070312 236.921875 C 23.261719 234.25 22.515625 231.558594 21.835938 228.847656 C 21.15625 226.140625 20.546875 223.414062 20 220.675781 C 19.457031 217.9375 18.980469 215.1875 18.570312 212.421875 C 18.160156 209.660156 17.816406 206.890625 17.542969 204.109375 C 17.269531 201.332031 17.066406 198.546875 16.929688 195.757812 C 16.789062 192.964844 16.722656 190.175781 16.722656 187.382812 C 16.722656 184.589844 16.789062 181.796875 16.929688 179.007812 C 17.066406 176.21875 17.269531 173.433594 17.542969 170.65625 C 17.816406 167.875 18.160156 165.105469 18.570312 162.339844 C 18.980469 159.578125 19.457031 156.828125 20 154.089844 C 20.546875 151.347656 21.15625 148.625 21.835938 145.914062 C 22.515625 143.207031 23.261719 140.515625 24.070312 137.84375 C 24.882812 135.167969 25.757812 132.519531 26.699219 129.890625 C 27.640625 127.257812 28.644531 124.652344 29.714844 122.074219 C 30.78125 119.492188 31.914062 116.941406 33.109375 114.414062 C 34.300781 111.890625 35.558594 109.398438 36.875 106.933594 C 38.191406 104.46875 39.566406 102.042969 41.003906 99.644531 C 42.4375 97.25 43.933594 94.890625 45.484375 92.570312 C 47.035156 90.246094 48.644531 87.964844 50.308594 85.71875 C 51.972656 83.476562 53.6875 81.277344 55.460938 79.117188 C 57.230469 76.957031 59.054688 74.84375 60.933594 72.773438 C 62.808594 70.703125 64.734375 68.683594 66.707031 66.707031 C 68.683594 64.734375 70.703125 62.808594 72.773438 60.933594 C 74.84375 59.054688 76.957031 57.230469 79.117188 55.460938 C 81.277344 53.6875 83.476562 51.972656 85.71875 50.308594 C 87.964844 48.644531 90.246094 47.035156 92.570312 45.484375 C 94.890625 43.933594 97.25 42.4375 99.644531 41.003906 C 102.042969 39.566406 104.46875 38.191406 106.933594 36.875 C 109.398438 35.558594 111.890625 34.300781 114.414062 33.109375 C 116.941406 31.914062 119.492188 30.78125 122.074219 29.714844 C 124.652344 28.644531 127.257812 27.640625 129.890625 26.699219 C 132.519531 25.757812 135.167969 24.882812 137.84375 24.070312 C 140.515625 23.261719 143.207031 22.515625 145.914062 21.835938 C 148.625 21.15625 151.347656 20.546875 154.089844 20 C 156.828125 19.457031 159.578125 18.980469 162.339844 18.570312 C 165.105469 18.160156 167.875 17.816406 170.65625 17.542969 C 173.433594 17.269531 176.21875 17.066406 179.007812 16.929688 C 181.796875 16.789062 184.589844 16.722656 187.382812 16.722656 C 190.175781 16.722656 192.964844 16.789062 195.757812 16.929688 C 198.546875 17.066406 201.332031 17.269531 204.109375 17.542969 C 206.890625 17.816406 209.660156 18.160156 212.421875 18.570312 C 215.1875 18.980469 217.9375 19.457031 220.675781 20 C 223.414062 20.546875 226.140625 21.15625 228.847656 21.835938 C 231.558594 22.515625 234.25 23.261719 236.921875 24.070312 C 239.59375 24.882812 242.246094 25.757812 244.875 26.699219 C 247.507812 27.640625 250.109375 28.644531 252.691406 29.714844 C 255.273438 30.78125 257.824219 31.914062 260.347656 33.109375 C 262.875 34.300781 265.367188 35.558594 267.832031 36.875 C 270.292969 38.191406 272.722656 39.566406 275.121094 41.003906 C 277.515625 42.4375 279.875 43.933594 282.195312 45.484375 C 284.519531 47.035156 286.800781 48.644531 289.042969 50.308594 C 291.289062 51.972656 293.488281 53.6875 295.648438 55.460938 C 297.808594 57.230469 299.921875 59.054688 301.992188 60.933594 C 304.058594 62.808594 306.082031 64.734375 308.058594 66.707031 C 310.03125 68.683594 311.957031 70.703125 313.832031 72.773438 C 315.707031 74.84375 317.53125 76.957031 319.304688 79.117188 C 321.078125 81.277344 322.792969 83.476562 324.457031 85.71875 C 326.121094 87.964844 327.730469 90.246094 329.28125 92.570312 C 330.832031 94.890625 332.328125 97.25 333.761719 99.644531 C 335.199219 102.042969 336.574219 104.46875 337.890625 106.933594 C 339.207031 109.398438 340.464844 111.890625 341.65625 114.414062 C 342.851562 116.941406 343.984375 119.492188 345.050781 122.074219 C 346.121094 124.652344 347.125 127.257812 348.066406 129.890625 C 349.007812 132.519531 349.882812 135.167969 350.695312 137.84375 C 351.503906 140.515625 352.25 143.207031 352.929688 145.914062 C 353.605469 148.625 354.21875 151.347656 354.761719 154.089844 C 355.308594 156.828125 355.785156 159.578125 356.195312 162.339844 C 356.605469 165.105469 356.945312 167.875 357.222656 170.65625 C 357.496094 173.433594 357.699219 176.21875 357.835938 179.007812 C 357.972656 181.796875 358.042969 184.589844 358.042969 187.382812 Z M 358.042969 187.382812 "/>
</g>
<g clip-path="url(#clip2)" clip-rule="nonzero">
<path style=" stroke:none;fill-rule:nonzero;fill:rgb(94.509888%,73.728943%,9.799194%);fill-opacity:1;" d="M 358.042969 34.6875 C 358.042969 35.273438 358.015625 35.863281 357.957031 36.449219 C 357.898438 37.03125 357.8125 37.613281 357.699219 38.191406 C 357.582031 38.769531 357.441406 39.339844 357.269531 39.902344 C 357.097656 40.464844 356.898438 41.019531 356.675781 41.5625 C 356.449219 42.105469 356.199219 42.636719 355.921875 43.15625 C 355.644531 43.671875 355.34375 44.179688 355.015625 44.667969 C 354.6875 45.15625 354.339844 45.628906 353.964844 46.082031 C 353.589844 46.539062 353.195312 46.972656 352.78125 47.390625 C 352.363281 47.804688 351.929688 48.199219 351.476562 48.574219 C 351.019531 48.945312 350.546875 49.296875 350.058594 49.625 C 349.570312 49.949219 349.066406 50.253906 348.546875 50.53125 C 348.027344 50.808594 347.496094 51.058594 346.953125 51.285156 C 346.410156 51.507812 345.855469 51.707031 345.292969 51.878906 C 344.730469 52.046875 344.160156 52.191406 343.582031 52.304688 C 343.007812 52.421875 342.425781 52.507812 341.839844 52.5625 C 341.253906 52.621094 340.667969 52.652344 340.078125 52.652344 C 339.488281 52.652344 338.902344 52.621094 338.316406 52.5625 C 337.730469 52.507812 337.152344 52.421875 336.574219 52.304688 C 335.996094 52.191406 335.425781 52.046875 334.863281 51.878906 C 334.300781 51.707031 333.746094 51.507812 333.203125 51.285156 C 332.660156 51.058594 332.128906 50.808594 331.609375 50.53125 C 331.089844 50.253906 330.585938 49.949219 330.097656 49.625 C 329.609375 49.296875 329.136719 48.945312 328.683594 48.574219 C 328.226562 48.199219 327.792969 47.804688 327.375 47.390625 C 326.960938 46.972656 326.566406 46.539062 326.191406 46.082031 C 325.820312 45.628906 325.46875 45.15625 325.140625 44.667969 C 324.816406 44.179688 324.511719 43.671875 324.234375 43.15625 C 323.957031 42.636719 323.707031 42.105469 323.480469 41.5625 C 323.257812 41.019531 323.058594 40.464844 322.886719 39.902344 C 322.71875 39.339844 322.574219 38.769531 322.460938 38.191406 C 322.34375 37.613281 322.257812 37.03125 322.199219 36.449219 C 322.144531 35.863281 322.113281 35.273438 322.113281 34.6875 C 322.113281 34.097656 322.144531 33.511719 322.199219 32.925781 C 322.257812 32.339844 322.34375 31.757812 322.460938 31.183594 C 322.574219 30.605469 322.71875 30.035156 322.886719 29.472656 C 323.058594 28.910156 323.257812 28.355469 323.480469 27.8125 C 323.707031 27.269531 323.957031 26.738281 324.234375 26.21875 C 324.511719 25.699219 324.816406 25.195312 325.140625 24.707031 C 325.46875 24.21875 325.820312 23.746094 326.191406 23.289062 C 326.566406 22.835938 326.960938 22.398438 327.375 21.984375 C 327.792969 21.566406 328.226562 21.171875 328.683594 20.800781 C 329.136719 20.425781 329.609375 20.078125 330.097656 19.75 C 330.585938 19.421875 331.089844 19.121094 331.609375 18.84375 C 332.128906 18.566406 332.660156 18.316406 333.203125 18.089844 C 333.746094 17.863281 334.300781 17.667969 334.863281 17.496094 C 335.425781 17.324219 335.996094 17.183594 336.574219 17.066406 C 337.152344 16.953125 337.730469 16.867188 338.316406 16.808594 C 338.902344 16.75 339.488281 16.722656 340.078125 16.722656 C 340.667969 16.722656 341.253906 16.75 341.839844 16.808594 C 342.425781 16.867188 343.007812 16.953125 343.582031 17.066406 C 344.160156 17.183594 344.730469 17.324219 345.292969 17.496094 C 345.855469 17.667969 346.410156 17.863281 346.953125 18.089844 C 347.496094 18.316406 348.027344 18.566406 348.546875 18.84375 C 349.066406 19.121094 349.570312 19.421875 350.058594 19.75 C 350.546875 20.078125 351.019531 20.425781 351.476562 20.800781 C 351.929688 21.171875 352.363281 21.566406 352.78125 21.984375 C 353.195312 22.398438 353.589844 22.835938 353.964844 23.289062 C 354.339844 23.746094 354.6875 24.21875 355.015625 24.707031 C 355.34375 25.195312 355.644531 25.699219 355.921875 26.21875 C 356.199219 26.738281 356.449219 27.269531 356.675781 27.8125 C 356.898438 28.355469 357.097656 28.910156 357.269531 29.472656 C 357.441406 30.035156 357.582031 30.605469 357.699219 31.183594 C 357.8125 31.757812 357.898438 32.339844 357.957031 32.925781 C 358.015625 33.511719 358.042969 34.097656 358.042969 34.6875 Z M 358.042969 34.6875 "/>
</g>
<g clip-path="url(#clip3)" clip-rule="nonzero">
<path style=" stroke:none;fill-rule:nonzero;fill:rgb(93.328857%,24.308777%,32.939148%);fill-opacity:1;" d="M 34.6875 79.597656 C 34.6875 80.1875 34.628906 80.769531 34.515625 81.347656 C 34.398438 81.929688 34.230469 82.488281 34.003906 83.035156 C 33.777344 83.578125 33.5 84.097656 33.171875 84.585938 C 32.84375 85.078125 32.472656 85.53125 32.054688 85.949219 C 31.640625 86.367188 31.183594 86.738281 30.695312 87.066406 C 30.203125 87.394531 29.6875 87.667969 29.140625 87.894531 C 28.597656 88.121094 28.035156 88.292969 27.457031 88.40625 C 26.878906 88.523438 26.292969 88.578125 25.703125 88.578125 C 25.113281 88.578125 24.53125 88.523438 23.953125 88.40625 C 23.375 88.292969 22.8125 88.121094 22.265625 87.894531 C 21.722656 87.667969 21.203125 87.394531 20.714844 87.066406 C 20.222656 86.738281 19.769531 86.367188 19.351562 85.949219 C 18.9375 85.53125 18.5625 85.078125 18.234375 84.585938 C 17.910156 84.097656 17.632812 83.578125 17.40625 83.035156 C 17.179688 82.488281 17.011719 81.929688 16.894531 81.347656 C 16.78125 80.769531 16.722656 80.1875 16.722656 79.597656 C 16.722656 79.007812 16.78125 78.421875 16.894531 77.84375 C 17.011719 77.265625 17.179688 76.703125 17.40625 76.160156 C 17.632812 75.613281 17.910156 75.097656 18.234375 74.605469 C 18.5625 74.117188 18.9375 73.664062 19.351562 73.246094 C 19.769531 72.828125 20.222656 72.457031 20.714844 72.128906 C 21.203125 71.800781 21.722656 71.523438 22.265625 71.296875 C 22.8125 71.074219 23.375 70.902344 23.953125 70.789062 C 24.53125 70.671875 25.113281 70.613281 25.703125 70.613281 C 26.292969 70.613281 26.878906 70.671875 27.457031 70.789062 C 28.035156 70.902344 28.597656 71.074219 29.140625 71.296875 C 29.6875 71.523438 30.203125 71.800781 30.695312 72.128906 C 31.183594 72.457031 31.640625 72.828125 32.054688 73.246094 C 32.472656 73.664062 32.84375 74.117188 33.171875 74.605469 C 33.5 75.097656 33.777344 75.613281 34.003906 76.160156 C 34.230469 76.703125 34.398438 77.265625 34.515625 77.84375 C 34.628906 78.421875 34.6875 79.007812 34.6875 79.597656 Z M 34.6875 79.597656 "/>
</g>
<path style=" stroke:none;fill-rule:nonzero;fill:rgb(98.429871%,80.389404%,34.899902%);fill-opacity:1;" d="M 322.113281 308.640625 C 322.113281 309.230469 322.058594 309.816406 321.941406 310.394531 C 321.828125 310.972656 321.65625 311.535156 321.429688 312.078125 C 321.203125 312.625 320.929688 313.140625 320.601562 313.632812 C 320.273438 314.121094 319.902344 314.574219 319.484375 314.992188 C 319.066406 315.410156 318.613281 315.78125 318.121094 316.109375 C 317.632812 316.4375 317.113281 316.714844 316.570312 316.9375 C 316.023438 317.164062 315.460938 317.335938 314.882812 317.449219 C 314.304688 317.566406 313.722656 317.625 313.132812 317.625 C 312.542969 317.625 311.957031 317.566406 311.378906 317.449219 C 310.800781 317.335938 310.238281 317.164062 309.695312 316.9375 C 309.148438 316.714844 308.632812 316.4375 308.140625 316.109375 C 307.652344 315.78125 307.199219 315.410156 306.78125 314.992188 C 306.363281 314.574219 305.992188 314.121094 305.664062 313.632812 C 305.335938 313.140625 305.058594 312.625 304.832031 312.078125 C 304.609375 311.535156 304.4375 310.972656 304.324219 310.394531 C 304.207031 309.816406 304.148438 309.230469 304.148438 308.640625 C 304.148438 308.050781 304.207031 307.46875 304.324219 306.890625 C 304.4375 306.308594 304.609375 305.75 304.832031 305.203125 C 305.058594 304.660156 305.335938 304.140625 305.664062 303.652344 C 305.992188 303.160156 306.363281 302.707031 306.78125 302.289062 C 307.199219 301.871094 307.652344 301.5 308.140625 301.171875 C 308.632812 300.84375 309.148438 300.566406 309.695312 300.34375 C 310.238281 300.117188 310.800781 299.945312 311.378906 299.832031 C 311.957031 299.714844 312.542969 299.660156 313.132812 299.660156 C 313.722656 299.660156 314.304688 299.714844 314.882812 299.832031 C 315.460938 299.945312 316.023438 300.117188 316.570312 300.34375 C 317.113281 300.566406 317.632812 300.84375 318.121094 301.171875 C 318.613281 301.5 319.066406 301.871094 319.484375 302.289062 C 319.902344 302.707031 320.273438 303.160156 320.601562 303.652344 C 320.929688 304.140625 321.203125 304.660156 321.429688 305.203125 C 321.65625 305.75 321.828125 306.308594 321.941406 306.890625 C 322.058594 307.46875 322.113281 308.050781 322.113281 308.640625 Z M 322.113281 308.640625 "/>
<path style=" stroke:none;fill-rule:nonzero;fill:rgb(98.429871%,80.389404%,34.899902%);fill-opacity:1;" d="M 57.140625 313.132812 C 57.140625 313.71875 57.113281 314.308594 57.054688 314.894531 C 56.996094 315.476562 56.910156 316.058594 56.796875 316.636719 C 56.683594 317.214844 56.539062 317.785156 56.367188 318.347656 C 56.199219 318.910156 56 319.464844 55.773438 320.007812 C 55.550781 320.550781 55.296875 321.082031 55.019531 321.601562 C 54.742188 322.121094 54.441406 322.625 54.113281 323.113281 C 53.789062 323.601562 53.4375 324.074219 53.0625 324.527344 C 52.691406 324.984375 52.296875 325.417969 51.878906 325.835938 C 51.464844 326.25 51.027344 326.644531 50.574219 327.019531 C 50.121094 327.390625 49.648438 327.742188 49.15625 328.070312 C 48.667969 328.394531 48.164062 328.699219 47.644531 328.976562 C 47.128906 329.253906 46.597656 329.503906 46.050781 329.730469 C 45.507812 329.953125 44.957031 330.152344 44.390625 330.324219 C 43.828125 330.492188 43.257812 330.636719 42.683594 330.75 C 42.105469 330.867188 41.523438 330.953125 40.9375 331.011719 C 40.351562 331.066406 39.765625 331.097656 39.175781 331.097656 C 38.589844 331.097656 38.003906 331.066406 37.417969 331.011719 C 36.832031 330.953125 36.25 330.867188 35.671875 330.75 C 35.097656 330.636719 34.527344 330.492188 33.964844 330.324219 C 33.398438 330.152344 32.847656 329.953125 32.304688 329.730469 C 31.757812 329.503906 31.226562 329.253906 30.710938 328.976562 C 30.191406 328.699219 29.6875 328.394531 29.195312 328.070312 C 28.707031 327.742188 28.234375 327.390625 27.78125 327.019531 C 27.328125 326.644531 26.890625 326.25 26.476562 325.835938 C 26.058594 325.417969 25.664062 324.984375 25.292969 324.527344 C 24.917969 324.074219 24.566406 323.601562 24.242188 323.113281 C 23.914062 322.625 23.613281 322.121094 23.335938 321.601562 C 23.058594 321.082031 22.804688 320.550781 22.582031 320.007812 C 22.355469 319.464844 22.15625 318.910156 21.988281 318.347656 C 21.816406 317.785156 21.671875 317.214844 21.558594 316.636719 C 21.445312 316.058594 21.359375 315.476562 21.300781 314.894531 C 21.242188 314.308594 21.214844 313.71875 21.214844 313.132812 C 21.214844 312.542969 21.242188 311.957031 21.300781 311.371094 C 21.359375 310.785156 21.445312 310.203125 21.558594 309.628906 C 21.671875 309.050781 21.816406 308.480469 21.988281 307.917969 C 22.15625 307.355469 22.355469 306.800781 22.582031 306.257812 C 22.804688 305.714844 23.058594 305.183594 23.335938 304.664062 C 23.613281 304.144531 23.914062 303.640625 24.242188 303.152344 C 24.566406 302.664062 24.917969 302.191406 25.292969 301.734375 C 25.664062 301.28125 26.058594 300.84375 26.476562 300.429688 C 26.890625 300.011719 27.328125 299.617188 27.78125 299.246094 C 28.234375 298.871094 28.707031 298.523438 29.195312 298.195312 C 29.6875 297.867188 30.191406 297.566406 30.710938 297.289062 C 31.226562 297.011719 31.757812 296.761719 32.304688 296.535156 C 32.847656 296.308594 33.398438 296.113281 33.964844 295.941406 C 34.527344 295.769531 35.097656 295.628906 35.671875 295.511719 C 36.25 295.398438 36.832031 295.3125 37.417969 295.253906 C 38.003906 295.195312 38.589844 295.167969 39.175781 295.167969 C 39.765625 295.167969 40.351562 295.195312 40.9375 295.253906 C 41.523438 295.3125 42.105469 295.398438 42.683594 295.511719 C 43.257812 295.628906 43.828125 295.769531 44.390625 295.941406 C 44.957031 296.113281 45.507812 296.308594 46.050781 296.535156 C 46.597656 296.761719 47.128906 297.011719 47.644531 297.289062 C 48.164062 297.566406 48.667969 297.867188 49.15625 298.195312 C 49.648438 298.523438 50.121094 298.871094 50.574219 299.246094 C 51.027344 299.617188 51.464844 300.011719 51.878906 300.429688 C 52.296875 300.84375 52.691406 301.28125 53.0625 301.734375 C 53.4375 302.191406 53.789062 302.664062 54.113281 303.152344 C 54.441406 303.640625 54.742188 304.144531 55.019531 304.664062 C 55.296875 305.183594 55.550781 305.714844 55.773438 306.257812 C 56 306.800781 56.199219 307.355469 56.367188 307.917969 C 56.539062 308.480469 56.683594 309.050781 56.796875 309.628906 C 56.910156 310.203125 56.996094 310.785156 57.054688 311.371094 C 57.113281 311.957031 57.140625 312.542969 57.140625 313.132812 Z M 57.140625 313.132812 "/>
<path style=" stroke:none;fill-rule:nonzero;fill:rgb(93.328857%,24.308777%,32.939148%);fill-opacity:1;" d="M 79.597656 335.585938 C 79.597656 336.175781 79.539062 336.761719 79.425781 337.339844 C 79.308594 337.917969 79.140625 338.480469 78.914062 339.023438 C 78.6875 339.570312 78.410156 340.085938 78.082031 340.578125 C 77.753906 341.066406 77.382812 341.523438 76.964844 341.9375 C 76.550781 342.355469 76.09375 342.726562 75.605469 343.054688 C 75.113281 343.382812 74.597656 343.660156 74.050781 343.886719 C 73.507812 344.113281 72.945312 344.28125 72.367188 344.398438 C 71.789062 344.511719 71.203125 344.570312 70.613281 344.570312 C 70.023438 344.570312 69.441406 344.511719 68.863281 344.398438 C 68.285156 344.28125 67.722656 344.113281 67.175781 343.886719 C 66.632812 343.660156 66.113281 343.382812 65.625 343.054688 C 65.132812 342.726562 64.679688 342.355469 64.265625 341.9375 C 63.847656 341.523438 63.472656 341.066406 63.148438 340.578125 C 62.820312 340.085938 62.542969 339.570312 62.316406 339.023438 C 62.089844 338.480469 61.921875 337.917969 61.804688 337.339844 C 61.691406 336.761719 61.632812 336.175781 61.632812 335.585938 C 61.632812 334.996094 61.691406 334.414062 61.804688 333.835938 C 61.921875 333.257812 62.089844 332.695312 62.316406 332.148438 C 62.542969 331.605469 62.820312 331.085938 63.148438 330.597656 C 63.472656 330.105469 63.847656 329.652344 64.265625 329.234375 C 64.679688 328.820312 65.132812 328.445312 65.625 328.117188 C 66.113281 327.792969 66.632812 327.515625 67.175781 327.289062 C 67.722656 327.0625 68.285156 326.894531 68.863281 326.777344 C 69.441406 326.664062 70.023438 326.605469 70.613281 326.605469 C 71.203125 326.605469 71.789062 326.664062 72.367188 326.777344 C 72.945312 326.894531 73.507812 327.0625 74.050781 327.289062 C 74.597656 327.515625 75.113281 327.792969 75.605469 328.117188 C 76.09375 328.445312 76.550781 328.820312 76.964844 329.234375 C 77.382812 329.652344 77.753906 330.105469 78.082031 330.597656 C 78.410156 331.085938 78.6875 331.605469 78.914062 332.148438 C 79.140625 332.695312 79.308594 333.257812 79.425781 333.835938 C 79.539062 334.414062 79.597656 334.996094 79.597656 335.585938 Z M 79.597656 335.585938 "/>
<path style=" stroke:none;fill-rule:nonzero;fill:rgb(100%,100%,100%);fill-opacity:1;" d="M 317.46875 275.035156 C 317.46875 275.765625 317.398438 276.492188 317.257812 277.210938 C 317.113281 277.929688 316.902344 278.625 316.621094 279.300781 C 316.339844 279.976562 315.996094 280.621094 315.589844 281.230469 C 315.183594 281.839844 314.722656 282.402344 314.203125 282.917969 C 313.6875 283.4375 313.125 283.898438 312.515625 284.304688 C 311.90625 284.714844 311.261719 285.058594 310.585938 285.335938 C 309.910156 285.617188 309.210938 285.828125 308.496094 285.972656 C 307.777344 286.113281 307.050781 286.1875 306.320312 286.1875 C 305.585938 286.1875 304.863281 286.113281 304.144531 285.972656 C 303.425781 285.828125 302.726562 285.617188 302.050781 285.335938 C 301.375 285.058594 300.734375 284.714844 300.125 284.304688 C 299.515625 283.898438 298.953125 283.4375 298.433594 282.917969 C 297.917969 282.402344 297.453125 281.839844 297.046875 281.230469 C 296.640625 280.621094 296.296875 279.976562 296.015625 279.300781 C 295.738281 278.625 295.523438 277.929688 295.382812 277.210938 C 295.238281 276.492188 295.167969 275.765625 295.167969 275.035156 C 295.167969 274.300781 295.238281 273.578125 295.382812 272.859375 C 295.523438 272.140625 295.738281 271.445312 296.015625 270.765625 C 296.296875 270.089844 296.640625 269.449219 297.046875 268.839844 C 297.453125 268.230469 297.917969 267.667969 298.433594 267.148438 C 298.953125 266.632812 299.515625 266.167969 300.125 265.761719 C 300.734375 265.355469 301.375 265.011719 302.050781 264.730469 C 302.726562 264.453125 303.425781 264.242188 304.144531 264.097656 C 304.863281 263.953125 305.585938 263.882812 306.320312 263.882812 C 307.050781 263.882812 307.777344 263.953125 308.496094 264.097656 C 309.210938 264.242188 309.910156 264.453125 310.585938 264.730469 C 311.261719 265.011719 311.90625 265.355469 312.515625 265.761719 C 313.125 266.167969 313.6875 266.632812 314.203125 267.148438 C 314.722656 267.667969 315.183594 268.230469 315.589844 268.839844 C 315.996094 269.449219 316.339844 270.089844 316.621094 270.765625 C 316.902344 271.445312 317.113281 272.140625 317.257812 272.859375 C 317.398438 273.578125 317.46875 274.300781 317.46875 275.035156 Z M 317.46875 275.035156 "/>
<path style=" stroke:none;fill-rule:nonzero;fill:rgb(100%,100%,100%);fill-opacity:1;" d="M 34.6875 205.347656 C 34.6875 205.640625 34.65625 205.933594 34.601562 206.222656 C 34.542969 206.511719 34.457031 206.792969 34.34375 207.066406 C 34.230469 207.335938 34.09375 207.597656 33.929688 207.84375 C 33.765625 208.085938 33.578125 208.3125 33.371094 208.523438 C 33.164062 208.730469 32.9375 208.917969 32.691406 209.082031 C 32.445312 209.246094 32.1875 209.382812 31.914062 209.496094 C 31.640625 209.609375 31.359375 209.695312 31.070312 209.75 C 30.78125 209.808594 30.492188 209.835938 30.195312 209.835938 C 29.902344 209.835938 29.609375 209.808594 29.320312 209.75 C 29.03125 209.695312 28.75 209.609375 28.476562 209.496094 C 28.203125 209.382812 27.945312 209.246094 27.699219 209.082031 C 27.457031 208.917969 27.226562 208.730469 27.019531 208.523438 C 26.8125 208.3125 26.625 208.085938 26.460938 207.84375 C 26.296875 207.597656 26.160156 207.335938 26.046875 207.066406 C 25.933594 206.792969 25.847656 206.511719 25.789062 206.222656 C 25.734375 205.933594 25.703125 205.640625 25.703125 205.347656 C 25.703125 205.050781 25.734375 204.757812 25.789062 204.46875 C 25.847656 204.179688 25.933594 203.902344 26.046875 203.628906 C 26.160156 203.355469 26.296875 203.097656 26.460938 202.851562 C 26.625 202.605469 26.8125 202.378906 27.019531 202.171875 C 27.226562 201.960938 27.457031 201.777344 27.699219 201.613281 C 27.945312 201.449219 28.203125 201.308594 28.476562 201.199219 C 28.75 201.085938 29.03125 201 29.320312 200.941406 C 29.609375 200.882812 29.902344 200.855469 30.195312 200.855469 C 30.492188 200.855469 30.78125 200.882812 31.070312 200.941406 C 31.359375 201 31.640625 201.085938 31.914062 201.199219 C 32.1875 201.308594 32.445312 201.449219 32.691406 201.613281 C 32.9375 201.777344 33.164062 201.960938 33.371094 202.171875 C 33.578125 202.378906 33.765625 202.605469 33.929688 202.851562 C 34.09375 203.097656 34.230469 203.355469 34.34375 203.628906 C 34.457031 203.902344 34.542969 204.179688 34.601562 204.46875 C 34.65625 204.757812 34.6875 205.050781 34.6875 205.347656 Z M 34.6875 205.347656 "/>
<path style=" stroke:none;fill-rule:nonzero;fill:rgb(94.509888%,73.728943%,9.799194%);fill-opacity:1;" d="M 353.550781 102.050781 C 353.550781 102.347656 353.523438 102.640625 353.464844 102.929688 C 353.40625 103.21875 353.324219 103.5 353.210938 103.769531 C 353.097656 104.042969 352.957031 104.300781 352.792969 104.546875 C 352.628906 104.792969 352.445312 105.019531 352.234375 105.226562 C 352.027344 105.4375 351.800781 105.621094 351.554688 105.785156 C 351.308594 105.949219 351.050781 106.089844 350.777344 106.203125 C 350.507812 106.316406 350.226562 106.398438 349.9375 106.457031 C 349.648438 106.515625 349.355469 106.542969 349.0625 106.542969 C 348.765625 106.542969 348.472656 106.515625 348.183594 106.457031 C 347.894531 106.398438 347.613281 106.316406 347.34375 106.203125 C 347.070312 106.089844 346.8125 105.949219 346.566406 105.785156 C 346.320312 105.621094 346.09375 105.4375 345.886719 105.226562 C 345.675781 105.019531 345.488281 104.792969 345.328125 104.546875 C 345.164062 104.300781 345.023438 104.042969 344.910156 103.769531 C 344.796875 103.5 344.714844 103.21875 344.65625 102.929688 C 344.597656 102.640625 344.570312 102.347656 344.570312 102.050781 C 344.570312 101.757812 344.597656 101.464844 344.65625 101.175781 C 344.714844 100.886719 344.796875 100.605469 344.910156 100.332031 C 345.023438 100.0625 345.164062 99.800781 345.328125 99.558594 C 345.488281 99.3125 345.675781 99.085938 345.886719 98.875 C 346.09375 98.667969 346.320312 98.480469 346.566406 98.316406 C 346.8125 98.15625 347.070312 98.015625 347.34375 97.902344 C 347.613281 97.789062 347.894531 97.707031 348.183594 97.648438 C 348.472656 97.589844 348.765625 97.5625 349.0625 97.5625 C 349.355469 97.5625 349.648438 97.589844 349.9375 97.648438 C 350.226562 97.707031 350.507812 97.789062 350.777344 97.902344 C 351.050781 98.015625 351.308594 98.15625 351.554688 98.316406 C 351.800781 98.480469 352.027344 98.667969 352.234375 98.875 C 352.445312 99.085938 352.628906 99.3125 352.792969 99.558594 C 352.957031 99.800781 353.097656 100.0625 353.210938 100.332031 C 353.324219 100.605469 353.40625 100.886719 353.464844 101.175781 C 353.523438 101.464844 353.550781 101.757812 353.550781 102.050781 Z M 353.550781 102.050781 "/>
<path style=" stroke:none;fill-rule:nonzero;fill:rgb(100%,100%,100%);fill-opacity:1;" d="M 344.570312 223.3125 C 344.570312 223.902344 344.511719 224.484375 344.398438 225.0625 C 344.28125 225.640625 344.113281 226.203125 343.886719 226.75 C 343.660156 227.292969 343.382812 227.8125 343.054688 228.300781 C 342.726562 228.792969 342.355469 229.246094 341.9375 229.664062 C 341.523438 230.078125 341.066406 230.453125 340.578125 230.777344 C 340.085938 231.105469 339.570312 231.382812 339.023438 231.609375 C 338.480469 231.835938 337.917969 232.003906 337.339844 232.121094 C 336.761719 232.234375 336.175781 232.292969 335.585938 232.292969 C 334.996094 232.292969 334.414062 232.234375 333.835938 232.121094 C 333.257812 232.003906 332.695312 231.835938 332.148438 231.609375 C 331.605469 231.382812 331.085938 231.105469 330.597656 230.777344 C 330.105469 230.453125 329.652344 230.078125 329.234375 229.664062 C 328.820312 229.246094 328.445312 228.792969 328.117188 228.300781 C 327.792969 227.8125 327.515625 227.292969 327.289062 226.75 C 327.0625 226.203125 326.894531 225.640625 326.777344 225.0625 C 326.664062 224.484375 326.605469 223.902344 326.605469 223.3125 C 326.605469 222.722656 326.664062 222.136719 326.777344 221.558594 C 326.894531 220.980469 327.0625 220.417969 327.289062 219.875 C 327.515625 219.328125 327.792969 218.8125 328.117188 218.320312 C 328.445312 217.832031 328.820312 217.375 329.234375 216.960938 C 329.652344 216.542969 330.105469 216.171875 330.597656 215.84375 C 331.085938 215.515625 331.605469 215.238281 332.148438 215.011719 C 332.695312 214.785156 333.257812 214.617188 333.835938 214.5 C 334.414062 214.386719 334.996094 214.328125 335.585938 214.328125 C 336.175781 214.328125 336.761719 214.386719 337.339844 214.5 C 337.917969 214.617188 338.480469 214.785156 339.023438 215.011719 C 339.570312 215.238281 340.085938 215.515625 340.578125 215.84375 C 341.066406 216.171875 341.523438 216.542969 341.9375 216.960938 C 342.355469 217.375 342.726562 217.832031 343.054688 218.320312 C 343.382812 218.8125 343.660156 219.328125 343.886719 219.875 C 344.113281 220.417969 344.28125 220.980469 344.398438 221.558594 C 344.511719 222.136719 344.570312 222.722656 344.570312 223.3125 Z M 344.570312 223.3125 "/>
<path style=" stroke:none;fill-rule:nonzero;fill:rgb(96.469116%,79.998779%,64.309692%);fill-opacity:1;" d="M 172.707031 321.839844 C 171.035156 321.839844 169.457031 321.183594 168.273438 319.996094 L 91.371094 243.09375 C 88.757812 240.480469 90.21875 237.921875 91.902344 236.234375 L 120.847656 207.292969 C 121.480469 206.65625 121.867188 205.6875 121.8125 204.796875 C 121.203125 198.03125 120.601562 191.605469 120.015625 185.394531 C 117.558594 159.191406 115.4375 136.5625 115.242188 116.476562 C 115.535156 110.789062 120.3125 108.699219 124.316406 108.699219 C 129.492188 108.699219 136.820312 112.191406 140.457031 122.03125 L 154.695312 160.355469 C 155.148438 161.574219 156.300781 162.386719 157.597656 162.402344 C 157.664062 162.402344 157.726562 162.402344 157.789062 162.402344 C 158.980469 162.402344 159.6875 162.066406 166.523438 155.257812 L 244.761719 77.019531 C 247.558594 74.222656 251.28125 72.675781 255.238281 72.675781 C 259.199219 72.675781 262.921875 74.21875 265.71875 77.019531 C 271.5 82.800781 271.5 92.199219 265.71875 97.980469 L 232.753906 130.9375 C 231.832031 131.863281 231.574219 133.269531 232.113281 134.460938 C 232.625 135.585938 233.75 136.304688 234.980469 136.304688 C 235.050781 136.304688 235.882812 136.265625 236.226562 136.265625 C 240.207031 136.265625 243.910156 137.777344 246.660156 140.53125 C 251.0625 144.933594 252.199219 151.699219 249.488281 157.378906 C 248.988281 158.433594 249.109375 159.683594 249.8125 160.621094 C 250.410156 161.417969 251.347656 161.878906 252.328125 161.878906 C 252.492188 161.878906 252.664062 161.863281 252.835938 161.835938 C 253.644531 161.707031 254.460938 161.640625 255.277344 161.640625 C 259.238281 161.640625 262.945312 163.167969 265.714844 165.941406 C 269.519531 169.742188 270.917969 175.363281 269.367188 180.613281 C 269.039062 181.71875 269.34375 182.914062 270.15625 183.726562 C 270.757812 184.324219 271.5625 184.648438 272.378906 184.648438 C 272.675781 184.648438 272.976562 184.605469 273.269531 184.515625 C 274.671875 184.105469 276.117188 183.894531 277.570312 183.894531 C 281.507812 183.894531 285.183594 185.410156 287.941406 188.164062 C 292.691406 192.910156 293.613281 200.296875 290.183594 206.128906 C 290.148438 206.1875 290.117188 206.25 290.089844 206.3125 C 289.398438 207.457031 288.707031 208.363281 287.941406 209.128906 L 177.015625 320.0625 C 175.875 321.210938 174.34375 321.839844 172.707031 321.839844 Z M 172.707031 321.839844 "/>
<path style=" stroke:none;fill-rule:nonzero;fill:rgb(27.839661%,16.859436%,16.079712%);fill-opacity:1;" d="M 255.246094 75.824219 C 258.367188 75.824219 261.296875 77.042969 263.5 79.242188 C 265.707031 81.449219 266.917969 84.378906 266.917969 87.5 C 266.917969 90.617188 265.707031 93.550781 263.5 95.757812 L 230.542969 128.714844 C 228.691406 130.566406 228.179688 133.375 229.261719 135.757812 C 230.285156 138.011719 232.53125 139.445312 234.984375 139.445312 C 235.121094 139.445312 235.261719 139.441406 235.40625 139.429688 C 235.679688 139.414062 235.957031 139.40625 236.230469 139.40625 C 239.371094 139.40625 242.289062 140.59375 244.445312 142.753906 C 247.910156 146.21875 248.796875 151.546875 246.660156 156.019531 C 245.648438 158.132812 245.902344 160.632812 247.300781 162.507812 C 248.5 164.101562 250.375 165.023438 252.332031 165.023438 C 252.667969 165.023438 253.011719 164.996094 253.347656 164.941406 C 253.988281 164.835938 254.640625 164.785156 255.289062 164.785156 C 258.402344 164.785156 261.320312 165.984375 263.5 168.160156 C 266.488281 171.152344 267.582031 175.578125 266.363281 179.722656 C 265.710938 181.929688 266.316406 184.320312 267.949219 185.945312 C 269.140625 187.144531 270.75 187.785156 272.394531 187.785156 C 272.988281 187.785156 273.589844 187.703125 274.171875 187.53125 C 275.28125 187.203125 276.429688 187.035156 277.585938 187.035156 C 280.679688 187.035156 283.570312 188.226562 285.730469 190.386719 C 289.46875 194.125 290.191406 199.941406 287.488281 204.53125 C 287.449219 204.601562 287.40625 204.671875 287.367188 204.742188 C 286.808594 205.652344 286.289062 206.339844 285.730469 206.894531 L 269.667969 222.960938 L 253.976562 238.652344 L 250.8125 241.8125 L 237.117188 255.511719 L 174.796875 317.839844 C 174.054688 318.585938 173.167969 318.695312 172.707031 318.695312 C 172.226562 318.695312 171.300781 318.574219 170.496094 317.769531 L 93.597656 240.875 C 93.28125 240.5625 93.074219 240.242188 93.082031 240.085938 C 93.097656 239.855469 93.328125 239.257812 94.125 238.460938 L 123.101562 209.484375 C 124.398438 208.167969 125.105469 206.246094 124.9375 204.402344 C 124.335938 197.726562 123.730469 191.28125 123.148438 185.046875 C 120.707031 159.03125 118.597656 136.546875 118.390625 116.65625 C 118.707031 112.308594 122.628906 111.832031 124.320312 111.832031 C 128.480469 111.832031 134.4375 114.789062 137.515625 123.128906 L 151.757812 161.445312 C 152.675781 163.90625 155.023438 165.546875 157.652344 165.546875 C 160.058594 165.546875 160.707031 165.546875 168.757812 157.476562 L 199.359375 126.875 L 205.710938 120.519531 L 246.992188 79.238281 C 249.199219 77.039062 252.128906 75.824219 255.246094 75.824219 M 255.246094 69.539062 C 250.648438 69.539062 246.054688 71.292969 242.546875 74.796875 L 164.316406 153.027344 C 164.203125 153.136719 157.824219 159.253906 157.65625 159.253906 C 157.65625 159.253906 157.652344 159.253906 157.652344 159.253906 L 143.410156 120.9375 C 139.476562 110.269531 131.324219 105.546875 124.324219 105.546875 C 117.90625 105.546875 112.457031 109.511719 112.101562 116.5 C 112.351562 141.480469 115.527344 170.058594 118.679688 204.964844 C 118.683594 205.003906 118.65625 205.035156 118.625 205.0625 L 89.679688 234.007812 C 86.058594 237.625 85.808594 241.972656 89.148438 245.3125 L 166.050781 322.21875 C 167.890625 324.058594 170.304688 324.984375 172.707031 324.984375 C 175.078125 324.984375 177.4375 324.085938 179.238281 322.285156 L 241.5625 259.96875 L 258.421875 243.109375 L 274.113281 227.414062 L 290.179688 211.351562 C 291.25 210.277344 292.105469 209.078125 292.851562 207.832031 C 292.867188 207.808594 292.910156 207.757812 292.921875 207.742188 L 292.910156 207.726562 C 296.964844 200.84375 296.097656 191.859375 290.183594 185.945312 C 286.699219 182.464844 282.148438 180.753906 277.589844 180.753906 C 275.84375 180.753906 274.089844 181.003906 272.398438 181.503906 C 274.203125 175.394531 272.777344 168.539062 267.957031 163.71875 C 264.457031 160.21875 259.882812 158.496094 255.300781 158.496094 C 254.3125 158.496094 253.324219 158.578125 252.347656 158.734375 C 255.535156 152.054688 254.433594 143.839844 248.90625 138.3125 C 245.40625 134.816406 240.832031 133.125 236.246094 133.125 C 235.828125 133.125 235.414062 133.140625 234.996094 133.167969 L 267.957031 100.207031 C 274.972656 93.191406 274.972656 81.816406 267.957031 74.800781 C 264.441406 71.289062 259.847656 69.539062 255.246094 69.539062 Z M 255.246094 69.539062 "/>
<path style=" stroke:none;fill-rule:evenodd;fill:rgb(100%,100%,100%);fill-opacity:1;" d="M 176.394531 317.085938 L 204.703125 288.773438 L 124.316406 208.378906 L 96.003906 236.691406 C 94.289062 238.40625 94.289062 241.191406 96.003906 242.90625 L 170.175781 317.085938 C 171.894531 318.800781 174.675781 318.800781 176.394531 317.085938 Z M 176.394531 317.085938 "/>
<path style=" stroke:none;fill-rule:nonzero;fill:rgb(27.839661%,16.859436%,16.079712%);fill-opacity:1;" d="M 179.035156 264.402344 C 178.457031 264.402344 177.882812 264.183594 177.445312 263.75 L 123.457031 209.761719 C 122.582031 208.886719 122.582031 207.460938 123.457031 206.585938 C 124.332031 205.710938 125.757812 205.710938 126.632812 206.585938 L 180.617188 260.574219 C 181.496094 261.449219 181.496094 262.871094 180.617188 263.75 C 180.179688 264.1875 179.609375 264.402344 179.035156 264.402344 Z M 179.035156 264.402344 "/>
<path style=" stroke:none;fill-rule:nonzero;fill:rgb(27.839661%,16.859436%,16.079712%);fill-opacity:1;" d="M 191.734375 277.109375 C 191.160156 277.109375 190.585938 276.890625 190.144531 276.453125 L 183.792969 270.101562 C 182.917969 269.226562 182.917969 267.804688 183.792969 266.929688 C 184.667969 266.050781 186.09375 266.050781 186.96875 266.929688 L 193.320312 273.277344 C 194.195312 274.152344 194.195312 275.578125 193.320312 276.453125 C 192.882812 276.890625 192.308594 277.109375 191.734375 277.109375 Z M 191.734375 277.109375 "/>
<path style=" stroke:none;fill-rule:nonzero;fill:rgb(27.839661%,16.859436%,16.079712%);fill-opacity:1;" d="M 204.433594 289.808594 C 203.859375 289.808594 203.285156 289.589844 202.84375 289.15625 L 196.496094 282.804688 C 195.617188 281.929688 195.617188 280.503906 196.496094 279.628906 C 197.371094 278.753906 198.792969 278.753906 199.671875 279.628906 L 206.019531 285.980469 C 206.894531 286.855469 206.894531 288.277344 206.019531 289.15625 C 205.585938 289.589844 205.011719 289.808594 204.433594 289.808594 Z M 204.433594 289.808594 "/>
<path style=" stroke:none;fill-rule:nonzero;fill:rgb(27.839661%,16.859436%,16.079712%);fill-opacity:1;" d="M 172.679688 299.722656 C 170.28125 299.722656 168.027344 298.789062 166.328125 297.089844 C 164.628906 295.390625 163.695312 293.136719 163.695312 290.738281 C 163.695312 288.339844 164.628906 286.085938 166.328125 284.390625 C 169.722656 281 175.636719 281 179.027344 284.390625 C 180.726562 286.085938 181.660156 288.339844 181.660156 290.738281 C 181.660156 293.136719 180.726562 295.390625 179.027344 297.089844 C 177.335938 298.789062 175.082031 299.722656 172.679688 299.722656 Z M 172.679688 286.25 C 171.480469 286.25 170.351562 286.714844 169.503906 287.566406 C 168.65625 288.414062 168.1875 289.539062 168.1875 290.738281 C 168.1875 291.9375 168.65625 293.066406 169.503906 293.914062 C 171.203125 295.613281 174.15625 295.613281 175.855469 293.914062 C 176.703125 293.066406 177.167969 291.9375 177.167969 290.738281 C 177.167969 289.539062 176.703125 288.414062 175.855469 287.566406 C 175.003906 286.714844 173.878906 286.25 172.679688 286.25 Z M 172.679688 286.25 "/>
<path style=" stroke:none;fill-rule:nonzero;fill:rgb(27.839661%,16.859436%,16.079712%);fill-opacity:1;" d="M 148.382812 176.566406 C 147.578125 176.566406 146.773438 176.261719 146.160156 175.648438 C 144.933594 174.421875 144.933594 172.425781 146.160156 171.203125 L 160.980469 156.378906 C 162.207031 155.15625 164.199219 155.15625 165.425781 156.378906 C 166.652344 157.605469 166.652344 159.601562 165.425781 160.828125 L 150.605469 175.648438 C 149.988281 176.261719 149.1875 176.566406 148.382812 176.566406 Z M 148.382812 176.566406 "/>
<path style=" stroke:none;fill-rule:nonzero;fill:rgb(27.839661%,16.859436%,16.079712%);fill-opacity:1;" d="M 220.316406 172.308594 C 219.742188 172.308594 219.164062 172.089844 218.726562 171.65625 C 217.851562 170.777344 217.851562 169.355469 218.726562 168.480469 L 228.25 158.953125 C 229.125 158.078125 230.550781 158.078125 231.425781 158.953125 C 232.300781 159.828125 232.300781 161.253906 231.425781 162.128906 L 221.902344 171.65625 C 221.464844 172.089844 220.890625 172.308594 220.316406 172.308594 Z M 220.316406 172.308594 "/>
<path style=" stroke:none;fill-rule:nonzero;fill:rgb(27.839661%,16.859436%,16.079712%);fill-opacity:1;" d="M 242.542969 194.542969 C 241.96875 194.542969 241.390625 194.320312 240.953125 193.886719 C 240.074219 193.011719 240.074219 191.585938 240.953125 190.710938 L 250.480469 181.183594 C 251.359375 180.308594 252.78125 180.308594 253.65625 181.183594 C 254.53125 182.0625 254.53125 183.484375 253.65625 184.359375 L 244.128906 193.886719 C 243.691406 194.320312 243.117188 194.542969 242.542969 194.542969 Z M 242.542969 194.542969 "/>
<path style=" stroke:none;fill-rule:nonzero;fill:rgb(27.839661%,16.859436%,16.079712%);fill-opacity:1;" d="M 261.597656 213.597656 C 261.023438 213.597656 260.449219 213.375 260.007812 212.941406 C 259.132812 212.066406 259.132812 210.640625 260.007812 209.765625 L 269.53125 200.242188 C 270.410156 199.363281 271.832031 199.363281 272.707031 200.242188 C 273.582031 201.117188 273.582031 202.539062 272.707031 203.414062 L 263.183594 212.941406 C 262.746094 213.375 262.171875 213.597656 261.597656 213.597656 Z M 261.597656 213.597656 "/>
<path style=" stroke:none;fill-rule:nonzero;fill:rgb(27.839661%,16.859436%,16.079712%);fill-opacity:1;" d="M 201.261719 153.257812 C 200.683594 153.257812 200.109375 153.039062 199.671875 152.605469 C 198.792969 151.726562 198.792969 150.304688 199.671875 149.429688 L 209.199219 139.902344 C 210.074219 139.027344 211.5 139.027344 212.375 139.902344 C 213.25 140.777344 213.25 142.203125 212.375 143.078125 L 202.84375 152.605469 C 202.410156 153.039062 201.835938 153.257812 201.261719 153.257812 Z M 201.261719 153.257812 "/>
<path style=" stroke:none;fill-rule:nonzero;fill:rgb(76.078796%,60.778809%,40.388489%);fill-opacity:1;" d="M 245.976562 84.582031 L 258.679688 97.28125 C 262.175781 93.785156 262.167969 88.101562 258.664062 84.601562 C 255.15625 81.089844 249.476562 81.082031 245.976562 84.582031 Z M 245.976562 84.582031 "/>
<path style=" stroke:none;fill-rule:nonzero;fill:rgb(27.839661%,16.859436%,16.079712%);fill-opacity:1;" d="M 171.664062 93.070312 C 170.425781 93.070312 169.417969 92.0625 169.417969 90.824219 L 169.417969 72.859375 C 169.417969 71.621094 170.425781 70.613281 171.664062 70.613281 C 172.902344 70.613281 173.910156 71.621094 173.910156 72.859375 L 173.910156 90.824219 C 173.910156 92.0625 172.902344 93.070312 171.664062 93.070312 Z M 171.664062 93.070312 "/>
<path style=" stroke:none;fill-rule:nonzero;fill:rgb(27.839661%,16.859436%,16.079712%);fill-opacity:1;" d="M 171.664062 66.125 C 170.425781 66.125 169.417969 65.117188 169.417969 63.878906 L 169.417969 54.894531 C 169.417969 53.65625 170.425781 52.652344 171.664062 52.652344 C 172.902344 52.652344 173.910156 53.65625 173.910156 54.894531 L 173.910156 63.878906 C 173.910156 65.117188 172.902344 66.125 171.664062 66.125 Z M 171.664062 66.125 "/>
<path style=" stroke:none;fill-rule:nonzero;fill:rgb(27.839661%,16.859436%,16.079712%);fill-opacity:1;" d="M 154.65625 100.386719 C 154.082031 100.386719 153.507812 100.167969 153.066406 99.730469 L 145.601562 92.265625 C 144.726562 91.390625 144.726562 89.96875 145.601562 89.089844 C 146.476562 88.214844 147.902344 88.214844 148.777344 89.089844 L 156.242188 96.554688 C 157.117188 97.429688 157.117188 98.855469 156.242188 99.730469 C 155.804688 100.167969 155.230469 100.386719 154.65625 100.386719 Z M 154.65625 100.386719 "/>
<path style=" stroke:none;fill-rule:nonzero;fill:rgb(27.839661%,16.859436%,16.079712%);fill-opacity:1;" d="M 140.554688 86.28125 C 139.980469 86.28125 139.40625 86.058594 138.964844 85.625 L 127.664062 74.324219 C 126.789062 73.449219 126.789062 72.023438 127.664062 71.148438 C 128.539062 70.273438 129.964844 70.273438 130.839844 71.148438 L 142.140625 82.449219 C 143.015625 83.324219 143.015625 84.75 142.140625 85.625 C 141.703125 86.058594 141.128906 86.28125 140.554688 86.28125 Z M 140.554688 86.28125 "/>
<path style=" stroke:none;fill-rule:nonzero;fill:rgb(27.839661%,16.859436%,16.079712%);fill-opacity:1;" d="M 192.128906 100.386719 C 191.554688 100.386719 190.980469 100.167969 190.539062 99.730469 C 189.664062 98.855469 189.664062 97.429688 190.539062 96.554688 L 215.945312 71.148438 C 216.820312 70.273438 218.246094 70.273438 219.121094 71.148438 C 219.996094 72.023438 219.996094 73.449219 219.121094 74.324219 L 193.714844 99.730469 C 193.277344 100.167969 192.703125 100.386719 192.128906 100.386719 Z M 192.128906 100.386719 "/>
</g>
</svg>
