<?xml version="1.0" encoding="UTF-8"?>
<svg xmlns="http://www.w3.org/2000/svg" xmlns:xlink="http://www.w3.org/1999/xlink" width="375pt" height="374.999991pt" viewBox="0 0 375 374.999991" version="1.2">
<defs>
<clipPath id="clip1">
  <path d="M 44 44 L 330 44 L 330 330 L 44 330 Z M 44 44 "/>
</clipPath>
<clipPath id="clip2">
  <path d="M 187.703125 21.144531 L 353.695312 187.140625 L 187.171875 353.664062 L 21.179688 187.667969 Z M 187.703125 21.144531 "/>
</clipPath>
<clipPath id="clip3">
  <path d="M 187.703125 21.144531 L 353.695312 187.140625 L 187.171875 353.664062 L 21.179688 187.667969 Z M 187.703125 21.144531 "/>
</clipPath>
</defs>
<g id="surface1">
<g clip-path="url(#clip1)" clip-rule="nonzero">
<g clip-path="url(#clip2)" clip-rule="nonzero">
<g clip-path="url(#clip3)" clip-rule="nonzero">
<path style=" stroke:none;fill-rule:nonzero;fill:rgb(100%,100%,100%);fill-opacity:1;" d="M 213.613281 213.578125 L 324.371094 213.539062 C 327.285156 213.539062 329.644531 211.179688 329.644531 208.265625 L 329.664062 166.074219 C 329.664062 164.671875 329.113281 163.335938 328.121094 162.34375 C 327.128906 161.355469 325.789062 160.796875 324.390625 160.804688 L 213.632812 160.839844 L 213.671875 50.082031 C 213.671875 47.285156 211.195312 44.808594 208.398438 44.8125 L 166.203125 44.824219 C 164.800781 44.824219 163.464844 45.382812 162.476562 46.371094 C 161.488281 47.359375 160.925781 48.703125 160.929688 50.101562 L 160.890625 160.855469 L 50.132812 160.898438 C 48.730469 160.898438 47.394531 161.453125 46.402344 162.445312 C 45.410156 163.4375 44.851562 164.777344 44.855469 166.175781 L 44.84375 208.363281 C 44.84375 209.820312 45.433594 211.140625 46.386719 212.09375 C 47.34375 213.046875 48.664062 213.636719 50.117188 213.636719 L 160.871094 213.597656 L 160.835938 324.355469 C 160.835938 327.273438 163.191406 329.628906 166.109375 329.628906 L 208.296875 329.613281 C 211.210938 329.613281 213.570312 327.253906 213.570312 324.339844 Z M 213.613281 213.578125 "/>
</g>
</g>
</g>
</g>
</svg>
