<?xml version="1.0" encoding="UTF-8"?>
<svg xmlns="http://www.w3.org/2000/svg" xmlns:xlink="http://www.w3.org/1999/xlink" width="375pt" height="374.999991pt" viewBox="0 0 375 374.999991" version="1.2">
<defs>
<clipPath id="clip1">
  <path d="M 98 140 L 321 140 L 321 337 L 98 337 Z M 98 140 "/>
</clipPath>
<clipPath id="clip2">
  <path d="M 253 382.097656 L 89.359375 147.84375 L 167.441406 93.296875 L 331.085938 327.550781 Z M 253 382.097656 "/>
</clipPath>
<clipPath id="clip3">
  <path d="M 253 382.097656 L 89.359375 147.84375 L 167.441406 93.296875 L 331.085938 327.550781 Z M 253 382.097656 "/>
</clipPath>
<clipPath id="clip4">
  <path d="M 66 7.796875 L 217 7.796875 L 217 115 L 66 115 Z M 66 7.796875 "/>
</clipPath>
<clipPath id="clip5">
  <path d="M 16.871094 71 L 171 71 L 171 208 L 16.871094 208 Z M 16.871094 71 "/>
</clipPath>
</defs>
<g id="surface1">
<g clip-path="url(#clip1)" clip-rule="nonzero">
<g clip-path="url(#clip2)" clip-rule="nonzero">
<g clip-path="url(#clip3)" clip-rule="nonzero">
<path style=" stroke:none;fill-rule:nonzero;fill:rgb(13.328552%,16.079712%,10.198975%);fill-opacity:1;" d="M 264.308594 252.699219 C 262.953125 252.417969 261.566406 251.980469 260.148438 251.871094 C 253.480469 251.34375 246.816406 250.675781 240.136719 250.492188 C 226.347656 250.121094 212.542969 249.871094 198.859375 247.863281 C 184.835938 245.804688 171.539062 241.226562 158.496094 235.8125 C 156.488281 234.976562 154.65625 233.722656 152.710938 232.726562 C 148.117188 230.367188 147.59375 226.355469 147.453125 221.679688 C 147.234375 214.707031 150.964844 211.320312 156.789062 208.980469 C 160.832031 207.355469 164.714844 205.335938 168.589844 203.347656 C 171.714844 201.738281 174.75 199.953125 177.519531 196.761719 C 175.570312 195.617188 173.949219 194.445312 172.171875 193.652344 C 162.417969 189.34375 152.640625 185.09375 142.824219 180.921875 C 135.761719 177.910156 128.808594 174.726562 122.726562 169.929688 C 120.707031 168.332031 118.777344 166.609375 116.460938 165.027344 C 120.335938 172.367188 121.660156 179.683594 117.128906 187.558594 C 116.527344 186.699219 116.101562 186.203125 115.800781 185.644531 C 111.921875 178.425781 108.078125 171.191406 104.164062 163.984375 C 102.726562 161.339844 101.007812 158.84375 99.660156 156.164062 C 99.015625 154.898438 98.59375 153.324219 98.667969 151.917969 C 98.832031 148.832031 99.078125 145.691406 99.867188 142.734375 C 100.632812 139.910156 101.796875 139.546875 104.496094 140.652344 C 113.109375 144.167969 122.160156 145.386719 131.320312 145.90625 C 135.410156 146.136719 139.515625 146.25 143.609375 146.230469 C 145.988281 146.21875 148.351562 145.863281 151.105469 145.625 C 152.519531 148.324219 152.160156 151.554688 151.421875 154.710938 C 149.761719 161.808594 149.378906 162.0625 142.203125 162.542969 C 139.511719 162.722656 136.820312 162.835938 133.855469 163.703125 C 135.128906 164.300781 136.382812 164.984375 137.6875 165.480469 C 144.460938 168.054688 151.289062 170.492188 158.023438 173.144531 C 163.613281 175.34375 169.179688 177.648438 174.621094 180.179688 C 178.867188 182.152344 182.964844 184.550781 183.921875 189.792969 C 185.117188 196.265625 185.472656 202.761719 180.949219 208.148438 C 178.53125 211.027344 175.511719 213.496094 172.402344 215.628906 C 169.503906 217.617188 166.128906 218.898438 162.957031 220.488281 C 161.761719 221.078125 160.550781 221.644531 158.511719 222.632812 C 160.40625 223.628906 161.605469 224.375 162.894531 224.910156 C 176.71875 230.683594 190.953125 235.085938 205.910156 236.382812 C 217.195312 237.367188 228.542969 237.605469 239.863281 238.183594 C 246.539062 238.523438 253.226562 238.839844 259.90625 239.242188 C 261.679688 239.347656 263.4375 239.679688 265.175781 240.011719 C 271.835938 241.273438 273.890625 243.703125 274.308594 250.527344 C 274.605469 255.371094 273.453125 259.671875 270.371094 263.511719 C 259.742188 276.75 247.511719 287.992188 231.851562 295.128906 C 227.898438 296.933594 224.191406 299.277344 220.429688 301.484375 C 219.0625 302.285156 217.886719 303.414062 216.191406 304.726562 C 217.808594 305.875 218.972656 306.777344 220.199219 307.558594 C 227.476562 312.175781 235.523438 314.804688 243.921875 316.257812 C 251.320312 317.539062 258.785156 318.53125 266.25 319.308594 C 279.429688 320.683594 292.628906 321.839844 305.828125 322.972656 C 309.21875 323.265625 312.65625 323.257812 316.0625 323.167969 C 318.457031 323.109375 319.71875 324.363281 320.082031 326.402344 C 320.492188 328.648438 320.628906 330.984375 320.5 333.261719 C 320.457031 334.058594 319.375 334.917969 318.582031 335.5 C 318.097656 335.847656 317.261719 335.742188 316.589844 335.789062 C 314.542969 335.925781 312.5 336.136719 310.460938 336.140625 C 288.03125 336.195312 265.675781 335.039062 243.542969 331.140625 C 237.6875 330.097656 231.898438 328.230469 226.289062 326.132812 C 222.640625 324.765625 219.253906 322.511719 216.011719 320.273438 C 206.574219 313.761719 206.332031 296.324219 214.207031 289.746094 C 219.097656 285.667969 224.542969 282.691406 229.96875 279.582031 C 234.933594 276.738281 239.976562 274.011719 244.835938 270.984375 C 252.203125 266.414062 258.179688 260.21875 264.078125 253.972656 C 264.226562 253.820312 264.179688 253.480469 264.308594 252.699219 Z M 264.308594 252.699219 "/>
</g>
</g>
</g>
<path style=" stroke:none;fill-rule:nonzero;fill:rgb(23.139954%,27.839661%,38.819885%);fill-opacity:1;" d="M 180.234375 37.925781 L 180.234375 111.273438 L 93.550781 111.273438 L 93.550781 37.925781 L 180.234375 37.925781 "/>
<path style=" stroke:none;fill-rule:nonzero;fill:rgb(21.569824%,25.878906%,35.289001%);fill-opacity:1;" d="M 180.234375 38.59375 L 180.234375 57.261719 L 136.894531 74.597656 L 93.550781 57.261719 L 93.550781 38.59375 L 95.21875 37.925781 L 178.566406 37.925781 L 180.234375 38.59375 "/>
<path style=" stroke:none;fill-rule:nonzero;fill:rgb(97.648621%,67.449951%,11.759949%);fill-opacity:1;" d="M 213.574219 111.273438 L 207.851562 96.59375 C 209.472656 95.378906 210.523438 93.449219 210.523438 91.269531 C 210.523438 87.585938 207.539062 84.601562 203.855469 84.601562 C 200.171875 84.601562 197.1875 87.585938 197.1875 91.269531 C 197.1875 93.449219 198.238281 95.378906 199.859375 96.59375 L 193.570312 111.273438 L 213.574219 111.273438 "/>
<path style=" stroke:none;fill-rule:nonzero;fill:rgb(25.878906%,31.369019%,43.139648%);fill-opacity:1;" d="M 70.214844 37.925781 L 136.894531 64.597656 L 203.570312 37.925781 L 136.894531 11.253906 L 70.214844 37.925781 "/>
<path style=" stroke:none;fill-rule:nonzero;fill:rgb(31.369019%,38.819885%,54.508972%);fill-opacity:1;" d="M 143.84375 37.925781 C 143.84375 41.609375 140.859375 44.59375 137.175781 44.59375 C 133.492188 44.59375 130.507812 41.609375 130.507812 37.925781 C 130.507812 34.242188 133.492188 31.257812 137.175781 31.257812 C 140.859375 31.257812 143.84375 34.242188 143.84375 37.925781 "/>
<path style=" stroke:none;fill-rule:nonzero;fill:rgb(88.62915%,88.62915%,87.059021%);fill-opacity:1;" d="M 166.898438 94.601562 L 166.898438 194.621094 C 166.898438 200.144531 162.417969 204.621094 156.898438 204.621094 L 30.207031 204.621094 C 24.683594 204.621094 20.207031 200.144531 20.207031 194.621094 L 20.207031 94.601562 C 20.207031 89.082031 24.683594 84.601562 30.207031 84.601562 L 156.898438 84.601562 C 159.402344 84.601562 161.699219 85.527344 163.453125 87.054688 C 165.566406 88.886719 166.898438 91.589844 166.898438 94.601562 "/>
<path style=" stroke:none;fill-rule:nonzero;fill:rgb(84.309387%,84.309387%,82.749939%);fill-opacity:1;" d="M 166.546875 94.601562 L 166.546875 194.621094 C 166.546875 200.144531 162.070312 204.621094 156.546875 204.621094 L 43.542969 204.621094 L 163.101562 87.054688 C 165.214844 88.886719 166.546875 91.589844 166.546875 94.601562 "/>
<path style=" stroke:none;fill-rule:nonzero;fill:rgb(93.728638%,22.749329%,23.919678%);fill-opacity:1;" d="M 166.898438 94.601562 L 166.898438 111.273438 L 20.207031 111.273438 L 20.207031 94.601562 C 20.207031 89.082031 24.683594 84.601562 30.207031 84.601562 L 156.898438 84.601562 C 159.402344 84.601562 161.699219 85.527344 163.453125 87.054688 C 165.566406 88.886719 166.898438 91.589844 166.898438 94.601562 "/>
<path style=" stroke:none;fill-rule:nonzero;fill:rgb(90.19928%,21.569824%,21.569824%);fill-opacity:1;" d="M 166.898438 94.601562 L 166.898438 111.273438 L 138.824219 111.273438 L 163.453125 87.054688 C 165.566406 88.886719 166.898438 91.589844 166.898438 94.601562 "/>
<path style=" stroke:none;fill-rule:nonzero;fill:rgb(77.648926%,77.648926%,75.689697%);fill-opacity:1;" d="M 73.546875 137.945312 L 60.210938 137.945312 L 60.210938 124.609375 L 73.546875 124.609375 L 73.546875 137.945312 "/>
<path style=" stroke:none;fill-rule:nonzero;fill:rgb(77.648926%,77.648926%,75.689697%);fill-opacity:1;" d="M 100.21875 137.945312 L 86.882812 137.945312 L 86.882812 124.609375 L 100.21875 124.609375 L 100.21875 137.945312 "/>
<path style=" stroke:none;fill-rule:nonzero;fill:rgb(93.728638%,22.749329%,23.919678%);fill-opacity:1;" d="M 126.890625 137.945312 L 113.554688 137.945312 L 113.554688 124.609375 L 126.890625 124.609375 L 126.890625 137.945312 "/>
<path style=" stroke:none;fill-rule:nonzero;fill:rgb(77.648926%,77.648926%,75.689697%);fill-opacity:1;" d="M 153.5625 137.945312 L 140.226562 137.945312 L 140.226562 124.609375 L 153.5625 124.609375 L 153.5625 137.945312 "/>
<path style=" stroke:none;fill-rule:nonzero;fill:rgb(77.648926%,77.648926%,75.689697%);fill-opacity:1;" d="M 46.875 164.617188 L 33.542969 164.617188 L 33.542969 151.28125 L 46.875 151.28125 L 46.875 164.617188 "/>
<path style=" stroke:none;fill-rule:nonzero;fill:rgb(93.728638%,22.749329%,23.919678%);fill-opacity:1;" d="M 73.546875 164.617188 L 60.210938 164.617188 L 60.210938 151.28125 L 73.546875 151.28125 L 73.546875 164.617188 "/>
<path style=" stroke:none;fill-rule:nonzero;fill:rgb(77.648926%,77.648926%,75.689697%);fill-opacity:1;" d="M 100.21875 164.617188 L 86.882812 164.617188 L 86.882812 151.28125 L 100.21875 151.28125 L 100.21875 164.617188 "/>
<path style=" stroke:none;fill-rule:nonzero;fill:rgb(77.648926%,77.648926%,75.689697%);fill-opacity:1;" d="M 126.890625 164.617188 L 113.554688 164.617188 L 113.554688 151.28125 L 126.890625 151.28125 L 126.890625 164.617188 "/>
<path style=" stroke:none;fill-rule:nonzero;fill:rgb(77.648926%,77.648926%,75.689697%);fill-opacity:1;" d="M 153.5625 164.617188 L 140.226562 164.617188 L 140.226562 151.28125 L 153.5625 151.28125 L 153.5625 164.617188 "/>
<path style=" stroke:none;fill-rule:nonzero;fill:rgb(77.648926%,77.648926%,75.689697%);fill-opacity:1;" d="M 46.875 191.285156 L 33.542969 191.285156 L 33.542969 177.949219 L 46.875 177.949219 L 46.875 191.285156 "/>
<path style=" stroke:none;fill-rule:nonzero;fill:rgb(77.648926%,77.648926%,75.689697%);fill-opacity:1;" d="M 73.546875 191.285156 L 60.210938 191.285156 L 60.210938 177.949219 L 73.546875 177.949219 L 73.546875 191.285156 "/>
<path style=" stroke:none;fill-rule:nonzero;fill:rgb(77.648926%,77.648926%,75.689697%);fill-opacity:1;" d="M 100.21875 191.285156 L 86.882812 191.285156 L 86.882812 177.949219 L 100.21875 177.949219 L 100.21875 191.285156 "/>
<path style=" stroke:none;fill-rule:nonzero;fill:rgb(77.648926%,77.648926%,75.689697%);fill-opacity:1;" d="M 126.890625 191.285156 L 113.554688 191.285156 L 113.554688 177.949219 L 126.890625 177.949219 L 126.890625 191.285156 "/>
<path style=" stroke:none;fill-rule:nonzero;fill:rgb(87.449646%,19.219971%,17.649841%);fill-opacity:1;" d="M 76.882812 97.9375 L 70.214844 97.9375 L 70.214844 84.601562 L 76.882812 84.601562 L 76.882812 97.9375 "/>
<path style=" stroke:none;fill-rule:nonzero;fill:rgb(87.449646%,19.219971%,17.649841%);fill-opacity:1;" d="M 50.210938 97.9375 L 43.542969 97.9375 L 43.542969 84.601562 L 50.210938 84.601562 L 50.210938 97.9375 "/>
<path style=" stroke:none;fill-rule:nonzero;fill:rgb(87.449646%,19.219971%,17.649841%);fill-opacity:1;" d="M 103.554688 97.9375 L 96.886719 97.9375 L 96.886719 84.601562 L 103.554688 84.601562 L 103.554688 97.9375 "/>
<path style=" stroke:none;fill-rule:nonzero;fill:rgb(87.449646%,19.219971%,17.649841%);fill-opacity:1;" d="M 130.226562 97.9375 L 123.558594 97.9375 L 123.558594 84.601562 L 130.226562 84.601562 L 130.226562 97.9375 "/>
<path style=" stroke:none;fill-rule:nonzero;fill:rgb(87.449646%,19.219971%,17.649841%);fill-opacity:1;" d="M 156.898438 97.9375 L 150.230469 97.9375 L 150.230469 84.601562 L 156.898438 84.601562 L 156.898438 97.9375 "/>
<g clip-path="url(#clip4)" clip-rule="nonzero">
<path style=" stroke:none;fill-rule:nonzero;fill:rgb(5.879211%,5.488586%,4.708862%);fill-opacity:1;" d="M 198.625 107.9375 L 202.921875 97.90625 C 203.527344 96.5 203.089844 94.855469 201.859375 93.933594 C 201.007812 93.292969 200.523438 92.320312 200.523438 91.269531 C 200.523438 89.429688 202.019531 87.933594 203.855469 87.933594 C 205.691406 87.933594 207.1875 89.429688 207.1875 91.269531 C 207.1875 92.320312 206.703125 93.292969 205.847656 93.933594 C 204.65625 94.832031 204.207031 96.414062 204.746094 97.808594 L 208.699219 107.9375 Z M 140.511719 37.925781 C 140.511719 39.761719 139.015625 41.257812 137.175781 41.257812 C 135.339844 41.257812 133.84375 39.761719 133.84375 37.925781 C 133.84375 36.085938 135.339844 34.589844 137.175781 34.589844 C 139.015625 34.589844 140.511719 36.085938 140.511719 37.925781 Z M 136.894531 61.007812 L 79.191406 37.925781 L 136.894531 14.84375 L 157.246094 22.984375 L 144.015625 30.640625 C 142.226562 28.957031 139.820312 27.921875 137.175781 27.921875 C 131.664062 27.921875 127.175781 32.414062 127.175781 37.925781 C 127.175781 43.4375 131.664062 47.925781 137.175781 47.925781 C 142.691406 47.925781 147.179688 43.4375 147.179688 37.925781 C 147.179688 37.464844 147.144531 37.015625 147.082031 36.570312 L 165.121094 26.136719 L 194.59375 37.925781 Z M 211.75 97.410156 C 213.105469 95.679688 213.855469 93.539062 213.855469 91.269531 C 213.855469 86.816406 210.933594 83.039062 206.90625 81.742188 L 206.90625 37.925781 C 206.90625 36.5625 206.078125 35.335938 204.808594 34.828125 L 138.132812 8.15625 C 137.335938 7.839844 136.453125 7.839844 135.65625 8.15625 L 68.976562 34.828125 C 67.710938 35.335938 66.878906 36.5625 66.878906 37.925781 C 66.878906 39.289062 67.710938 40.515625 68.976562 41.023438 L 90.21875 49.519531 L 90.21875 61.261719 L 96.886719 61.261719 L 96.886719 52.1875 L 135.65625 67.695312 C 136.050781 67.851562 136.472656 67.929688 136.894531 67.929688 C 137.3125 67.929688 137.734375 67.851562 138.132812 67.695312 L 176.902344 52.1875 L 176.902344 114.605469 L 180.234375 114.605469 C 182.078125 114.605469 183.570312 113.113281 183.570312 111.273438 L 183.570312 49.519531 L 200.238281 42.851562 L 200.238281 81.945312 C 196.503906 83.402344 193.855469 87.03125 193.855469 91.269531 C 193.855469 93.511719 194.582031 95.625 195.90625 97.34375 L 190.503906 109.960938 C 190.066406 110.988281 190.167969 112.171875 190.785156 113.105469 C 191.402344 114.042969 192.449219 114.605469 193.570312 114.605469 L 213.574219 114.605469 C 214.675781 114.605469 215.703125 114.066406 216.328125 113.15625 C 216.949219 112.246094 217.078125 111.089844 216.679688 110.0625 L 211.75 97.410156 "/>
</g>
<g clip-path="url(#clip5)" clip-rule="nonzero">
<path style=" stroke:none;fill-rule:nonzero;fill:rgb(5.879211%,5.488586%,4.708862%);fill-opacity:1;" d="M 23.539062 107.9375 L 23.539062 94.601562 C 23.539062 90.925781 26.53125 87.933594 30.207031 87.933594 L 36.875 87.933594 L 36.875 97.9375 L 43.542969 97.9375 L 43.542969 87.933594 L 63.546875 87.933594 L 63.546875 97.9375 L 70.214844 97.9375 L 70.214844 87.933594 L 90.21875 87.933594 L 90.21875 97.9375 L 96.886719 97.9375 L 96.886719 87.933594 L 116.890625 87.933594 L 116.890625 97.9375 L 123.558594 97.9375 L 123.558594 87.933594 L 143.5625 87.933594 L 143.5625 97.9375 L 150.230469 97.9375 L 150.230469 87.933594 L 156.898438 87.933594 C 160.574219 87.933594 163.566406 90.925781 163.566406 94.601562 L 163.566406 107.9375 Z M 156.898438 81.265625 L 150.230469 81.265625 L 150.230469 71.265625 L 143.5625 71.265625 L 143.5625 81.265625 L 123.558594 81.265625 L 123.558594 71.265625 L 116.890625 71.265625 L 116.890625 81.265625 L 96.886719 81.265625 L 96.886719 71.265625 L 90.21875 71.265625 L 90.21875 81.265625 L 70.214844 81.265625 L 70.214844 71.265625 L 63.546875 71.265625 L 63.546875 81.265625 L 43.542969 81.265625 L 43.542969 71.265625 L 36.875 71.265625 L 36.875 81.265625 L 30.207031 81.265625 C 22.855469 81.265625 16.871094 87.25 16.871094 94.601562 L 16.871094 114.605469 L 163.566406 114.605469 L 163.566406 194.621094 C 163.566406 198.296875 160.574219 201.289062 156.898438 201.289062 L 30.207031 201.289062 C 26.53125 201.289062 23.539062 198.296875 23.539062 194.621094 L 23.539062 121.273438 L 16.871094 121.273438 L 16.871094 194.621094 C 16.871094 201.972656 22.855469 207.957031 30.207031 207.957031 L 156.898438 207.957031 C 164.25 207.957031 170.234375 201.972656 170.234375 194.621094 L 170.234375 94.601562 C 170.234375 87.25 164.25 81.265625 156.898438 81.265625 "/>
</g>
<path style=" stroke:none;fill-rule:nonzero;fill:rgb(5.879211%,5.488586%,4.708862%);fill-opacity:1;" d="M 63.546875 127.941406 L 70.214844 127.941406 L 70.214844 134.609375 L 63.546875 134.609375 Z M 60.210938 141.277344 L 73.546875 141.277344 C 75.390625 141.277344 76.882812 139.785156 76.882812 137.945312 L 76.882812 124.609375 C 76.882812 122.765625 75.390625 121.273438 73.546875 121.273438 L 60.210938 121.273438 C 58.371094 121.273438 56.878906 122.765625 56.878906 124.609375 L 56.878906 137.945312 C 56.878906 139.785156 58.371094 141.277344 60.210938 141.277344 "/>
<path style=" stroke:none;fill-rule:nonzero;fill:rgb(5.879211%,5.488586%,4.708862%);fill-opacity:1;" d="M 90.21875 127.941406 L 96.886719 127.941406 L 96.886719 134.609375 L 90.21875 134.609375 Z M 86.882812 141.277344 L 100.21875 141.277344 C 102.0625 141.277344 103.554688 139.785156 103.554688 137.945312 L 103.554688 124.609375 C 103.554688 122.765625 102.0625 121.273438 100.21875 121.273438 L 86.882812 121.273438 C 85.042969 121.273438 83.550781 122.765625 83.550781 124.609375 L 83.550781 137.945312 C 83.550781 139.785156 85.042969 141.277344 86.882812 141.277344 "/>
<path style=" stroke:none;fill-rule:nonzero;fill:rgb(5.879211%,5.488586%,4.708862%);fill-opacity:1;" d="M 116.890625 127.941406 L 123.558594 127.941406 L 123.558594 134.609375 L 116.890625 134.609375 Z M 113.554688 141.277344 L 126.890625 141.277344 C 128.734375 141.277344 130.226562 139.785156 130.226562 137.945312 L 130.226562 124.609375 C 130.226562 122.765625 128.734375 121.273438 126.890625 121.273438 L 113.554688 121.273438 C 111.714844 121.273438 110.222656 122.765625 110.222656 124.609375 L 110.222656 137.945312 C 110.222656 139.785156 111.714844 141.277344 113.554688 141.277344 "/>
<path style=" stroke:none;fill-rule:nonzero;fill:rgb(5.879211%,5.488586%,4.708862%);fill-opacity:1;" d="M 143.5625 127.941406 L 150.230469 127.941406 L 150.230469 134.609375 L 143.5625 134.609375 Z M 140.226562 141.277344 L 153.5625 141.277344 C 155.40625 141.277344 156.898438 139.785156 156.898438 137.945312 L 156.898438 124.609375 C 156.898438 122.765625 155.40625 121.273438 153.5625 121.273438 L 140.226562 121.273438 C 138.386719 121.273438 136.894531 122.765625 136.894531 124.609375 L 136.894531 137.945312 C 136.894531 139.785156 138.386719 141.277344 140.226562 141.277344 "/>
<path style=" stroke:none;fill-rule:nonzero;fill:rgb(5.879211%,5.488586%,4.708862%);fill-opacity:1;" d="M 36.875 154.613281 L 43.542969 154.613281 L 43.542969 161.28125 L 36.875 161.28125 Z M 33.542969 167.949219 L 46.875 167.949219 C 48.71875 167.949219 50.210938 166.457031 50.210938 164.617188 L 50.210938 151.28125 C 50.210938 149.4375 48.71875 147.945312 46.875 147.945312 L 33.542969 147.945312 C 31.699219 147.945312 30.207031 149.4375 30.207031 151.28125 L 30.207031 164.617188 C 30.207031 166.457031 31.699219 167.949219 33.542969 167.949219 "/>
<path style=" stroke:none;fill-rule:nonzero;fill:rgb(5.879211%,5.488586%,4.708862%);fill-opacity:1;" d="M 63.546875 154.613281 L 70.214844 154.613281 L 70.214844 161.28125 L 63.546875 161.28125 Z M 56.878906 164.617188 C 56.878906 166.457031 58.371094 167.949219 60.210938 167.949219 L 73.546875 167.949219 C 75.390625 167.949219 76.882812 166.457031 76.882812 164.617188 L 76.882812 151.28125 C 76.882812 149.4375 75.390625 147.945312 73.546875 147.945312 L 60.210938 147.945312 C 58.371094 147.945312 56.878906 149.4375 56.878906 151.28125 L 56.878906 164.617188 "/>
<path style=" stroke:none;fill-rule:nonzero;fill:rgb(5.879211%,5.488586%,4.708862%);fill-opacity:1;" d="M 90.21875 154.613281 L 96.886719 154.613281 L 96.886719 161.28125 L 90.21875 161.28125 Z M 83.550781 164.617188 C 83.550781 166.457031 85.042969 167.949219 86.882812 167.949219 L 100.21875 167.949219 C 102.0625 167.949219 103.554688 166.457031 103.554688 164.617188 L 103.554688 151.28125 C 103.554688 149.4375 102.0625 147.945312 100.21875 147.945312 L 86.882812 147.945312 C 85.042969 147.945312 83.550781 149.4375 83.550781 151.28125 L 83.550781 164.617188 "/>
<path style=" stroke:none;fill-rule:nonzero;fill:rgb(5.879211%,5.488586%,4.708862%);fill-opacity:1;" d="M 116.890625 154.613281 L 123.558594 154.613281 L 123.558594 161.28125 L 116.890625 161.28125 Z M 110.222656 164.617188 C 110.222656 166.457031 111.714844 167.949219 113.554688 167.949219 L 126.890625 167.949219 C 128.734375 167.949219 130.226562 166.457031 130.226562 164.617188 L 130.226562 151.28125 C 130.226562 149.4375 128.734375 147.945312 126.890625 147.945312 L 113.554688 147.945312 C 111.714844 147.945312 110.222656 149.4375 110.222656 151.28125 L 110.222656 164.617188 "/>
<path style=" stroke:none;fill-rule:nonzero;fill:rgb(5.879211%,5.488586%,4.708862%);fill-opacity:1;" d="M 143.5625 154.613281 L 150.230469 154.613281 L 150.230469 161.28125 L 143.5625 161.28125 Z M 136.894531 164.617188 C 136.894531 166.457031 138.386719 167.949219 140.226562 167.949219 L 153.5625 167.949219 C 155.40625 167.949219 156.898438 166.457031 156.898438 164.617188 L 156.898438 151.28125 C 156.898438 149.4375 155.40625 147.945312 153.5625 147.945312 L 140.226562 147.945312 C 138.386719 147.945312 136.894531 149.4375 136.894531 151.28125 L 136.894531 164.617188 "/>
<path style=" stroke:none;fill-rule:nonzero;fill:rgb(5.879211%,5.488586%,4.708862%);fill-opacity:1;" d="M 36.875 181.285156 L 43.542969 181.285156 L 43.542969 187.953125 L 36.875 187.953125 Z M 30.207031 191.285156 C 30.207031 193.128906 31.699219 194.621094 33.542969 194.621094 L 46.875 194.621094 C 48.71875 194.621094 50.210938 193.128906 50.210938 191.285156 L 50.210938 177.949219 C 50.210938 176.109375 48.71875 174.617188 46.875 174.617188 L 33.542969 174.617188 C 31.699219 174.617188 30.207031 176.109375 30.207031 177.949219 L 30.207031 191.285156 "/>
<path style=" stroke:none;fill-rule:nonzero;fill:rgb(5.879211%,5.488586%,4.708862%);fill-opacity:1;" d="M 63.546875 181.285156 L 70.214844 181.285156 L 70.214844 187.953125 L 63.546875 187.953125 Z M 56.878906 191.285156 C 56.878906 193.128906 58.371094 194.621094 60.210938 194.621094 L 73.546875 194.621094 C 75.390625 194.621094 76.882812 193.128906 76.882812 191.285156 L 76.882812 177.949219 C 76.882812 176.109375 75.390625 174.617188 73.546875 174.617188 L 60.210938 174.617188 C 58.371094 174.617188 56.878906 176.109375 56.878906 177.949219 L 56.878906 191.285156 "/>
<path style=" stroke:none;fill-rule:nonzero;fill:rgb(5.879211%,5.488586%,4.708862%);fill-opacity:1;" d="M 90.21875 181.285156 L 96.886719 181.285156 L 96.886719 187.953125 L 90.21875 187.953125 Z M 83.550781 191.285156 C 83.550781 193.128906 85.042969 194.621094 86.882812 194.621094 L 100.21875 194.621094 C 102.0625 194.621094 103.554688 193.128906 103.554688 191.285156 L 103.554688 177.949219 C 103.554688 176.109375 102.0625 174.617188 100.21875 174.617188 L 86.882812 174.617188 C 85.042969 174.617188 83.550781 176.109375 83.550781 177.949219 L 83.550781 191.285156 "/>
<path style=" stroke:none;fill-rule:nonzero;fill:rgb(5.879211%,5.488586%,4.708862%);fill-opacity:1;" d="M 116.890625 181.285156 L 123.558594 181.285156 L 123.558594 187.953125 L 116.890625 187.953125 Z M 110.222656 191.285156 C 110.222656 193.128906 111.714844 194.621094 113.554688 194.621094 L 126.890625 194.621094 C 128.734375 194.621094 130.226562 193.128906 130.226562 191.285156 L 130.226562 177.949219 C 130.226562 176.109375 128.734375 174.617188 126.890625 174.617188 L 113.554688 174.617188 C 111.714844 174.617188 110.222656 176.109375 110.222656 177.949219 L 110.222656 191.285156 "/>
</g>
</svg>
