<?xml version="1.0" encoding="UTF-8"?>
<svg xmlns="http://www.w3.org/2000/svg" xmlns:xlink="http://www.w3.org/1999/xlink" width="375pt" height="374.999991pt" viewBox="0 0 375 374.999991" version="1.2">
<defs>
<clipPath id="clip1">
  <path d="M 8 34 L 213 34 L 213 186 L 8 186 Z M 8 34 "/>
</clipPath>
<clipPath id="clip2">
  <path d="M 61.90625 -7.558594 L 220.765625 177.3125 L 158.765625 230.59375 L -0.09375 45.71875 Z M 61.90625 -7.558594 "/>
</clipPath>
<clipPath id="clip3">
  <path d="M 61.90625 -7.558594 L 220.765625 177.3125 L 158.765625 230.59375 L -0.09375 45.71875 Z M 61.90625 -7.558594 "/>
</clipPath>
<clipPath id="clip4">
  <path d="M 141.871094 134.78125 L 315.121094 134.78125 L 315.121094 326.78125 L 141.871094 326.78125 Z M 141.871094 134.78125 "/>
</clipPath>
</defs>
<g id="surface1">
<g clip-path="url(#clip1)" clip-rule="nonzero">
<g clip-path="url(#clip2)" clip-rule="nonzero">
<g clip-path="url(#clip3)" clip-rule="nonzero">
<path style=" stroke:none;fill-rule:nonzero;fill:rgb(13.328552%,16.079712%,10.198975%);fill-opacity:1;" d="M 63.007812 103.515625 C 64.1875 103.636719 65.40625 103.886719 66.621094 103.855469 C 72.34375 103.714844 78.078125 103.699219 83.785156 103.265625 C 95.566406 102.367188 107.347656 101.363281 119.175781 101.867188 C 131.289062 102.382812 143 105.109375 154.5625 108.566406 C 156.34375 109.101562 158.007812 110.003906 159.75 110.679688 C 163.859375 112.28125 164.632812 115.648438 165.144531 119.613281 C 165.90625 125.527344 163.011719 128.738281 158.242188 131.242188 C 154.933594 132.976562 151.792969 135.039062 148.65625 137.074219 C 146.128906 138.714844 143.691406 140.503906 141.59375 143.460938 C 143.347656 144.265625 144.828125 145.117188 146.410156 145.636719 C 155.074219 148.441406 163.761719 151.195312 172.46875 153.882812 C 178.738281 155.820312 184.925781 157.914062 190.503906 161.460938 C 192.359375 162.640625 194.144531 163.9375 196.25 165.078125 C 192.339844 159.179688 190.601562 153.070312 193.8125 145.972656 C 194.394531 146.648438 194.796875 147.035156 195.101562 147.484375 C 199.007812 153.28125 202.878906 159.097656 206.8125 164.886719 C 208.257812 167.007812 209.929688 168.980469 211.300781 171.140625 C 211.953125 172.160156 212.445312 173.460938 212.496094 174.667969 C 212.613281 177.304688 212.664062 179.996094 212.238281 182.582031 C 211.816406 185.054688 210.859375 185.464844 208.464844 184.761719 C 200.835938 182.527344 193.023438 182.292969 185.175781 182.652344 C 181.671875 182.820312 178.164062 183.085938 174.679688 183.460938 C 172.652344 183.679688 170.667969 184.191406 168.339844 184.636719 C 166.914062 182.464844 166.949219 179.683594 167.320312 176.9375 C 168.144531 170.753906 168.449219 170.5 174.523438 169.460938 C 176.800781 169.070312 179.082031 168.738281 181.539062 167.738281 C 180.40625 167.34375 179.277344 166.871094 178.125 166.566406 C 172.144531 164.96875 166.125 163.5 160.164062 161.835938 C 155.21875 160.457031 150.285156 158.984375 145.441406 157.308594 C 141.65625 156.007812 137.96875 154.328125 136.714844 149.953125 C 135.160156 144.550781 134.320312 139.054688 137.726562 134.074219 C 139.546875 131.414062 141.914062 129.050781 144.390625 126.957031 C 146.691406 125.015625 149.460938 123.625 152.035156 121.992188 C 153.003906 121.386719 153.988281 120.796875 155.644531 119.777344 C 153.949219 119.097656 152.863281 118.566406 151.71875 118.226562 C 139.460938 114.535156 126.96875 112.042969 114.117188 112.253906 C 104.421875 112.410156 94.734375 113.207031 85.042969 113.714844 C 79.324219 114.011719 73.601562 114.332031 67.875 114.578125 C 66.355469 114.644531 64.828125 114.515625 63.320312 114.386719 C 57.542969 113.898438 55.59375 112.011719 54.667969 106.246094 C 54.011719 102.148438 54.640625 98.390625 56.945312 94.851562 C 64.90625 82.65625 74.390625 72.011719 87.140625 64.5625 C 90.359375 62.679688 93.324219 60.359375 96.347656 58.152344 C 97.445312 57.347656 98.351562 56.285156 99.6875 55.019531 C 98.214844 54.1875 97.148438 53.523438 96.039062 52.964844 C 89.457031 49.679688 82.378906 48.148438 75.105469 47.652344 C 68.695312 47.210938 62.253906 47.027344 55.828125 47.023438 C 44.488281 47.011719 33.144531 47.191406 21.804688 47.390625 C 18.890625 47.441406 15.960938 47.75 13.066406 48.125 C 11.03125 48.386719 9.855469 47.429688 9.375 45.730469 C 8.839844 43.855469 8.527344 41.878906 8.449219 39.929688 C 8.417969 39.25 9.269531 38.421875 9.898438 37.859375 C 10.28125 37.519531 11.003906 37.535156 11.570312 37.4375 C 13.304688 37.140625 15.027344 36.777344 16.761719 36.597656 C 35.867188 34.574219 55.011719 33.589844 74.195312 34.960938 C 79.269531 35.332031 84.359375 36.40625 89.308594 37.699219 C 92.53125 38.539062 95.601562 40.160156 98.554688 41.777344 C 107.132812 46.488281 108.789062 61.300781 102.621094 67.589844 C 98.796875 71.492188 94.402344 74.5 90.035156 77.625 C 86.042969 80.480469 81.972656 83.246094 78.082031 86.246094 C 72.183594 90.78125 67.609375 96.578125 63.097656 102.414062 C 62.984375 102.554688 63.054688 102.839844 63.007812 103.515625 Z M 63.007812 103.515625 "/>
</g>
</g>
</g>
<path style=" stroke:none;fill-rule:nonzero;fill:rgb(47.44873%,74.899292%,91.369629%);fill-opacity:1;" d="M 286.460938 323.730469 L 164.460938 323.730469 C 160.914062 323.730469 158.042969 320.867188 158.042969 317.328125 L 158.042969 144.390625 C 158.042969 140.847656 160.914062 137.984375 164.460938 137.984375 L 286.460938 137.984375 C 290.011719 137.984375 292.882812 140.847656 292.882812 144.390625 L 292.882812 317.328125 C 292.882812 320.867188 290.011719 323.730469 286.460938 323.730469 "/>
<path style=" stroke:none;fill-rule:nonzero;fill:rgb(97.648621%,67.83905%,16.468811%);fill-opacity:1;" d="M 312.144531 205.238281 L 302.511719 214.84375 L 292.882812 214.84375 L 292.882812 182.820312 L 312.144531 182.820312 L 312.144531 205.238281 "/>
<path style=" stroke:none;fill-rule:nonzero;fill:rgb(59.609985%,85.099792%,60.778809%);fill-opacity:1;" d="M 312.144531 237.261719 L 302.511719 246.871094 L 292.882812 246.871094 L 292.882812 214.84375 L 312.144531 214.84375 L 312.144531 237.261719 "/>
<path style=" stroke:none;fill-rule:nonzero;fill:rgb(33.729553%,59.999084%,83.529663%);fill-opacity:1;" d="M 312.144531 269.289062 L 302.511719 278.894531 L 292.882812 278.894531 L 292.882812 246.871094 L 312.144531 246.871094 L 312.144531 269.289062 "/>
<path style=" stroke:none;fill-rule:nonzero;fill:rgb(88.238525%,30.198669%,34.509277%);fill-opacity:1;" d="M 312.144531 301.3125 L 302.511719 310.921875 L 292.882812 310.921875 L 292.882812 278.894531 L 312.144531 278.894531 L 312.144531 301.3125 "/>
<path style=" stroke:none;fill-rule:nonzero;fill:rgb(90.19928%,90.19928%,88.62915%);fill-opacity:1;" d="M 292.882812 150.792969 L 170.882812 150.792969 L 170.882812 310.921875 L 292.882812 310.921875 L 292.882812 182.820312 L 302.511719 182.820312 L 312.144531 173.210938 L 312.144531 150.792969 L 292.882812 150.792969 "/>
<path style=" stroke:none;fill-rule:nonzero;fill:rgb(79.60968%,79.219055%,78.42865%);fill-opacity:1;" d="M 177.304688 189.226562 L 151.621094 189.226562 C 148.070312 189.226562 145.199219 186.359375 145.199219 182.820312 C 145.199219 179.28125 148.070312 176.414062 151.621094 176.414062 L 177.304688 176.414062 C 180.855469 176.414062 183.726562 179.28125 183.726562 182.820312 C 183.726562 186.359375 180.855469 189.226562 177.304688 189.226562 "/>
<path style=" stroke:none;fill-rule:nonzero;fill:rgb(79.60968%,79.219055%,78.42865%);fill-opacity:1;" d="M 177.304688 221.25 L 151.621094 221.25 C 148.070312 221.25 145.199219 218.386719 145.199219 214.84375 C 145.199219 211.304688 148.070312 208.441406 151.621094 208.441406 L 177.304688 208.441406 C 180.855469 208.441406 183.726562 211.304688 183.726562 214.84375 C 183.726562 218.386719 180.855469 221.25 177.304688 221.25 "/>
<path style=" stroke:none;fill-rule:nonzero;fill:rgb(79.60968%,79.219055%,78.42865%);fill-opacity:1;" d="M 177.304688 253.277344 L 151.621094 253.277344 C 148.070312 253.277344 145.199219 250.410156 145.199219 246.871094 C 145.199219 243.332031 148.070312 240.464844 151.621094 240.464844 L 177.304688 240.464844 C 180.855469 240.464844 183.726562 243.332031 183.726562 246.871094 C 183.726562 250.410156 180.855469 253.277344 177.304688 253.277344 "/>
<path style=" stroke:none;fill-rule:nonzero;fill:rgb(79.60968%,79.219055%,78.42865%);fill-opacity:1;" d="M 177.304688 285.300781 L 151.621094 285.300781 C 148.070312 285.300781 145.199219 282.4375 145.199219 278.894531 C 145.199219 275.355469 148.070312 272.492188 151.621094 272.492188 L 177.304688 272.492188 C 180.855469 272.492188 183.726562 275.355469 183.726562 278.894531 C 183.726562 282.4375 180.855469 285.300781 177.304688 285.300781 "/>
<path style=" stroke:none;fill-rule:nonzero;fill:rgb(98.429871%,98.81897%,98.81897%);fill-opacity:1;" d="M 207.804688 214.84375 C 201.597656 214.84375 196.566406 209.828125 196.566406 203.636719 C 196.566406 197.445312 201.597656 192.429688 207.804688 192.429688 C 214.011719 192.429688 219.039062 197.445312 219.039062 203.636719 C 219.039062 209.828125 214.011719 214.84375 207.804688 214.84375 "/>
<path style=" stroke:none;fill-rule:nonzero;fill:rgb(98.429871%,98.81897%,98.81897%);fill-opacity:1;" d="M 207.804688 256.480469 C 201.597656 256.480469 196.566406 251.460938 196.566406 245.269531 C 196.566406 239.078125 201.597656 234.0625 207.804688 234.0625 C 214.011719 234.0625 219.039062 239.078125 219.039062 245.269531 C 219.039062 251.460938 214.011719 256.480469 207.804688 256.480469 "/>
<path style=" stroke:none;fill-rule:nonzero;fill:rgb(98.429871%,98.81897%,98.81897%);fill-opacity:1;" d="M 207.804688 298.113281 C 201.597656 298.113281 196.566406 293.09375 196.566406 286.902344 C 196.566406 280.710938 201.597656 275.695312 207.804688 275.695312 C 214.011719 275.695312 219.039062 280.710938 219.039062 286.902344 C 219.039062 293.09375 214.011719 298.113281 207.804688 298.113281 "/>
<path style=" stroke:none;fill-rule:nonzero;fill:rgb(79.60968%,79.219055%,78.42865%);fill-opacity:1;" d="M 273.617188 205.238281 L 235.09375 205.238281 C 233.324219 205.238281 231.882812 203.800781 231.882812 202.035156 C 231.882812 200.269531 233.324219 198.832031 235.09375 198.832031 L 273.617188 198.832031 C 275.386719 198.832031 276.828125 200.269531 276.828125 202.035156 C 276.828125 203.800781 275.386719 205.238281 273.617188 205.238281 "/>
<path style=" stroke:none;fill-rule:nonzero;fill:rgb(79.60968%,79.219055%,78.42865%);fill-opacity:1;" d="M 273.617188 250.074219 L 235.09375 250.074219 C 233.324219 250.074219 231.882812 248.636719 231.882812 246.871094 C 231.882812 245.105469 233.324219 243.667969 235.09375 243.667969 L 273.617188 243.667969 C 275.386719 243.667969 276.828125 245.105469 276.828125 246.871094 C 276.828125 248.636719 275.386719 250.074219 273.617188 250.074219 "/>
<path style=" stroke:none;fill-rule:nonzero;fill:rgb(79.60968%,79.219055%,78.42865%);fill-opacity:1;" d="M 273.617188 291.707031 L 235.09375 291.707031 C 233.324219 291.707031 231.882812 290.269531 231.882812 288.503906 C 231.882812 286.738281 233.324219 285.300781 235.09375 285.300781 L 273.617188 285.300781 C 275.386719 285.300781 276.828125 286.738281 276.828125 288.503906 C 276.828125 290.269531 275.386719 291.707031 273.617188 291.707031 "/>
<path style=" stroke:none;fill-rule:nonzero;fill:rgb(50.19989%,76.469421%,54.119873%);fill-opacity:1;" d="M 209.410156 208.441406 C 208.558594 208.441406 207.742188 208.101562 207.140625 207.503906 L 197.507812 197.894531 C 196.253906 196.644531 196.253906 194.617188 197.507812 193.367188 C 198.761719 192.113281 200.792969 192.113281 202.046875 193.367188 L 209.109375 200.410156 L 229.347656 174.449219 C 230.441406 173.0625 232.445312 172.800781 233.851562 173.886719 C 235.257812 174.976562 235.507812 176.992188 234.417969 178.378906 L 211.941406 207.203125 C 211.378906 207.925781 210.527344 208.378906 209.609375 208.429688 C 209.535156 208.441406 209.472656 208.441406 209.410156 208.441406 "/>
<path style=" stroke:none;fill-rule:nonzero;fill:rgb(88.238525%,30.198669%,34.509277%);fill-opacity:1;" d="M 209.410156 250.074219 C 208.558594 250.074219 207.742188 249.734375 207.140625 249.136719 L 197.507812 239.527344 C 196.253906 238.277344 196.253906 236.25 197.507812 235 C 198.761719 233.746094 200.792969 233.746094 202.046875 235 L 209.109375 242.042969 L 229.347656 216.085938 C 230.441406 214.695312 232.445312 214.433594 233.851562 215.519531 C 235.257812 216.609375 235.507812 218.625 234.417969 220.011719 L 211.941406 248.835938 C 211.378906 249.5625 210.527344 250.011719 209.609375 250.0625 C 209.535156 250.074219 209.472656 250.074219 209.410156 250.074219 "/>
<path style=" stroke:none;fill-rule:nonzero;fill:rgb(79.60968%,79.219055%,78.42865%);fill-opacity:1;" d="M 231.882812 166.808594 L 225.460938 166.808594 L 225.460938 160.402344 L 231.882812 160.402344 L 231.882812 166.808594 "/>
<path style=" stroke:none;fill-rule:nonzero;fill:rgb(79.60968%,79.219055%,78.42865%);fill-opacity:1;" d="M 251.144531 166.808594 L 244.726562 166.808594 L 244.726562 160.402344 L 251.144531 160.402344 L 251.144531 166.808594 "/>
<path style=" stroke:none;fill-rule:nonzero;fill:rgb(79.60968%,79.219055%,78.42865%);fill-opacity:1;" d="M 212.621094 166.808594 L 206.199219 166.808594 L 206.199219 160.402344 L 212.621094 160.402344 L 212.621094 166.808594 "/>
<g clip-path="url(#clip4)" clip-rule="nonzero">
<path style=" stroke:none;fill-rule:nonzero;fill:rgb(6.269836%,5.879211%,5.099487%);fill-opacity:1;" d="M 161.253906 256.480469 L 167.671875 256.480469 L 167.671875 269.289062 L 161.253906 269.289062 Z M 148.410156 246.871094 C 148.410156 245.105469 149.851562 243.667969 151.621094 243.667969 L 177.304688 243.667969 C 179.074219 243.667969 180.515625 245.105469 180.515625 246.871094 C 180.515625 248.636719 179.074219 250.074219 177.304688 250.074219 L 151.621094 250.074219 C 149.851562 250.074219 148.410156 248.636719 148.410156 246.871094 Z M 161.253906 224.453125 L 167.671875 224.453125 L 167.671875 237.261719 L 161.253906 237.261719 Z M 148.410156 214.84375 C 148.410156 213.082031 149.851562 211.644531 151.621094 211.644531 L 177.304688 211.644531 C 179.074219 211.644531 180.515625 213.082031 180.515625 214.84375 C 180.515625 216.609375 179.074219 218.046875 177.304688 218.046875 L 151.621094 218.046875 C 149.851562 218.046875 148.410156 216.609375 148.410156 214.84375 Z M 161.253906 192.429688 L 167.671875 192.429688 L 167.671875 205.238281 L 161.253906 205.238281 Z M 148.410156 182.820312 C 148.410156 181.054688 149.851562 179.617188 151.621094 179.617188 L 177.304688 179.617188 C 179.074219 179.617188 180.515625 181.054688 180.515625 182.820312 C 180.515625 184.585938 179.074219 186.023438 177.304688 186.023438 L 151.621094 186.023438 C 149.851562 186.023438 148.410156 184.585938 148.410156 182.820312 Z M 161.253906 144.390625 C 161.253906 142.625 162.695312 141.1875 164.460938 141.1875 L 286.460938 141.1875 C 288.230469 141.1875 289.671875 142.625 289.671875 144.390625 L 289.671875 147.59375 L 170.882812 147.59375 C 169.117188 147.59375 167.671875 149.03125 167.671875 150.792969 L 167.671875 173.210938 L 161.253906 173.210938 Z M 308.933594 171.886719 L 301.183594 179.617188 L 296.09375 179.617188 L 296.09375 153.996094 L 308.933594 153.996094 Z M 296.09375 211.644531 L 296.09375 186.023438 L 308.933594 186.023438 L 308.933594 203.910156 L 301.183594 211.644531 Z M 296.09375 243.667969 L 296.09375 218.046875 L 308.933594 218.046875 L 308.933594 235.9375 L 301.183594 243.667969 Z M 296.09375 275.695312 L 296.09375 250.074219 L 308.933594 250.074219 L 308.933594 267.960938 L 301.183594 275.695312 Z M 308.933594 299.988281 L 301.183594 307.71875 L 296.09375 307.71875 L 296.09375 282.097656 L 308.933594 282.097656 Z M 286.460938 320.53125 L 164.460938 320.53125 C 162.695312 320.53125 161.253906 319.089844 161.253906 317.328125 L 161.253906 288.503906 L 167.671875 288.503906 L 167.671875 310.921875 C 167.671875 312.6875 169.117188 314.125 170.882812 314.125 L 289.671875 314.125 L 289.671875 317.328125 C 289.671875 319.089844 288.230469 320.53125 286.460938 320.53125 Z M 177.304688 256.480469 C 182.621094 256.480469 186.9375 252.175781 186.9375 246.871094 C 186.9375 241.566406 182.621094 237.261719 177.304688 237.261719 L 174.09375 237.261719 L 174.09375 224.453125 L 177.304688 224.453125 C 182.621094 224.453125 186.9375 220.148438 186.9375 214.84375 C 186.9375 209.542969 182.621094 205.238281 177.304688 205.238281 L 174.09375 205.238281 L 174.09375 192.429688 L 177.304688 192.429688 C 182.621094 192.429688 186.9375 188.125 186.9375 182.820312 C 186.9375 177.515625 182.621094 173.210938 177.304688 173.210938 L 174.09375 173.210938 L 174.09375 153.996094 L 289.671875 153.996094 L 289.671875 307.71875 L 174.09375 307.71875 L 174.09375 288.503906 L 177.304688 288.503906 C 182.621094 288.503906 186.9375 284.199219 186.9375 278.894531 C 186.9375 273.59375 182.621094 269.289062 177.304688 269.289062 L 174.09375 269.289062 L 174.09375 256.480469 Z M 148.410156 278.894531 C 148.410156 277.132812 149.851562 275.695312 151.621094 275.695312 L 177.304688 275.695312 C 179.074219 275.695312 180.515625 277.132812 180.515625 278.894531 C 180.515625 280.660156 179.074219 282.097656 177.304688 282.097656 L 151.621094 282.097656 C 149.851562 282.097656 148.410156 280.660156 148.410156 278.894531 Z M 151.621094 269.289062 C 146.304688 269.289062 141.988281 273.59375 141.988281 278.894531 C 141.988281 284.199219 146.304688 288.503906 151.621094 288.503906 L 154.832031 288.503906 L 154.832031 317.328125 C 154.832031 322.632812 159.144531 326.933594 164.460938 326.933594 L 286.460938 326.933594 C 291.777344 326.933594 296.09375 322.632812 296.09375 317.328125 L 296.09375 314.125 L 302.511719 314.125 C 303.367188 314.125 304.179688 313.785156 304.785156 313.1875 L 314.414062 303.578125 C 315.015625 302.976562 315.355469 302.164062 315.355469 301.3125 L 315.355469 278.894531 C 315.355469 277.132812 313.914062 275.695312 312.144531 275.695312 L 310.261719 275.695312 L 314.414062 271.554688 C 315.015625 270.953125 315.355469 270.140625 315.355469 269.289062 L 315.355469 246.871094 C 315.355469 245.105469 313.914062 243.667969 312.144531 243.667969 L 310.261719 243.667969 L 314.414062 239.527344 C 315.015625 238.925781 315.355469 238.113281 315.355469 237.261719 L 315.355469 214.84375 C 315.355469 213.082031 313.914062 211.644531 312.144531 211.644531 L 310.261719 211.644531 L 314.414062 207.503906 C 315.015625 206.902344 315.355469 206.089844 315.355469 205.238281 L 315.355469 182.820312 C 315.355469 181.054688 313.914062 179.617188 312.144531 179.617188 L 310.261719 179.617188 L 314.414062 175.476562 C 315.015625 174.875 315.355469 174.0625 315.355469 173.210938 L 315.355469 150.792969 C 315.355469 149.03125 313.914062 147.59375 312.144531 147.59375 L 296.09375 147.59375 L 296.09375 144.390625 C 296.09375 139.085938 291.777344 134.78125 286.460938 134.78125 L 164.460938 134.78125 C 159.144531 134.78125 154.832031 139.085938 154.832031 144.390625 L 154.832031 173.210938 L 151.621094 173.210938 C 146.304688 173.210938 141.988281 177.515625 141.988281 182.820312 C 141.988281 188.125 146.304688 192.429688 151.621094 192.429688 L 154.832031 192.429688 L 154.832031 205.238281 L 151.621094 205.238281 C 146.304688 205.238281 141.988281 209.542969 141.988281 214.84375 C 141.988281 220.148438 146.304688 224.453125 151.621094 224.453125 L 154.832031 224.453125 L 154.832031 237.261719 L 151.621094 237.261719 C 146.304688 237.261719 141.988281 241.566406 141.988281 246.871094 C 141.988281 252.175781 146.304688 256.480469 151.621094 256.480469 L 154.832031 256.480469 L 154.832031 269.289062 L 151.621094 269.289062 "/>
</g>
<path style=" stroke:none;fill-rule:nonzero;fill:rgb(6.269836%,5.879211%,5.099487%);fill-opacity:1;" d="M 211.917969 196.792969 L 209.109375 200.410156 L 204.882812 196.191406 C 205.796875 195.84375 206.777344 195.628906 207.804688 195.628906 C 209.308594 195.628906 210.714844 196.082031 211.917969 196.792969 Z M 215.832031 203.636719 C 215.832031 208.050781 212.230469 211.644531 207.804688 211.644531 C 203.378906 211.644531 199.777344 208.050781 199.777344 203.636719 C 199.777344 202.609375 199.992188 201.636719 200.34375 200.722656 L 207.140625 207.503906 C 207.742188 208.101562 208.558594 208.441406 209.410156 208.441406 C 209.472656 208.441406 209.535156 208.441406 209.609375 208.429688 C 210.527344 208.378906 211.378906 207.925781 211.941406 207.203125 L 215.703125 202.386719 C 215.769531 202.785156 215.832031 203.210938 215.832031 203.636719 Z M 207.804688 218.046875 C 215.769531 218.046875 222.25 211.582031 222.25 203.636719 C 222.25 201.035156 221.5 198.621094 220.28125 196.507812 L 234.417969 178.378906 C 235.507812 176.992188 235.257812 174.976562 233.851562 173.886719 C 232.445312 172.800781 230.441406 173.0625 229.347656 174.449219 L 215.894531 191.703125 C 213.585938 190.136719 210.800781 189.226562 207.804688 189.226562 C 204.230469 189.226562 200.996094 190.578125 198.472656 192.726562 C 198.121094 192.878906 197.796875 193.078125 197.507812 193.367188 C 197.21875 193.652344 197.03125 193.980469 196.867188 194.328125 C 194.710938 196.84375 193.355469 200.070312 193.355469 203.636719 C 193.355469 211.582031 199.839844 218.046875 207.804688 218.046875 "/>
<path style=" stroke:none;fill-rule:nonzero;fill:rgb(6.269836%,5.879211%,5.099487%);fill-opacity:1;" d="M 211.917969 238.425781 L 209.109375 242.042969 L 204.882812 237.828125 C 205.796875 237.476562 206.777344 237.261719 207.804688 237.261719 C 209.308594 237.261719 210.714844 237.714844 211.917969 238.425781 Z M 215.832031 245.269531 C 215.832031 249.6875 212.230469 253.277344 207.804688 253.277344 C 203.378906 253.277344 199.777344 249.6875 199.777344 245.269531 C 199.777344 244.242188 199.992188 243.269531 200.34375 242.355469 L 207.140625 249.136719 C 207.742188 249.734375 208.558594 250.074219 209.410156 250.074219 C 209.472656 250.074219 209.535156 250.074219 209.609375 250.0625 C 210.527344 250.011719 211.378906 249.5625 211.941406 248.835938 L 215.703125 244.019531 C 215.769531 244.417969 215.832031 244.84375 215.832031 245.269531 Z M 207.804688 259.679688 C 215.769531 259.679688 222.25 253.214844 222.25 245.269531 C 222.25 242.667969 221.5 240.253906 220.28125 238.140625 L 234.417969 220.011719 C 235.507812 218.625 235.257812 216.609375 233.851562 215.519531 C 232.445312 214.433594 230.441406 214.695312 229.347656 216.085938 L 215.894531 233.335938 C 213.585938 231.769531 210.800781 230.859375 207.804688 230.859375 C 204.230469 230.859375 200.996094 232.210938 198.472656 234.359375 C 198.121094 234.511719 197.796875 234.710938 197.507812 235 C 197.21875 235.285156 197.03125 235.613281 196.867188 235.960938 C 194.710938 238.476562 193.355469 241.703125 193.355469 245.269531 C 193.355469 253.214844 199.839844 259.679688 207.804688 259.679688 "/>
<path style=" stroke:none;fill-rule:nonzero;fill:rgb(6.269836%,5.879211%,5.099487%);fill-opacity:1;" d="M 207.804688 278.894531 C 212.230469 278.894531 215.832031 282.488281 215.832031 286.902344 C 215.832031 291.320312 212.230469 294.910156 207.804688 294.910156 C 203.378906 294.910156 199.777344 291.320312 199.777344 286.902344 C 199.777344 282.488281 203.378906 278.894531 207.804688 278.894531 Z M 207.804688 301.3125 C 215.769531 301.3125 222.25 294.847656 222.25 286.902344 C 222.25 278.957031 215.769531 272.492188 207.804688 272.492188 C 199.839844 272.492188 193.355469 278.957031 193.355469 286.902344 C 193.355469 294.847656 199.839844 301.3125 207.804688 301.3125 "/>
<path style=" stroke:none;fill-rule:nonzero;fill:rgb(6.269836%,5.879211%,5.099487%);fill-opacity:1;" d="M 231.882812 202.035156 C 231.882812 203.800781 233.324219 205.238281 235.09375 205.238281 L 273.617188 205.238281 C 275.386719 205.238281 276.828125 203.800781 276.828125 202.035156 C 276.828125 200.269531 275.386719 198.832031 273.617188 198.832031 L 235.09375 198.832031 C 233.324219 198.832031 231.882812 200.269531 231.882812 202.035156 "/>
<path style=" stroke:none;fill-rule:nonzero;fill:rgb(6.269836%,5.879211%,5.099487%);fill-opacity:1;" d="M 273.617188 243.667969 L 235.09375 243.667969 C 233.324219 243.667969 231.882812 245.105469 231.882812 246.871094 C 231.882812 248.636719 233.324219 250.074219 235.09375 250.074219 L 273.617188 250.074219 C 275.386719 250.074219 276.828125 248.636719 276.828125 246.871094 C 276.828125 245.105469 275.386719 243.667969 273.617188 243.667969 "/>
<path style=" stroke:none;fill-rule:nonzero;fill:rgb(6.269836%,5.879211%,5.099487%);fill-opacity:1;" d="M 273.617188 285.300781 L 235.09375 285.300781 C 233.324219 285.300781 231.882812 286.738281 231.882812 288.503906 C 231.882812 290.269531 233.324219 291.707031 235.09375 291.707031 L 273.617188 291.707031 C 275.386719 291.707031 276.828125 290.269531 276.828125 288.503906 C 276.828125 286.738281 275.386719 285.300781 273.617188 285.300781 "/>
<path style=" stroke:none;fill-rule:nonzero;fill:rgb(6.269836%,5.879211%,5.099487%);fill-opacity:1;" d="M 231.882812 160.402344 L 225.460938 160.402344 L 225.460938 166.808594 L 231.882812 166.808594 L 231.882812 160.402344 "/>
<path style=" stroke:none;fill-rule:nonzero;fill:rgb(6.269836%,5.879211%,5.099487%);fill-opacity:1;" d="M 251.144531 160.402344 L 244.726562 160.402344 L 244.726562 166.808594 L 251.144531 166.808594 L 251.144531 160.402344 "/>
<path style=" stroke:none;fill-rule:nonzero;fill:rgb(6.269836%,5.879211%,5.099487%);fill-opacity:1;" d="M 212.621094 160.402344 L 206.199219 160.402344 L 206.199219 166.808594 L 212.621094 166.808594 L 212.621094 160.402344 "/>
</g>
</svg>
