<?xml version="1.0" encoding="UTF-8"?>
<svg xmlns="http://www.w3.org/2000/svg" xmlns:xlink="http://www.w3.org/1999/xlink" width="3750pt" height="749.999995pt" viewBox="0 0 3750 749.999995" version="1.2">
<g id="surface1">
<rect x="0" y="0" width="3750" height="749.999995" style="fill:rgb(100%,100%,100%);fill-opacity:1;stroke:none;"/>
<rect x="0" y="0" width="3750" height="749.999995" style="fill:rgb(100%,100%,100%);fill-opacity:1;stroke:none;"/>
<rect x="0" y="0" width="3750" height="749.999995" style="fill:rgb(83.139038%,36.468506%,26.669312%);fill-opacity:1;stroke:none;"/>
<path style=" stroke:none;fill-rule:nonzero;fill:rgb(10.978699%,10.198975%,17.248535%);fill-opacity:1;" d="M -1396.949219 349.351562 C -1316.878906 298.3125 -1253.492188 257.257812 -1115.589844 257.257812 C -977.691406 257.257812 -914.300781 297.203125 -834.230469 349.351562 C -743.039062 408.160156 -629.601562 480.285156 -420.527344 480.285156 C -211.453125 480.285156 -98.019531 408.160156 -6.828125 350.460938 C 73.242188 299.421875 136.632812 258.367188 274.53125 258.367188 C 412.433594 258.367188 475.820312 298.3125 555.894531 350.460938 C 647.085938 408.160156 760.519531 480.285156 969.59375 480.285156 C 1178.667969 480.285156 1292.101562 408.160156 1383.292969 350.460938 C 1463.363281 299.421875 1526.753906 258.367188 1664.65625 258.367188 C 1802.554688 258.367188 1865.945312 298.3125 1946.015625 350.460938 C 2037.207031 408.160156 2150.640625 480.285156 2359.714844 480.285156 C 2568.789062 480.285156 2682.226562 408.160156 2773.417969 350.460938 C 2853.488281 299.421875 2916.878906 258.367188 3054.777344 258.367188 C 3192.679688 258.367188 3256.066406 298.3125 3336.136719 350.460938 C 3427.332031 408.160156 3540.765625 480.285156 3749.839844 480.285156 L 3749.839844 -1370.515625 L -1810.652344 -1370.515625 L -1810.652344 480.285156 C -1601.578125 480.285156 -1488.144531 408.160156 -1396.949219 349.351562 Z M -1396.949219 349.351562 "/>
</g>
</svg>
